ply
format ascii 1.0
element vertex 859
property float x
property float y
property float z
property float nx
property float ny
property float nz
property uchar diffuse_red
property uchar diffuse_green
property uchar diffuse_blue
property uchar class
property uchar detection
end_header
0.8214 3.0377 -0.1952 -0.998 -0.018 -0.055 77 76 78 0 0
0.6503 3.2191 -0.1208 -0.175 0.379 -0.909 54 52 55 0 0
0.5673 3.1631 -0.0308 -0.731 0.447 -0.515 83 83 85 0 0
0.5935 3.1775 -0.0371 -0.653 0.381 -0.655 83 83 85 0 0
0.6315 2.9577 0.0018 -0.658 -0.176 -0.732 68 68 69 0 0
0.6317 2.9741 -0.0006 -0.698 -0.024 -0.716 50 49 52 0 0
0.5566 3.1576 -0.0147 -0.826 0.170 -0.538 103 101 104 0 0
0.5634 3.1691 -0.0174 -0.607 0.541 -0.582 94 94 96 0 0
0.5727 3.1788 -0.0203 -0.465 0.552 -0.692 87 87 89 0 0
0.5906 3.1827 -0.0237 -0.315 0.343 -0.885 59 59 61 0 0
0.6344 3.2175 -0.0357 -0.585 0.028 -0.811 38 36 41 0 0
0.5992 2.9673 0.0195 -0.914 0.387 0.121 57 56 61 0 0
0.6036 3.0139 0.0121 -0.272 0.441 -0.855 34 34 36 0 0
0.5540 3.1627 -0.0013 -0.815 0.396 -0.424 79 79 80 0 0
0.5503 3.1814 -0.0034 -0.320 0.448 -0.835 57 56 59 0 0
0.5745 3.2131 -0.0118 -0.254 0.650 -0.716 43 41 46 0 0
0.5795 2.9847 0.0340 -0.787 -0.082 -0.611 39 39 41 0 0
0.5774 3.0028 0.0317 -0.714 -0.140 -0.686 49 49 50 0 0
0.5727 3.2336 -0.0008 -0.712 -0.129 -0.690 49 47 52 0 0
0.5449 3.1916 0.0232 -0.383 0.796 -0.468 34 33 38 0 0
0.5501 3.2202 0.0183 -0.879 -0.116 -0.463 33 31 36 0 0
0.5561 3.2321 0.0156 -0.920 0.393 0.000 59 57 62 0 0
0.6453 3.3002 -0.0082 -0.036 0.764 -0.644 91 91 93 0 0
1.0988 2.2402 0.0898 0.295 0.937 0.187 171 170 169 0 0
0.5904 2.8836 0.0748 -0.662 -0.446 -0.602 77 79 78 0 0
0.5705 2.9147 0.0733 -0.728 -0.436 -0.529 69 69 70 0 0
0.6061 3.3135 0.0096 -0.014 0.658 -0.753 78 78 80 0 0
0.6392 3.3234 0.0030 -0.152 0.583 -0.798 53 53 55 0 0
0.5606 2.8918 0.0921 -0.764 -0.452 -0.461 80 80 81 0 0
0.5717 3.3867 0.0177 -0.519 0.480 -0.707 27 25 28 0 0
0.5242 3.2636 0.0567 -0.902 0.210 0.377 69 67 69 0 0
0.5591 2.8493 0.1266 -0.739 -0.372 -0.562 78 78 78 0 0
0.5156 3.3202 0.0631 -0.788 0.511 0.343 76 76 76 0 0
0.5251 3.3296 0.0603 -0.438 0.841 -0.318 59 59 61 0 0
0.5230 3.3782 0.0534 -0.630 0.291 -0.720 19 19 21 0 0
0.5514 3.4065 0.0449 -0.766 0.094 -0.636 54 52 55 0 0
0.5209 3.3198 0.0759 -0.788 0.511 0.343 37 36 42 0 0
0.4986 3.3662 0.0723 -0.788 0.316 -0.529 15 15 20 0 0
0.5371 3.4347 0.0563 -0.831 -0.031 -0.556 50 50 52 0 0
0.5126 3.3287 0.0893 -0.834 0.537 -0.125 20 19 24 0 0
0.5344 3.4397 0.0694 -0.845 0.060 -0.532 83 83 85 0 0
0.5735 2.7811 0.1768 -0.603 -0.575 -0.553 64 64 67 0 0
0.5110 3.3014 0.1072 -0.968 0.237 0.080 20 18 23 0 0
0.5101 3.3053 0.1202 -0.953 0.082 -0.291 14 13 17 0 0
0.5102 3.4463 0.0987 -0.954 0.045 -0.297 86 86 88 0 0
0.5113 3.4611 0.0963 -0.559 0.829 -0.030 86 86 88 0 0
0.5094 3.4345 0.1141 -0.840 0.221 -0.496 100 100 102 0 0
0.5078 3.4511 0.1117 -0.770 0.420 -0.480 96 96 97 0 0
0.5160 3.4613 0.1090 -0.589 0.674 -0.446 60 59 62 0 0
0.9309 2.2169 0.2549 -0.591 -0.427 -0.685 88 88 89 0 0
0.4188 3.1511 0.1841 -0.818 0.572 -0.062 12 12 14 0 0
0.4989 3.4290 0.1298 -0.971 0.054 0.234 92 92 96 0 0
0.5063 3.4397 0.1271 -0.951 0.303 -0.056 69 68 73 0 0
0.5138 3.4504 0.1244 -0.873 0.487 -0.026 40 39 42 0 0
0.5250 3.4587 0.1215 -0.515 0.857 0.010 26 26 28 0 0
0.4197 3.1538 0.1971 -0.818 0.572 -0.062 13 13 15 0 0
0.4448 3.2164 0.1839 -0.786 0.568 0.246 46 46 48 0 0
0.4546 3.2256 0.1811 -0.726 0.479 -0.493 46 46 48 0 0
0.5006 3.4156 0.1451 -0.989 -0.143 0.032 58 57 61 0 0
0.4957 3.4344 0.1429 -0.958 0.274 -0.091 48 47 52 0 0
0.5058 3.4433 0.1400 -0.879 0.454 -0.145 30 29 34 0 0
0.5143 3.4533 0.1373 -0.881 0.468 -0.064 24 23 28 0 0
0.5176 3.4667 0.1347 -0.702 0.710 -0.047 31 31 34 0 0
0.4511 3.2153 0.1967 -0.952 0.179 -0.248 44 44 46 0 0
0.4966 3.4058 0.1606 -0.808 -0.041 -0.588 32 31 36 0 0
0.4978 3.4206 0.1581 -0.810 0.167 -0.562 22 21 26 0 0
0.4975 3.4364 0.1557 -0.871 0.343 -0.352 16 15 20 0 0
0.5054 3.4468 0.1530 -0.879 0.454 -0.145 28 27 32 0 0
0.8398 2.3172 0.2971 -0.764 -0.313 -0.565 47 46 50 0 0
0.4536 3.2168 0.2097 -0.811 0.076 -0.580 41 41 43 0 0
0.4401 3.2421 0.2076 -0.549 0.030 -0.835 45 45 47 0 0
0.4956 3.4409 0.1687 -0.615 0.786 -0.068 39 38 42 0 0
0.5060 3.4496 0.1659 -0.763 0.592 0.261 71 70 73 0 0
0.4605 3.2153 0.2225 -0.980 0.104 -0.169 37 37 39 0 0
0.4541 3.2357 0.2202 -0.963 -0.196 -0.187 41 41 43 0 0
0.4700 3.2407 0.2172 -0.688 -0.586 -0.429 32 32 34 0 0
0.4498 3.2863 0.2128 -0.831 0.364 -0.420 51 50 53 0 0
0.4829 3.4369 0.1845 -0.810 0.167 -0.562 48 48 50 0 0
0.4863 3.4501 0.1819 -0.624 0.451 -0.638 69 69 71 0 0
0.4950 3.4600 0.1792 -0.806 0.292 -0.515 77 77 79 0 0
0.5073 3.4675 0.1763 -0.991 -0.134 -0.000 79 77 80 0 0
0.5091 3.4819 0.1738 -0.993 -0.006 0.117 78 76 79 0 0
0.4835 3.2188 0.2324 -0.825 -0.548 0.135 39 39 41 0 0
0.4576 3.2684 0.2281 -0.797 -0.082 0.599 51 49 51 0 0
0.4801 3.4264 0.1999 -0.788 0.304 -0.535 57 56 58 0 0
0.4865 3.4377 0.1973 -0.785 0.453 -0.421 68 68 70 0 0
0.4931 3.4489 0.1946 -0.680 0.616 -0.397 69 69 71 0 0
0.4828 3.4433 0.2103 -0.785 0.453 -0.421 63 63 64 0 0
0.5151 3.4999 0.1969 -0.871 0.258 -0.418 54 55 57 0 0
0.5238 3.5097 0.1941 -0.668 0.560 -0.489 36 37 41 0 0
0.5383 3.5159 0.1912 -0.581 0.445 -0.681 22 22 27 0 0
0.5438 3.5278 0.1886 -0.673 0.116 -0.730 22 22 26 0 0
0.5480 3.5405 0.1860 -0.728 0.035 -0.685 19 19 22 0 0
0.4793 3.4489 0.2233 -0.899 0.274 0.343 59 63 62 0 0
0.4872 3.4592 0.2205 -0.697 0.648 -0.308 55 59 59 0 0
0.4929 3.4710 0.2179 -0.911 0.405 0.073 49 52 54 0 0
0.5000 3.4974 0.2127 -0.830 0.390 0.400 34 34 39 0 0
0.5052 3.5095 0.2101 -0.504 0.859 0.086 24 23 29 0 0
0.5183 3.5165 0.2072 -0.777 0.314 -0.545 20 19 24 0 0
0.5267 3.5265 0.2045 -0.738 0.093 -0.668 16 15 19 0 0
0.5304 3.5395 0.2019 -0.818 0.160 -0.552 21 20 23 0 0
0.4845 3.4642 0.2335 -0.762 0.529 -0.372 28 29 34 0 0
0.4986 3.4860 0.2281 -0.820 0.420 -0.389 16 16 19 0 0
0.5038 3.4981 0.2255 -0.777 0.146 -0.612 13 12 15 0 0
0.5152 3.1940 0.2868 -0.288 0.738 -0.610 29 28 31 0 0
0.5324 3.1983 0.2838 -0.288 0.738 -0.610 34 33 37 0 0
0.4818 3.4692 0.2465 -0.823 0.462 -0.331 13 14 19 0 0
0.4880 3.4806 0.2438 -0.845 0.424 -0.325 13 14 18 0 0
0.4952 3.4914 0.2411 -0.820 0.420 -0.389 11 11 15 0 0
0.5009 3.5032 0.2384 -0.812 0.461 -0.358 14 13 16 0 0
0.5076 3.5143 0.2358 -0.866 0.091 -0.491 35 34 37 0 0
0.5021 3.5333 0.2334 -0.874 -0.059 -0.482 67 65 68 0 0
0.5752 3.1885 0.2936 -0.832 -0.502 -0.235 36 35 41 0 0
0.5173 3.2760 0.2868 -0.174 0.226 0.959 23 22 27 0 0
0.4789 3.4743 0.2594 -0.856 0.389 -0.341 13 12 17 0 0
0.4857 3.4853 0.2567 -0.910 0.262 -0.321 21 21 26 0 0
0.4974 3.5087 0.2514 -0.834 0.281 -0.475 57 54 58 0 0
0.4956 3.5252 0.2489 -0.855 -0.086 -0.512 76 71 75 0 0
0.4038 3.2295 0.3226 -0.993 -0.120 0.013 30 30 32 0 0
0.4797 3.5079 0.2672 -0.593 0.708 -0.382 64 63 66 0 0
0.4918 3.5155 0.2644 -0.896 0.312 -0.315 72 68 70 0 0
0.4942 3.5447 0.2593 -0.941 0.014 -0.339 84 81 83 0 0
0.4893 3.5203 0.2773 -0.897 0.442 -0.000 72 73 72 0 0
0.4963 3.5312 0.2746 -0.996 -0.021 0.088 71 71 69 0 0
0.4977 3.5457 0.2720 -0.996 0.022 0.092 59 57 61 0 0
0.4767 3.5316 0.2904 -0.991 0.119 -0.066 50 50 52 0 0
0.4894 3.5388 0.2876 -0.888 0.247 -0.389 31 31 33 0 0
0.4940 3.5512 0.2850 -0.888 0.247 -0.389 22 21 26 0 0
0.5045 3.5599 0.2822 -0.764 0.195 -0.615 17 16 22 0 0
0.5873 3.0792 0.3656 -0.698 -0.677 0.232 25 25 27 0 0
0.4910 3.2270 0.3528 -0.832 0.449 -0.326 29 29 31 0 0
0.5051 3.2334 0.3500 -0.380 0.769 -0.515 29 29 31 0 0
0.5587 3.2290 0.3441 -0.295 0.858 -0.420 33 33 35 0 0
0.4716 3.5381 0.3033 -0.602 0.536 -0.592 17 17 19 0 0
0.4903 3.5568 0.2979 -0.616 0.340 -0.711 11 10 15 0 0
0.4989 3.5667 0.2951 -0.616 0.340 -0.711 13 12 17 0 0
0.5733 3.0924 0.3790 -0.743 -0.666 -0.075 21 21 23 0 0
0.5119 3.1514 0.3766 -0.736 -0.656 0.166 20 20 22 0 0
0.5044 3.2532 0.3605 0.098 0.731 -0.675 29 29 31 0 0
0.5389 3.2458 0.3575 0.098 0.731 -0.675 32 32 34 0 0
0.5755 3.2371 0.3545 -0.223 0.701 -0.677 37 37 39 0 0
0.4712 3.5262 0.3187 -0.576 0.116 -0.809 13 12 17 0 0
0.4182 3.0417 0.4203 -0.928 -0.366 -0.061 20 20 22 0 0
0.5749 3.0946 0.3924 -0.751 -0.660 -0.028 20 20 22 0 0
0.5066 3.2389 0.3763 -0.262 0.945 -0.195 30 30 32 0 0
0.4939 3.2636 0.3736 0.165 0.881 -0.444 29 29 31 0 0
0.4685 3.5157 0.3342 -0.629 -0.129 -0.767 13 12 15 0 0
0.4597 3.5092 0.3497 -0.805 -0.302 -0.511 14 12 16 0 0
0.5279 3.2471 0.3997 0.139 0.972 0.190 29 29 31 0 0
0.5567 3.2436 0.3969 -0.393 0.919 -0.042 29 29 31 0 0
0.5820 3.0205 0.4600 0.219 0.600 -0.769 14 14 16 0 0
0.5458 3.1117 0.4484 -0.621 -0.608 0.496 17 17 19 0 0
0.4365 3.2361 0.4397 -0.966 0.176 -0.191 16 17 21 0 0
0.4005 3.2768 0.4368 -0.919 0.275 -0.283 22 20 25 0 0
0.5782 3.3509 0.4172 -0.556 -0.316 0.768 28 28 30 0 0
0.4384 3.2253 0.4686 -0.939 -0.246 0.239 16 17 17 0 0
0.4116 3.2915 0.4600 -0.814 0.541 0.210 29 27 28 0 0
0.4132 3.3063 0.4573 -0.898 0.418 0.134 30 30 32 0 0
0.4160 3.3076 0.4703 -0.896 0.444 -0.010 29 29 31 0 0
0.6182 3.2991 0.4492 -0.514 0.551 0.657 24 24 26 0 0
1.2429 1.9081 0.6392 -0.649 -0.709 0.275 142 142 142 0 0
0.4673 3.3077 0.4781 -0.597 0.557 -0.578 31 31 33 0 0
1.2685 1.8917 0.6553 -0.671 -0.694 0.261 135 135 135 0 0
0.4785 3.2235 0.5055 -0.914 -0.317 -0.254 18 18 20 0 0
0.4573 3.3178 0.4911 -0.723 0.661 -0.200 31 31 33 0 0
0.5735 3.2875 0.4838 -0.838 0.226 0.497 28 28 30 0 0
0.5040 3.6596 0.4255 -0.920 -0.103 0.377 14 13 18 0 0
0.4756 3.2287 0.5185 -0.966 0.237 0.103 18 18 20 0 0
0.5788 3.2872 0.4971 -0.111 0.935 0.337 27 27 29 0 0
0.5773 3.3042 0.4942 0.170 0.979 0.111 27 27 29 0 0
0.5227 3.6512 0.4383 -0.865 -0.388 -0.319 11 10 15 0 0
0.4998 3.1993 0.5350 -0.954 0.135 0.266 18 18 20 0 0
0.5908 3.2985 0.5076 0.177 0.983 0.043 27 27 29 0 0
0.5031 3.2003 0.5482 -0.713 0.691 0.121 19 19 21 0 0
0.5064 3.2014 0.5615 -0.713 0.691 0.121 20 20 22 0 0
0.6060 3.3110 0.5314 -0.004 0.983 -0.183 23 23 25 0 0
0.7302 3.8689 0.4177 0.136 0.757 -0.639 52 53 55 0 0
0.4836 3.2844 0.5625 -0.771 0.618 0.154 31 31 33 0 0
0.6043 3.3154 0.5446 -0.197 0.913 -0.356 23 23 25 0 0
0.4876 3.6705 0.4920 -0.464 0.778 0.424 70 70 72 0 0
0.5079 3.2069 0.5879 -0.923 0.286 -0.259 21 21 23 0 0
0.6058 3.3178 0.5578 -0.586 0.592 -0.554 23 23 25 0 0
0.4784 3.6339 0.5129 -0.541 0.828 -0.149 36 36 38 0 0
0.4975 3.2174 0.6008 -0.851 0.228 -0.473 23 23 25 0 0
0.5116 3.3550 0.5879 0.151 0.988 -0.038 27 27 29 0 0
0.5765 3.3278 0.5865 -0.129 0.988 0.088 26 26 28 0 0
0.5929 3.3329 0.5840 -0.385 0.896 0.222 24 24 26 0 0
0.5885 3.3518 0.5810 -0.218 0.976 0.027 20 20 22 0 0
0.5757 3.3316 0.5997 -0.020 0.958 -0.287 26 26 28 0 0
0.5952 3.3347 0.5973 -0.143 0.946 -0.291 25 25 27 0 0
0.6076 3.3425 0.5946 -0.939 0.181 -0.292 22 22 24 0 0
0.4774 3.5983 0.5598 -0.186 0.268 0.945 30 30 32 0 0
0.7224 3.9192 0.4767 0.197 0.863 -0.466 47 47 49 0 0
0.4832 3.2370 0.6399 -0.732 0.162 -0.662 27 27 29 0 0
0.5341 3.3465 0.6147 0.185 0.918 -0.351 27 27 29 0 0
0.5773 3.3339 0.6129 0.106 0.891 -0.442 26 26 28 0 0
0.5984 3.3359 0.6106 0.041 0.890 -0.454 25 25 27 0 0
0.7093 3.9298 0.4894 0.177 0.891 -0.419 40 40 42 0 0
0.5305 3.3522 0.6277 0.185 0.918 -0.351 27 27 29 0 0
0.4615 3.5842 0.5907 -0.874 -0.099 -0.476 25 25 27 0 0
0.4733 3.2503 0.6659 -0.935 0.182 -0.305 28 28 30 0 0
0.5505 3.7450 0.5657 -0.622 0.276 0.733 13 12 16 0 0
0.4688 3.6926 0.5965 0.076 0.801 0.594 33 32 35 0 0
0.6447 3.8124 0.5578 -0.312 0.422 -0.852 18 18 20 0 0
0.5056 3.2670 0.6873 -0.582 0.811 0.053 32 32 34 0 0
0.5055 3.2704 0.7005 -0.722 0.630 -0.288 34 34 36 0 0
0.5564 3.7660 0.6014 -0.488 0.337 -0.805 13 13 15 0 0
0.7885 2.8824 0.7787 -0.653 -0.674 0.346 38 37 42 0 0
0.5110 3.2893 0.7240 -0.930 0.258 -0.262 40 40 42 0 0
0.5294 3.3249 0.7155 -0.941 0.338 -0.018 37 37 39 0 0
0.4810 3.2809 0.7419 -0.990 0.132 -0.054 32 32 34 0 0
0.5103 3.2930 0.7371 -0.939 0.343 0.010 41 41 43 0 0
0.5625 3.3221 0.7271 -0.367 0.889 0.274 33 33 35 0 0
0.4807 3.2843 0.7550 -0.990 0.132 -0.054 33 33 35 0 0
0.5016 3.2862 0.7530 -0.571 0.798 -0.193 38 38 40 0 0
0.5037 3.3008 0.7499 -0.843 0.536 0.052 42 42 44 0 0
0.4779 3.2574 0.7743 -0.935 -0.347 0.068 32 31 36 0 0
0.4988 3.2914 0.7660 -0.466 0.880 -0.086 40 38 44 0 0
0.5061 3.3024 0.7632 -0.702 0.711 0.032 46 44 47 0 0
0.5657 3.3265 0.7537 -0.680 0.652 0.335 32 32 33 0 0
0.5085 3.3041 0.7765 -0.614 0.788 0.044 46 46 47 0 0
0.5108 3.3058 0.7898 -0.363 0.932 -0.015 48 48 48 0 0
0.5114 3.2927 0.8062 -0.713 0.696 -0.082 44 45 47 0 0
0.5149 3.3064 0.8032 -0.449 0.893 -0.031 51 52 53 0 0
0.5152 3.2935 0.8195 -0.739 0.656 0.152 47 48 50 0 0
0.5269 3.6950 0.7522 -0.839 0.512 -0.186 17 17 19 0 0
0.5243 3.7118 0.7490 -0.990 0.014 0.140 18 16 19 0 0
0.5380 3.7488 0.7406 -0.662 0.562 0.496 28 27 30 0 0
0.5485 3.7726 0.7350 -0.400 0.914 -0.061 24 24 26 0 0
0.5577 3.7821 0.7324 -0.646 0.726 -0.234 17 17 19 0 0
0.5208 3.2641 0.8527 -0.812 0.035 0.583 37 37 40 0 0
0.5224 3.2791 0.8496 -0.686 0.437 0.581 44 45 47 0 0
0.5473 3.7009 0.7630 -0.181 0.247 0.952 28 26 29 0 0
0.5360 3.7230 0.7594 -0.150 0.281 0.948 28 26 29 0 0
0.5637 3.7365 0.7546 -0.130 0.335 0.933 17 16 19 0 0
0.5259 3.2640 0.8663 -0.685 0.527 0.502 38 38 40 0 0
0.5364 3.2730 0.8637 -0.958 0.050 0.283 47 48 50 0 0
0.5346 3.2903 0.8604 -0.999 -0.007 0.052 53 54 56 0 0
0.5425 3.3011 0.8576 -0.560 0.825 0.075 53 54 58 0 0
0.5541 3.3093 0.8551 -0.639 0.769 0.016 43 42 48 0 0
0.5655 3.3178 0.8526 -0.647 0.686 -0.333 37 37 39 0 0
0.5046 3.6847 0.7828 0.134 0.684 0.717 31 31 33 0 0
0.5588 3.7275 0.7703 -0.078 0.537 0.840 22 22 24 0 0
0.5353 3.2931 0.8736 -0.999 -0.007 0.052 55 56 58 0 0
0.5167 3.6193 0.8087 -0.939 -0.256 0.229 33 33 35 0 0
0.4920 3.6653 0.8011 0.057 0.696 0.716 32 32 34 0 0
0.5124 3.6679 0.7992 0.115 0.759 0.641 28 28 30 0 0
0.5679 3.8456 0.7592 -0.780 0.378 -0.498 10 9 14 0 0
0.5777 3.8548 0.7567 -0.218 0.819 -0.531 10 9 14 0 0
0.5816 3.8674 0.7538 -0.589 0.700 -0.403 11 10 15 0 0
0.5298 3.2680 0.8930 -0.081 0.926 0.369 43 44 46 0 0
0.5447 3.3062 0.8842 -0.989 0.095 0.116 52 52 57 0 0
0.5453 3.3218 0.8810 -0.964 -0.246 0.101 40 39 45 0 0
0.5930 3.8490 0.7702 -0.166 0.940 0.297 10 9 14 0 0
0.5396 3.3129 0.8971 -0.950 -0.290 -0.113 49 50 54 0 0
0.3849 3.6172 0.8451 -0.652 0.571 0.499 22 22 24 0 0
0.3724 3.5979 0.8633 -0.843 0.489 0.226 18 18 20 0 0
0.3739 3.6274 0.8572 -0.828 0.550 -0.111 18 18 20 0 0
0.5585 3.6861 0.8601 -0.015 0.994 0.112 18 18 20 0 0
0.5797 3.7189 0.8520 -0.885 0.454 0.105 15 15 17 0 0
0.5975 3.7538 0.8436 -0.506 0.744 -0.436 26 26 28 0 0
1.2606 2.3760 1.1194 -0.365 -0.232 0.902 89 89 89 0 0
0.6595 3.8143 0.8544 0.207 0.748 -0.631 29 28 31 0 0
0.4833 3.4524 0.9682 -0.868 -0.476 0.141 25 24 29 0 0
0.6427 3.8306 0.8791 0.298 0.891 -0.343 9 9 11 0 0
0.4707 3.5728 0.9571 0.310 0.934 -0.179 21 21 23 0 0
0.6174 3.1637 1.0641 -0.900 -0.294 0.322 29 28 33 0 0
0.6139 3.1990 1.0567 -0.901 0.016 0.434 43 47 47 0 0
0.6531 3.2868 1.0358 -0.939 -0.204 0.278 32 32 34 0 0
0.8483 2.9413 1.1141 -0.646 -0.715 -0.267 30 30 34 0 0
0.7231 3.0615 1.0948 -0.685 -0.719 -0.119 28 27 33 0 0
0.7442 3.9054 0.9122 -0.844 -0.088 0.528 35 33 36 0 0
0.6188 3.1859 1.0876 -0.864 0.122 0.489 42 43 44 0 0
0.4530 3.5815 1.0105 0.272 0.918 0.290 22 22 24 0 0
0.4870 3.5753 1.0102 0.330 0.877 0.349 22 22 24 0 0
0.8126 2.9730 1.1385 -0.661 -0.712 -0.237 28 29 33 0 0
0.8576 2.9282 1.1608 -0.655 -0.706 -0.268 28 29 33 0 0
0.7891 2.9926 1.1500 -0.669 -0.723 -0.171 27 28 31 0 0
0.6687 3.1091 1.1304 -0.687 -0.722 -0.075 29 29 34 0 0
0.6146 3.1955 1.1141 -0.750 0.626 0.212 48 49 51 0 0
0.5298 3.5547 1.0399 0.370 0.929 0.020 22 22 24 0 0
0.8300 2.9508 1.1719 -0.649 -0.682 -0.336 26 27 29 0 0
0.6159 3.1815 1.1313 -0.969 0.239 -0.058 38 39 43 0 0
0.7006 3.8227 0.9871 -0.561 0.306 -0.769 15 15 17 0 0
0.7975 2.9768 1.1824 -0.661 -0.694 -0.286 25 26 28 0 0
0.6180 3.1835 1.1450 -0.940 0.299 0.162 42 43 47 0 0
0.6253 3.1819 1.1592 -0.889 0.234 0.393 48 49 53 0 0
0.7219 3.8016 1.0183 -0.484 -0.431 0.761 10 10 12 0 0
0.7154 3.9112 0.9944 -0.827 0.040 -0.560 12 12 14 0 0
0.6295 3.1989 1.1696 -0.732 0.621 0.280 57 58 60 0 0
0.6371 3.2101 1.1667 -0.407 0.884 0.232 69 71 70 0 0
0.6276 3.6308 1.0739 -0.001 0.140 -0.990 23 23 25 0 0
0.6331 3.1834 1.1871 -0.982 0.087 0.168 48 48 50 0 0
0.6334 3.1996 1.1835 -0.652 0.735 0.186 65 66 67 0 0
0.6359 3.1848 1.2009 -0.981 0.021 0.191 53 53 55 0 0
0.6608 3.1845 1.2000 -0.372 0.898 0.233 70 70 72 0 0
0.6387 3.1863 1.2147 -0.981 0.021 0.191 62 60 63 0 0
0.6675 3.1833 1.2143 -0.291 0.892 0.345 70 70 73 0 0
0.6450 3.1854 1.2290 -0.972 0.148 0.181 68 70 70 0 0
0.6763 3.1808 1.2289 -0.168 0.938 0.305 67 68 71 0 0
0.7247 3.2144 1.2196 -0.561 0.760 0.328 33 33 36 0 0
0.4734 3.5543 1.1521 -0.836 -0.415 0.359 17 17 19 0 0
0.6481 3.1867 1.2429 -0.891 0.384 0.243 71 73 73 0 0
0.4751 3.5720 1.1617 -0.813 -0.149 0.563 20 20 22 0 0
1.1124 2.5721 1.3813 -0.642 -0.759 -0.110 148 148 148 0 0
0.6436 3.1635 1.2769 -0.430 0.779 0.456 52 52 55 0 0
0.7233 3.1594 1.2753 0.095 0.925 0.367 49 50 53 0 0
0.4896 3.5537 1.1929 -0.727 -0.417 0.546 19 19 21 0 0
0.5165 3.5521 1.1923 -0.536 0.486 0.691 22 22 24 0 0
0.4604 3.6494 1.1720 -0.679 -0.558 0.477 25 25 27 0 0
0.6546 3.1428 1.2957 -0.828 0.380 0.413 45 44 49 0 0
0.6534 3.1603 1.2917 -0.430 0.779 0.456 61 63 63 0 0
0.7402 3.1514 1.2911 0.095 0.925 0.367 43 44 47 0 0
0.7324 3.2064 1.2787 -0.595 0.468 0.653 32 33 37 0 0
0.6623 3.1410 1.3102 -0.831 0.272 0.485 49 48 53 0 0
0.7544 3.1952 1.2951 -0.868 -0.385 0.313 32 33 37 0 0
0.4684 3.5892 1.2128 -0.968 -0.001 0.251 21 21 23 0 0
0.4378 3.6546 1.1986 -0.851 -0.525 0.007 22 22 24 0 0
0.6726 3.1207 1.3290 -0.843 0.078 0.533 45 44 49 0 0
0.6688 3.1400 1.3247 -0.662 0.476 0.579 57 56 61 0 0
0.4871 3.5183 1.2424 -0.535 -0.565 -0.628 16 17 21 0 0
0.4420 3.5628 1.2333 -0.670 -0.570 -0.475 17 18 22 0 0
0.4972 3.5897 1.2256 -0.528 -0.106 -0.843 24 24 26 0 0
0.4706 3.6526 1.2118 -0.774 -0.604 0.187 23 23 25 0 0
1.0993 2.5817 1.4572 -0.846 -0.533 0.018 88 88 91 0 0
0.6807 3.1186 1.3437 -0.883 0.035 0.469 44 45 47 0 0
0.6779 3.1372 1.3395 -0.717 0.426 0.552 69 70 72 0 0
0.7532 3.1363 1.3377 0.129 0.922 0.366 44 45 50 0 0
0.4277 3.6060 1.2374 -0.772 -0.513 0.376 19 20 25 0 0
0.4264 3.6223 1.2336 -0.804 0.051 0.593 19 20 24 0 0
1.1009 2.5842 1.4721 -0.880 -0.457 0.130 79 80 83 0 0
1.0631 2.6655 1.4541 -0.886 -0.459 0.067 40 40 45 0 0
0.6843 3.1196 1.3579 -0.828 0.193 0.527 56 57 59 0 0
0.6869 3.1345 1.3543 -0.323 0.758 0.567 73 74 76 0 0
0.7479 3.1599 1.3469 -0.800 0.236 0.552 36 37 42 0 0
0.4096 3.5900 1.2552 -0.770 -0.511 -0.382 18 19 23 0 0
0.4821 3.6057 1.2497 -0.916 0.363 0.174 20 21 23 0 0
0.5002 3.6098 1.2483 -0.833 -0.434 -0.343 23 24 26 0 0
1.0688 2.6108 1.4822 -0.898 -0.426 0.109 72 75 77 0 0
0.6897 3.1193 1.3723 -0.535 0.670 0.515 68 69 71 0 0
0.4908 3.4629 1.2966 -0.761 -0.649 -0.026 17 18 23 0 0
0.4008 3.5988 1.2670 -0.779 -0.394 -0.487 18 19 23 0 0
0.4577 3.6243 1.2597 -0.131 0.723 0.678 29 30 32 0 0
0.4740 3.6295 1.2581 -0.298 0.570 0.766 32 33 35 0 0
0.4818 3.6399 1.2554 -0.726 -0.189 0.661 34 34 36 0 0
1.0690 2.6143 1.4968 -0.878 -0.459 0.134 69 71 73 0 0
0.7941 2.9321 1.4283 -0.774 -0.594 -0.220 28 29 31 0 0
0.6998 3.1158 1.3873 -0.535 0.670 0.515 74 76 77 0 0
0.7465 3.1176 1.3859 -0.073 0.879 0.471 55 56 59 0 0
0.4173 3.5915 1.2819 -0.788 -0.060 -0.613 20 20 25 0 0
0.4077 3.6284 1.2735 -0.754 0.395 0.525 23 23 28 0 0
0.4782 3.6146 1.2751 -0.839 0.216 0.499 40 40 43 0 0
0.7810 2.9448 1.4404 -0.774 -0.594 -0.220 28 29 31 0 0
0.7720 2.9682 1.4351 -0.838 -0.530 0.130 29 30 32 0 0
0.7796 3.1155 1.4002 -0.285 0.729 0.623 40 41 45 0 0
0.7934 3.1230 1.3982 -0.256 0.765 0.591 36 37 41 0 0
0.4250 3.5898 1.2958 -0.986 -0.032 0.162 21 20 25 0 0
0.4274 3.6037 1.2925 -0.980 0.124 0.155 21 20 26 0 0
0.4580 3.6151 1.2892 -0.922 -0.363 0.133 33 32 38 0 0
0.4860 3.6129 1.2891 -0.839 0.216 0.499 38 38 41 0 0
1.0298 3.5813 1.2852 -0.159 0.410 0.898 20 20 22 0 0
0.7095 3.0994 1.4200 -0.358 0.776 0.520 75 74 79 0 0
0.4240 3.6091 1.3049 -0.769 0.629 0.118 22 21 27 0 0
0.7211 3.0949 1.4354 -0.305 0.812 0.498 71 72 75 0 0
0.8081 3.1032 1.4319 -0.268 0.910 0.316 36 37 41 0 0
0.7654 3.1487 1.4218 -0.849 -0.395 0.350 35 36 40 0 0
0.9646 2.7604 1.5410 -0.737 -0.672 -0.072 31 30 35 0 0
0.5314 3.3925 1.3962 -0.642 0.137 -0.755 20 20 23 0 0
0.5514 3.3953 1.3952 -0.619 0.248 -0.745 16 16 18 0 0
0.5032 3.5216 1.3657 -0.681 -0.623 0.385 21 20 24 0 0
0.4785 3.6460 1.3362 -0.648 -0.168 0.743 41 41 44 0 0
0.5435 3.3879 1.4111 0.268 0.818 -0.509 20 20 22 0 0
0.7356 3.0482 1.5048 -0.929 0.198 0.314 75 74 77 0 0
0.7580 3.0497 1.5042 -0.747 0.575 0.333 73 73 75 0 0
0.7684 3.0595 1.5017 -0.691 0.576 0.436 64 64 67 0 0
0.8058 3.0680 1.4992 -0.178 0.767 0.617 45 43 49 0 0
0.7396 3.0489 1.5193 -0.991 0.084 0.108 78 78 80 0 0
0.7763 3.0576 1.5167 -0.691 0.576 0.436 60 60 63 0 0
0.5174 3.4116 1.4338 -0.902 -0.432 -0.005 29 30 32 0 0
0.7406 3.0516 1.5332 -0.987 0.106 0.119 76 76 78 0 0
0.5265 3.3929 1.4522 -0.911 -0.410 -0.048 26 27 31 0 0
0.4894 3.5902 1.4046 -0.694 0.615 0.375 30 31 33 0 0
0.5111 3.3904 1.4670 -0.764 0.040 0.644 22 23 28 0 0
0.3812 3.6005 1.4168 -0.636 -0.410 0.654 20 21 23 0 0
0.4136 3.6106 1.4140 0.151 0.982 -0.115 21 22 24 0 0
0.4965 3.5890 1.4186 -0.833 0.467 -0.295 27 28 30 0 0
0.5427 3.6066 1.4140 -0.584 -0.390 -0.712 23 23 25 0 0
0.7433 3.0567 1.5613 -0.983 -0.174 0.063 67 65 71 0 0
0.5298 3.3814 1.4831 -0.897 -0.437 0.060 19 19 24 0 0
0.5336 3.6311 1.4219 -0.559 -0.540 -0.629 20 21 23 0 0
0.5287 3.3854 1.4962 -0.897 -0.437 0.060 19 18 23 0 0
0.4214 3.5657 1.4524 -0.864 -0.290 0.411 20 21 23 0 0
0.4805 3.5901 1.4461 -0.164 0.789 0.591 24 25 27 0 0
0.5424 3.5978 1.4439 -0.727 -0.603 -0.329 36 37 40 0 0
0.5267 3.3901 1.5092 -0.904 -0.420 0.079 17 16 21 0 0
0.5703 3.3774 1.5121 -0.669 -0.739 0.074 16 16 18 0 0
0.5167 3.5860 1.4608 -0.671 -0.129 0.730 39 40 42 0 0
0.4373 3.7279 1.4260 0.240 0.749 0.618 41 42 46 0 0
1.1007 2.4966 1.7435 0.400 0.890 -0.219 91 92 94 0 0
0.5643 3.3847 1.5245 -0.673 -0.732 0.107 15 15 17 0 0
0.4147 3.5919 1.4734 0.248 0.969 -0.020 22 23 25 0 0
0.3874 3.5971 1.4859 -0.518 0.061 -0.853 22 23 25 0 0
0.5386 3.6719 1.4671 0.129 0.605 0.785 33 34 38 0 0
0.4308 3.6036 1.4980 0.215 0.782 -0.585 28 29 32 0 0
0.5467 3.6856 1.4776 -0.514 -0.046 0.856 37 38 42 0 0
0.8467 3.0068 1.6622 -0.121 0.942 0.312 38 39 44 0 0
0.7726 4.0427 1.4022 -0.869 0.216 0.446 36 33 35 0 0
0.8705 3.0113 1.6761 0.017 0.983 0.183 36 37 42 0 0
0.8871 3.0515 1.6660 -0.739 -0.667 -0.094 30 31 37 0 0
0.4045 3.5959 1.5274 -0.807 0.565 -0.170 23 24 26 0 0
0.4888 3.6353 1.5177 -0.702 -0.589 -0.401 23 24 26 0 0
0.7842 4.0397 1.4168 -0.982 0.187 -0.015 61 59 60 0 0
0.7906 3.1869 1.6463 -0.916 -0.053 0.397 19 20 24 0 0
0.5060 3.5967 1.5414 -0.888 -0.435 -0.151 39 40 44 0 0
0.4748 3.6474 1.5284 -0.860 -0.510 -0.005 37 38 40 0 0
0.4871 3.7012 1.5149 0.046 0.459 -0.887 16 15 20 0 0
0.4689 3.5923 1.5561 -0.642 0.333 0.690 31 31 36 0 0
0.4974 3.5899 1.5569 -0.863 -0.316 0.395 33 32 38 0 0
0.4909 3.6095 1.5519 -0.827 -0.369 0.424 35 35 40 0 0
0.4530 3.6642 1.5378 -0.685 0.040 0.727 47 48 50 0 0
0.4477 3.6829 1.5330 -0.657 -0.029 0.753 46 47 49 0 0
0.4547 3.6938 1.5303 -0.827 -0.233 0.511 43 44 46 0 0
0.4322 3.7383 1.5189 -0.709 -0.225 0.669 29 29 34 0 0
0.4550 3.7546 1.5149 0.346 0.921 -0.177 20 20 24 0 0
1.0855 4.0819 1.4357 0.367 0.923 -0.119 102 102 104 0 0
0.4559 3.5883 1.5709 -0.387 0.443 0.809 45 46 50 0 0
0.4933 3.5801 1.5733 -0.859 -0.235 0.455 52 53 56 0 0
0.4522 3.6679 1.5506 -0.976 -0.190 0.107 38 39 41 0 0
0.4464 3.7479 1.5302 -0.113 0.888 0.445 43 44 48 0 0
0.5278 3.7287 1.5357 0.341 0.937 -0.077 33 34 38 0 0
0.4589 3.6977 1.5568 -0.999 0.014 -0.029 37 38 42 0 0
0.4734 3.7802 1.5358 -0.540 -0.568 -0.622 44 45 47 0 0
0.4174 3.5883 1.5982 0.327 0.945 0.016 26 27 32 0 0
0.4150 3.8338 1.5351 -0.880 -0.449 0.152 44 45 47 0 0
0.4855 3.8698 1.5403 0.094 0.767 -0.634 42 43 48 0 0
0.5589 3.6920 1.6008 -0.503 -0.148 0.852 39 40 44 0 0
0.5505 3.7004 1.6124 -0.897 -0.298 0.326 39 40 44 0 0
0.5383 3.7232 1.6063 -0.625 -0.418 0.659 38 39 43 0 0
0.5295 3.7591 1.5969 -0.670 -0.321 0.670 40 41 45 0 0
0.5714 3.6909 1.6291 -0.769 -0.493 -0.406 35 36 40 0 0
0.5412 3.7400 1.6158 -0.725 -0.679 -0.114 37 38 42 0 0
0.4900 3.7862 1.6030 -0.971 -0.169 0.167 37 38 42 0 0
0.4862 3.8037 1.5984 -0.971 -0.169 0.167 37 38 42 0 0
0.4514 3.8547 1.5845 -0.808 -0.586 0.062 44 45 49 0 0
0.4401 3.8764 1.5787 -0.731 -0.665 -0.150 42 43 47 0 0
0.5929 3.3319 1.7372 0.274 0.962 0.006 17 16 21 0 0
0.4719 3.6474 1.6527 -0.910 -0.172 0.378 48 49 54 0 0
0.4919 3.6226 1.6734 -0.934 -0.354 0.035 36 37 39 0 0
0.4753 3.6485 1.6663 -0.778 -0.108 -0.619 37 38 40 0 0
0.4951 3.6516 1.6658 -0.857 0.031 -0.514 43 44 46 0 0
0.5075 3.6594 1.6640 -0.768 -0.156 -0.621 49 50 52 0 0
0.4556 3.7070 1.6506 -0.983 -0.139 -0.118 48 49 51 0 0
1.0090 4.1061 1.5564 0.155 0.819 -0.552 54 53 58 0 0
1.0319 4.1093 1.5560 0.022 0.685 -0.728 62 62 66 0 0
0.5893 3.3734 1.7549 -0.722 -0.692 -0.026 17 17 19 0 0
0.4866 3.6292 1.6854 -0.932 -0.360 0.050 55 56 58 0 0
0.4706 3.6547 1.6784 -0.904 -0.052 -0.424 48 49 51 0 0
0.4811 3.6636 1.6763 -0.752 0.185 -0.632 37 38 40 0 0
0.4967 3.7155 1.6629 -0.253 -0.166 -0.953 45 46 50 0 0
0.4797 3.8172 1.6358 -0.898 -0.372 -0.235 23 24 28 0 0
0.5949 3.3731 1.7694 -0.742 -0.670 -0.009 18 18 20 0 0
0.4918 3.6292 1.6994 -0.927 -0.354 0.121 52 53 55 0 0
0.4876 3.6474 1.6945 -0.943 0.081 0.324 44 45 47 0 0
0.4833 3.6655 1.6897 -0.894 0.259 -0.365 49 50 52 0 0
0.4910 3.6330 1.7123 -0.942 -0.331 0.052 40 41 44 0 0
0.8071 4.0728 1.6030 -0.726 0.688 0.009 15 15 17 0 0
1.0367 4.1168 1.5967 0.273 0.948 -0.166 66 68 69 0 0
0.4905 3.6366 1.7253 -0.942 -0.331 0.052 21 22 26 0 0
0.4926 3.6816 1.7133 -0.893 0.258 0.368 41 42 46 0 0
0.4951 3.6955 1.7097 -0.893 0.258 0.368 42 43 46 0 0
0.4989 3.5878 1.7524 -0.936 -0.297 0.189 40 41 45 0 0
0.4970 3.6046 1.7479 -0.920 -0.386 -0.060 29 30 34 0 0
0.4954 3.6212 1.7434 -0.918 -0.392 0.067 22 23 27 0 0
0.4900 3.6401 1.7382 -0.922 -0.384 0.040 19 20 24 0 0
0.4958 3.6983 1.7228 -0.943 0.271 -0.195 33 34 37 0 0
0.6699 3.0037 1.9277 0.239 0.331 -0.913 67 68 68 0 0
0.5102 3.8604 1.6936 -0.230 0.852 0.470 30 29 34 0 0
0.5168 3.7533 1.7363 -0.662 -0.692 -0.286 35 36 38 0 0
0.8084 4.0702 1.6596 -0.597 0.735 -0.323 47 46 51 0 0
0.4853 3.5593 1.8016 -0.571 0.636 0.518 70 71 72 0 0
0.4891 3.5725 1.7982 -0.807 0.274 0.524 71 72 73 0 0
0.4830 3.7922 1.7387 -0.625 -0.610 -0.487 25 26 28 0 0
0.4714 3.8144 1.7323 -0.763 -0.563 -0.316 33 34 36 0 0
0.8246 4.0648 1.6755 -0.969 0.241 -0.047 39 38 43 0 0
0.5002 3.8759 1.7303 -0.172 0.421 -0.890 13 13 15 0 0
1.0534 4.1282 1.6796 0.050 0.740 -0.671 61 63 62 0 0
1.0723 4.1336 1.6788 -0.186 0.493 -0.850 69 70 72 0 0
0.4791 3.6322 1.8096 -0.691 0.390 -0.609 57 58 62 0 0
0.4686 3.6542 1.8033 -0.667 0.740 -0.090 55 56 60 0 0
0.4849 3.8881 1.7402 -0.165 0.710 -0.684 15 15 17 0 0
0.4840 3.9036 1.7360 -0.158 0.987 -0.016 14 14 16 0 0
0.8243 4.0715 1.7017 -0.885 0.446 0.132 54 54 57 0 0
0.7679 4.1608 1.6755 -0.903 0.250 -0.349 26 25 28 0 0
0.4672 3.6429 1.8202 -0.462 0.501 -0.732 48 47 52 0 0
0.4552 3.8338 1.7677 -0.649 0.436 0.623 44 45 49 0 0
0.4709 3.6438 1.8340 -0.884 0.413 -0.216 24 23 28 0 0
0.5070 3.7141 1.8160 -0.864 -0.034 0.503 45 46 50 0 0
0.4530 3.6583 1.8432 -0.950 0.287 -0.122 17 16 21 0 0
1.0911 2.4629 2.2117 -0.933 -0.059 0.354 81 81 85 0 0
0.5222 3.9390 1.7824 0.318 0.880 0.354 45 46 48 0 0
0.8099 4.0923 1.7514 -0.750 -0.085 0.656 26 24 26 0 0
0.4667 3.8698 1.8130 -0.634 0.470 0.614 29 32 36 0 0
0.8235 4.0882 1.7671 -0.109 0.884 -0.454 46 45 48 0 0
1.1015 2.4440 2.2493 -0.924 -0.354 0.143 93 94 96 0 0
0.4786 3.8660 1.8283 -0.634 0.470 0.614 39 42 46 0 0
0.4827 3.8786 1.8250 -0.735 -0.202 0.648 43 46 49 0 0
1.1042 2.4458 2.2649 -0.872 -0.461 0.163 104 104 106 0 0
0.4445 3.6766 1.8934 -0.666 0.708 0.237 38 39 42 0 0
0.4550 3.7162 1.8828 -0.332 0.916 -0.224 47 48 51 0 0
0.4624 3.8788 1.8378 -0.795 0.205 -0.571 19 21 24 0 0
0.5033 3.7359 1.8933 -0.692 0.083 -0.717 47 48 52 0 0
0.8322 4.1381 1.7956 -0.794 0.587 -0.158 31 31 34 0 0
0.8498 4.0874 1.8246 -0.888 0.423 0.180 41 41 43 0 0
0.4731 3.8217 1.8955 -0.874 0.485 -0.040 46 47 51 0 0
0.5303 3.8331 1.8950 -0.505 0.352 -0.788 39 40 44 0 0
1.1720 2.3922 2.3475 -0.798 -0.464 0.384 161 162 161 0 0
0.5200 3.8424 1.9058 -0.436 0.449 -0.780 47 48 50 0 0
0.5013 3.8112 1.9275 -0.712 0.025 -0.701 36 37 39 0 0
0.5468 3.8904 1.9074 -0.503 0.762 -0.408 43 44 46 0 0
0.5706 3.9217 1.8997 -0.813 -0.127 -0.569 37 38 40 0 0
0.6255 3.9354 1.8986 0.423 0.777 -0.467 25 27 28 0 0
0.5368 3.7472 1.9614 -0.687 -0.164 0.708 37 38 40 0 0
0.5371 3.7623 1.9571 -0.594 -0.204 0.778 35 36 39 0 0
0.5357 3.8850 1.9222 -0.232 0.537 -0.811 46 48 45 0 0
0.5764 3.9065 1.9182 -0.548 0.151 -0.823 45 46 48 0 0
0.5843 3.9170 1.9156 -0.538 0.261 -0.801 44 45 47 0 0
0.5959 3.9254 1.9138 -0.773 0.146 -0.618 42 43 45 0 0
0.5991 3.9386 1.9102 -0.843 -0.050 -0.536 39 40 42 0 0
0.6058 3.9499 1.9074 -0.844 0.193 -0.500 36 40 42 0 0
0.6113 3.9617 1.9043 -0.930 0.317 -0.185 35 39 41 0 0
0.5309 3.7540 1.9732 -0.881 -0.222 0.417 20 21 25 0 0
0.5719 3.9274 1.9259 -0.155 0.268 -0.951 46 47 49 0 0
0.5910 3.9315 1.9257 -0.346 0.141 -0.928 47 48 50 0 0
0.6102 3.9656 1.9170 -0.930 0.317 -0.185 45 45 50 0 0
1.0394 2.5231 2.3675 -0.633 -0.739 -0.231 80 80 82 0 0
0.7341 4.0943 1.9009 0.215 0.953 0.215 43 44 46 0 0
0.7835 4.0826 1.9069 0.286 0.945 0.161 44 45 47 0 0
0.5274 3.7473 2.0028 -0.066 0.767 -0.638 22 23 25 0 0
0.5425 3.8300 1.9799 -0.517 0.584 0.626 15 16 18 0 0
0.7790 4.1329 1.9063 -0.985 0.175 0.015 49 50 53 0 0
0.7918 4.1590 1.9134 -0.813 0.531 0.238 50 51 53 0 0
0.5713 3.8803 1.9949 -0.753 -0.206 0.625 14 15 18 0 0
0.5243 3.7126 2.0547 -0.730 -0.130 0.671 51 52 56 0 0
0.5763 3.8958 2.0047 -0.661 -0.253 0.707 14 15 17 0 0
0.6037 3.8951 2.0066 -0.839 -0.163 0.519 14 15 17 0 0
0.5973 3.9139 2.0007 -0.839 -0.067 0.540 13 14 16 0 0
0.5278 3.7907 2.0462 -0.677 0.662 0.323 45 46 50 0 0
0.5387 3.7995 2.0443 -0.691 0.679 0.248 43 44 49 0 0
0.7870 3.9463 2.0170 0.089 0.004 -0.996 25 25 27 0 0
0.5727 3.8131 2.0565 -0.532 0.803 0.269 44 45 50 0 0
0.5892 3.8948 2.0337 -0.869 -0.491 -0.054 33 34 36 0 0
0.8258 4.1244 1.9816 0.131 0.991 -0.039 39 39 41 0 0
0.5974 3.8170 2.0709 -0.467 0.803 0.371 46 46 50 0 0
0.6032 3.8290 2.0678 -0.632 0.681 0.370 45 45 50 0 0
0.6024 3.8904 2.0498 -0.887 -0.180 0.426 41 42 46 0 0
0.6107 3.9310 2.0384 -0.860 -0.098 0.501 39 40 44 0 0
1.1977 2.3237 2.5641 -0.680 -0.694 -0.237 154 154 156 0 0
0.4553 3.6908 2.1127 -0.989 -0.131 -0.073 51 52 56 0 0
0.4535 3.7074 2.1077 -0.989 -0.131 -0.073 47 48 52 0 0
0.5982 3.8505 2.0752 -0.930 0.270 0.249 44 48 51 0 0
0.5973 3.8662 2.0705 -0.907 -0.249 0.339 44 47 50 0 0
0.6075 3.9361 2.0507 -0.971 -0.127 0.202 43 44 48 0 0
0.5924 3.8571 2.0869 -0.918 0.312 -0.246 30 33 37 0 0
0.5973 3.8695 2.0836 -0.959 -0.282 0.002 37 40 43 0 0
0.5939 3.8867 2.0783 -0.962 -0.038 0.269 41 42 46 0 0
0.5934 3.9021 2.0737 -0.788 0.439 0.432 43 44 48 0 0
0.6404 3.9205 2.0715 -0.712 0.028 -0.702 46 47 51 0 0
0.6260 3.9439 2.0636 -0.890 -0.173 0.422 45 46 50 0 0
0.6180 3.9635 2.0572 -0.885 -0.199 0.420 44 45 49 0 0
0.4492 3.7011 2.1371 -0.611 0.787 0.080 36 37 41 0 0
0.6077 3.8667 2.0991 -0.496 0.050 -0.867 40 40 44 0 0
0.8107 4.1157 2.0396 -0.982 -0.014 0.189 48 49 53 0 0
0.4567 3.6688 2.1612 -0.689 -0.419 -0.591 37 38 43 0 0
0.4460 3.6909 2.1539 -0.819 -0.138 -0.557 35 36 41 0 0
0.4449 3.7070 2.1491 -0.654 0.738 -0.169 33 34 38 0 0
0.4573 3.7148 2.1476 -0.080 0.991 0.107 32 33 37 0 0
0.5925 3.8788 2.1085 -0.496 0.050 -0.867 28 29 31 0 0
0.5958 3.8921 2.1048 -0.283 0.381 -0.880 30 31 33 0 0
1.0128 2.5868 2.5379 -0.827 -0.283 -0.487 58 59 64 0 0
0.4631 3.6369 2.1852 -0.576 -0.784 -0.230 40 40 43 0 0
0.4358 3.6850 2.1689 -0.857 -0.478 -0.194 38 39 44 0 0
0.4302 3.7040 2.1629 -0.932 -0.361 -0.041 36 37 41 0 0
0.4511 3.7064 2.1637 -0.518 0.750 -0.411 33 34 36 0 0
0.6009 3.8160 2.1418 -0.433 0.696 0.572 34 35 37 0 0
0.6176 3.8215 2.1414 -0.288 0.653 0.701 32 33 35 0 0
0.6450 3.8208 2.1436 -0.293 0.548 0.784 28 29 31 0 0
0.6266 3.8469 2.1345 -0.685 0.373 0.626 24 25 27 0 0
0.5801 3.9044 2.1140 -0.213 0.418 -0.883 16 17 19 0 0
0.4238 3.6958 2.1788 -0.801 -0.533 -0.273 41 42 45 0 0
0.4155 3.7164 2.1720 -0.925 -0.074 -0.374 37 38 41 0 0
0.4223 3.7275 2.1692 -0.598 0.210 -0.774 33 33 35 0 0
0.6113 3.7669 2.1714 -0.437 0.492 0.753 31 31 36 0 0
0.8914 4.1428 2.0797 -0.962 -0.230 0.146 42 41 46 0 0
0.8918 4.1459 2.0930 -0.947 -0.322 0.023 34 33 39 0 0
0.8905 4.1615 2.0882 -0.983 -0.120 0.142 54 53 59 0 0
0.8908 4.1497 2.1060 -0.947 -0.322 0.023 53 53 59 0 0
0.8863 4.1254 2.1272 -0.426 0.895 0.128 16 16 18 0 0
0.9021 4.1322 2.1264 -0.424 0.888 0.177 16 17 21 0 0
0.8866 4.0684 2.1587 -0.304 0.949 0.087 34 34 36 0 0
0.8957 4.1238 2.1426 -0.731 0.664 0.158 15 16 18 0 0
0.9025 4.1353 2.1397 -0.640 0.763 0.092 15 16 19 0 0
1.0721 4.1383 2.1523 -0.051 0.971 0.232 38 38 42 0 0
1.2682 4.1313 2.1700 0.217 0.965 -0.150 73 73 76 0 0
1.0706 4.1425 2.1654 0.002 0.999 -0.053 39 40 45 0 0
1.1084 4.1385 2.1697 0.038 0.958 -0.286 39 40 45 0 0
1.2692 4.1342 2.1840 0.216 0.930 -0.297 76 77 81 0 0
0.9443 2.6256 2.6318 -0.778 -0.551 0.303 69 69 74 0 0
0.5877 4.0129 2.1795 -0.139 0.948 0.285 21 21 23 0 0
0.6361 4.0158 2.1826 0.137 0.969 0.207 19 20 22 0 0
0.6683 4.0278 2.1816 -0.524 0.827 0.203 20 21 23 0 0
0.9700 4.1520 2.1687 -0.081 0.981 -0.174 37 38 42 0 0
1.0405 4.1460 2.1763 0.091 0.991 -0.103 37 38 42 0 0
0.7210 4.0471 2.1942 -0.099 0.930 -0.353 13 14 16 0 0
0.9544 4.1483 2.1829 -0.054 0.986 -0.160 34 35 40 0 0
0.9735 4.1535 2.1829 -0.055 0.997 -0.057 34 35 39 0 0
1.0160 4.1468 2.1885 0.080 0.956 -0.282 37 38 42 0 0
1.3920 4.1424 2.2215 0.413 0.839 -0.354 121 120 118 0 0
1.0804 2.7184 2.6465 -0.126 0.040 -0.991 38 39 43 0 0
0.5743 4.0120 2.2065 -0.653 0.650 -0.388 15 15 17 0 0
0.6052 4.0096 2.2099 -0.291 0.956 -0.026 15 15 17 0 0
1.0148 4.1507 2.2016 0.080 0.956 -0.282 47 46 50 0 0
1.0372 2.7524 2.6482 -0.313 -0.167 -0.935 50 51 55 0 0
1.0418 2.7673 2.6441 -0.313 -0.167 -0.935 37 38 42 0 0
1.1274 2.9241 2.6032 -0.694 -0.709 -0.126 68 68 68 0 0
0.5565 4.0104 2.2194 -0.498 0.789 -0.360 14 14 16 0 0
0.5666 4.0196 2.2174 -0.647 0.643 -0.410 13 13 15 0 0
0.5930 4.0197 2.2197 -0.320 0.913 -0.253 15 15 17 0 0
0.5021 3.6519 2.3533 -0.779 -0.118 0.616 35 34 37 0 0
0.5537 3.6073 2.3860 -0.956 -0.294 0.001 38 37 42 0 0
0.4078 3.7324 2.3478 -0.650 0.177 -0.739 35 35 37 0 0
0.7346 4.0592 2.2763 -0.100 0.820 0.563 46 45 50 0 0
0.7551 4.0631 2.2770 -0.175 0.781 0.599 46 45 50 0 0
1.3155 4.1234 2.3103 0.121 0.991 0.051 77 78 81 0 0
0.4354 3.7031 2.3736 -0.997 -0.002 -0.075 28 28 31 0 0
0.7295 4.0503 2.2928 0.016 0.973 0.230 35 35 37 0 0
0.9070 4.0756 2.3016 -0.545 0.752 0.372 36 37 41 0 0
0.9087 4.0898 2.2973 -0.830 0.045 0.556 36 37 41 0 0
0.9085 4.1050 2.2925 -0.787 0.327 0.524 39 40 44 0 0
0.9137 4.1174 2.2891 -0.725 0.549 0.416 41 42 46 0 0
0.4747 3.7902 2.3641 -0.774 -0.610 -0.170 19 19 21 0 0
0.7417 4.0469 2.3091 0.065 0.976 -0.207 32 31 35 0 0
0.7477 4.0587 2.3060 -0.049 0.882 -0.468 32 31 35 0 0
0.9108 4.0769 2.3159 -0.455 0.887 -0.081 38 39 43 0 0
0.9187 4.1181 2.3038 -0.721 0.538 0.437 47 48 51 0 0
0.4264 3.7152 2.3970 -0.025 0.979 0.202 30 29 32 0 0
0.4179 3.7666 2.3800 -0.815 -0.526 -0.244 18 16 19 0 0
0.9123 4.0794 2.3296 -0.554 0.797 -0.239 42 41 46 0 0
0.9267 4.1173 2.3192 -0.622 0.630 0.465 41 42 44 0 0
0.4654 3.7869 2.3922 0.292 0.593 -0.751 23 22 27 0 0
0.5058 3.7933 2.3942 -0.759 -0.589 0.276 13 13 15 0 0
1.1088 4.1178 2.3513 0.049 0.914 0.403 56 55 60 0 0
1.1460 4.1142 2.3561 0.107 0.879 0.464 59 58 63 0 0
0.8660 4.0500 2.3631 -0.088 0.986 0.139 44 43 48 0 0
0.8220 4.0769 2.3645 -0.096 0.728 -0.678 48 47 53 0 0
0.9235 4.0835 2.3727 -0.504 0.862 0.053 50 49 54 0 0
0.9745 4.0719 2.3816 -0.546 0.832 -0.098 50 49 54 0 0
0.9340 4.0813 2.3889 -0.589 0.676 0.443 48 47 52 0 0
0.9799 4.0758 2.4099 -0.362 0.875 0.321 53 52 57 0 0
0.7402 3.9034 2.4543 -0.713 0.562 0.419 41 42 45 0 0
0.9415 4.0688 2.4226 -0.216 0.829 0.516 21 21 24 0 0
0.9437 2.6519 2.8927 -0.746 -0.583 0.321 90 90 92 0 0
0.9613 4.0617 2.4415 -0.229 0.793 0.565 11 11 13 0 0
0.9934 4.0754 2.4406 -0.040 0.883 0.468 20 20 22 0 0
1.4376 4.0508 2.4962 0.281 0.945 -0.167 73 71 74 0 0
1.0398 4.0579 2.4805 -0.141 0.872 0.469 30 30 30 0 0
1.1791 4.0630 2.4942 0.196 0.968 0.155 47 46 52 0 0
1.4155 4.0530 2.5235 0.171 0.761 -0.626 77 77 78 0 0
1.2564 4.0927 2.5230 0.212 0.762 -0.612 71 71 73 0 0
1.0753 4.0496 2.5313 -0.258 0.962 0.087 35 34 39 0 0
1.0513 4.0192 2.5532 -0.703 0.711 -0.000 35 34 39 0 0
1.0768 4.0367 2.5504 -0.796 0.604 0.035 40 39 44 0 0
1.0832 4.0489 2.5472 -0.317 0.928 -0.194 42 41 45 0 0
1.4331 4.0584 2.5848 0.221 0.942 0.252 84 84 85 0 0
1.0519 4.0223 2.5670 -0.649 0.746 -0.152 43 42 47 0 0
1.0784 4.0393 2.5645 -0.706 0.638 -0.308 47 46 51 0 0
1.0929 4.0472 2.5636 -0.212 0.927 -0.308 43 43 45 0 0
1.0668 4.0333 2.5799 -0.893 0.441 -0.095 49 50 54 0 0
1.0777 4.0430 2.5780 -0.719 0.659 -0.221 48 48 53 0 0
1.1130 4.0557 2.5780 -0.067 0.980 -0.189 56 56 58 0 0
1.1560 4.0799 2.5752 0.001 1.000 0.008 69 68 69 0 0
1.0981 2.5106 3.1502 -0.781 -0.599 -0.179 72 72 74 0 0
1.0891 2.5359 3.1406 -0.697 -0.661 -0.280 69 69 71 0 0
1.3837 4.0795 2.6936 -0.172 -0.226 -0.959 59 59 61 0 0
1.0642 4.0619 2.6882 -0.769 0.630 0.107 52 52 54 0 0
1.0728 4.0728 2.6856 -0.769 0.630 0.107 48 48 50 0 0
0.8628 3.9413 2.7170 -0.066 0.648 -0.759 41 39 40 0 0
1.0100 3.9854 2.7216 -0.143 0.650 0.747 58 58 61 0 0
1.0262 3.9924 2.7214 -0.083 0.742 0.665 58 58 60 0 0
1.0698 4.0777 2.6983 -0.476 0.818 -0.324 50 49 54 0 0
1.0451 3.9701 2.7463 -0.941 -0.150 0.305 61 61 63 0 0
1.0889 4.0713 2.7179 -0.814 0.563 0.144 54 53 58 0 0
1.0964 4.0828 2.7149 -0.814 0.563 0.144 57 56 61 0 0
1.0680 4.1009 2.7198 -0.058 0.830 -0.554 54 53 58 0 0
1.1424 4.0936 2.7323 0.296 0.836 -0.463 46 45 50 0 0
1.0113 4.1182 2.7209 -0.006 0.670 -0.743 55 55 59 0 0
1.0894 4.1393 2.7244 0.201 0.309 -0.930 55 54 59 0 0
1.1780 2.8289 3.2321 -0.171 0.687 0.706 63 63 65 0 0
1.0536 2.4677 3.4044 -0.952 -0.015 -0.304 100 100 100 0 0
1.0798 4.2017 2.8195 0.435 0.832 -0.344 48 48 50 0 0
1.0363 2.4692 3.4341 0.279 0.776 -0.566 148 148 147 0 0
1.0500 2.4780 3.4331 -0.942 0.069 -0.327 107 107 106 0 0
0.6307 4.0095 2.8625 -0.508 -0.237 -0.828 51 51 51 0 0
1.0783 4.2278 2.8543 0.342 0.909 -0.239 44 42 47 0 0
1.0075 4.2396 2.8686 -0.294 0.935 -0.201 45 43 46 0 0
1.0725 4.2408 2.8930 0.187 0.880 -0.437 25 22 28 0 0
1.1130 4.2360 2.9011 0.207 0.869 -0.449 29 28 33 0 0
1.1768 2.3732 3.6060 -0.133 0.986 0.095 183 182 180 0 0
1.0805 4.2587 2.9174 -0.075 0.935 -0.346 41 40 45 0 0
1.1831 2.3724 3.6241 -0.036 0.996 -0.082 172 172 170 0 0
1.0908 4.2267 2.9453 -0.995 -0.090 0.035 43 43 47 0 0
1.0811 4.2618 2.9312 -0.007 0.938 -0.346 46 45 50 0 0
1.1437 4.2765 2.9360 0.264 0.661 -0.702 58 58 63 0 0
1.0910 4.2300 2.9589 -0.995 -0.090 0.035 49 48 53 0 0
1.0748 4.2683 2.9425 -0.527 0.772 -0.355 47 45 50 0 0
1.1362 4.2684 2.9525 0.020 0.937 -0.350 58 58 61 0 0
1.0912 4.2333 2.9726 -0.995 -0.090 0.035 53 52 57 0 0
1.0725 4.2727 2.9553 -0.751 0.546 -0.370 51 49 54 0 0
1.0149 4.2443 2.9706 -0.324 0.879 -0.351 51 50 55 0 0
1.0399 4.2469 2.9739 -0.876 0.297 0.379 52 51 56 0 0
1.0426 4.2607 2.9694 -0.876 0.297 0.379 53 52 57 0 0
1.0679 4.2633 2.9726 -0.267 0.945 0.186 48 47 52 0 0
1.0895 4.2678 2.9746 -0.218 0.972 0.089 53 51 56 0 0
1.0749 4.2632 2.9886 -0.207 0.978 0.041 46 45 50 0 0
1.0886 4.2716 2.9879 -0.069 0.986 -0.151 55 54 59 0 0
1.0590 4.2593 3.0021 -0.207 0.978 0.041 57 57 60 0 0
1.0796 4.2643 3.0037 -0.212 0.977 0.033 51 51 53 0 0
1.0909 4.2738 3.0022 -0.095 0.968 -0.231 59 58 62 0 0
1.1888 2.3759 3.7414 -0.772 -0.619 0.141 180 180 180 0 0
0.9235 4.2133 3.0250 0.032 0.381 -0.924 50 49 54 0 0
1.0653 4.2478 3.0368 -0.677 0.736 -0.001 60 60 62 0 0
1.0760 4.2577 3.0351 -0.677 0.736 -0.001 58 58 60 0 0
1.0727 4.2476 3.0530 -0.699 0.683 -0.211 60 60 62 0 0
1.0830 4.2576 3.0511 -0.699 0.683 -0.211 57 57 59 0 0
1.1043 4.2774 3.0476 -0.736 0.602 -0.309 61 61 65 0 0
1.1358 4.2772 3.0532 -0.146 0.988 -0.050 63 63 67 0 0
0.9699 4.2267 3.0574 -0.407 0.906 -0.115 56 56 58 0 0
1.0447 4.2497 3.0621 -0.496 0.853 0.165 59 59 61 0 0
1.0835 4.2608 3.0649 -0.471 0.856 -0.213 54 54 56 0 0
1.1400 4.2786 3.0683 -0.146 0.988 -0.050 61 61 63 0 0
1.1487 4.2895 3.0658 -0.354 0.894 0.275 64 64 66 0 0
0.9608 4.2195 3.0731 -0.457 0.875 0.163 55 55 57 0 0
0.9821 4.2238 3.0753 -0.618 0.765 -0.184 56 56 58 0 0
1.0813 4.2652 3.0776 -0.467 0.883 0.036 51 51 53 0 0
1.1096 4.2816 3.0766 -0.350 0.928 0.125 56 56 58 0 0
1.2245 4.2868 3.0951 0.108 0.976 -0.186 50 51 55 0 0
0.9259 4.2254 3.0794 0.040 0.827 -0.560 54 54 56 0 0
1.0666 4.2607 3.0915 -0.394 0.875 -0.282 52 52 54 0 0
1.0882 4.2652 3.0937 -0.659 0.692 -0.296 48 48 50 0 0
1.1048 4.2873 3.0885 -0.824 0.528 -0.205 49 49 51 0 0
0.6164 4.1064 3.0822 -0.647 0.679 0.348 47 48 52 0 0
0.7673 4.2203 3.0673 -0.120 0.694 -0.710 52 52 55 0 0
1.0643 4.2652 3.1042 -0.433 0.613 -0.661 40 40 42 0 0
1.0781 4.2735 3.1036 -0.640 0.440 -0.629 43 43 45 0 0
1.0872 4.2842 3.1013 -0.836 -0.071 -0.545 54 54 56 0 0
1.0669 4.2824 3.1131 -0.056 0.929 -0.365 36 36 38 0 0
1.0884 4.2870 3.1153 -0.598 0.725 -0.340 45 45 47 0 0
1.1061 4.2935 3.1161 -0.652 0.694 -0.305 40 38 43 0 0
1.1194 4.3021 3.1153 -0.564 0.789 -0.244 36 35 40 0 0
1.1210 4.2896 3.1351 -0.568 0.791 0.229 33 32 36 0 0
1.0540 4.2804 3.1410 -0.696 0.395 -0.599 35 35 37 0 0
1.1303 4.2885 3.1521 -0.265 0.951 0.156 52 52 56 0 0
1.0542 4.2837 3.1546 -0.925 -0.078 0.373 55 54 59 0 0
1.4362 4.3152 3.2140 0.302 0.932 -0.199 69 69 71 0 0
1.0596 4.2844 3.1702 -0.903 -0.158 0.399 46 45 50 0 0
1.0626 4.3014 3.1792 -0.940 -0.011 -0.342 45 44 49 0 0
1.0573 4.3190 3.1715 -0.020 0.886 -0.464 36 35 40 0 0
1.1364 4.3260 3.1839 -0.400 -0.128 -0.908 54 53 58 0 0
1.0647 4.2886 3.1992 -0.946 -0.264 0.188 45 44 49 0 0
1.0519 4.3100 3.1887 -0.992 -0.091 0.082 43 42 47 0 0
1.0641 4.2923 3.2125 -0.935 -0.352 0.044 47 46 51 0 0
1.1216 4.3399 3.2055 -0.554 0.347 -0.757 53 53 55 0 0
0.9170 4.2633 3.2098 0.156 0.881 -0.446 34 34 36 0 0
1.0709 4.2772 3.2343 -0.614 0.788 0.056 46 45 50 0 0
1.0845 4.3008 3.2280 -0.972 0.150 0.181 49 48 53 0 0
1.0791 4.3185 3.2203 -0.977 0.134 0.163 40 39 44 0 0
1.0672 4.3393 3.2101 -0.262 0.914 -0.309 51 51 54 0 0
1.1275 4.3404 3.2213 -0.444 0.669 -0.596 55 55 57 0 0
0.9847 4.2779 3.2321 -0.147 0.988 0.053 43 42 47 0 0
1.0860 4.3035 3.2421 -0.983 0.135 0.121 49 48 53 0 0
1.0819 4.3206 3.2348 -0.977 0.134 0.163 41 40 45 0 0
1.1064 4.3388 3.2327 -0.255 0.934 -0.252 55 55 57 0 0
1.1286 4.3432 3.2354 -0.533 0.798 -0.280 55 55 57 0 0
1.3147 4.3311 3.2763 0.242 0.950 -0.199 61 61 63 0 0
1.0881 4.3059 3.2565 -0.983 0.135 0.121 49 48 53 0 0
1.0824 4.3387 3.2429 -0.962 0.265 0.070 51 51 53 0 0
1.0858 4.3103 3.2692 -0.991 0.102 0.087 48 47 52 0 0
1.0866 4.3401 3.2580 -0.959 0.260 0.108 51 50 53 0 0
1.0701 4.3063 3.2825 -0.734 0.677 -0.058 49 48 53 0 0
1.0826 4.3153 3.2815 -0.882 0.465 0.073 48 47 52 0 0
1.0889 4.3424 3.2724 -0.959 0.260 0.108 52 52 54 0 0
0.6608 4.1730 3.2661 0.005 -0.045 -0.999 39 39 41 0 0
0.6716 4.1822 3.2647 -0.133 -0.242 -0.961 39 39 42 0 0
1.0715 4.3090 3.2966 -0.734 0.677 -0.058 50 49 52 0 0
1.0855 4.3172 3.2962 -0.858 0.507 0.078 48 47 51 0 0
1.0922 4.3291 3.2930 -0.858 0.507 0.078 42 41 45 0 0
1.0928 4.3439 3.2874 -0.846 0.493 0.205 51 51 53 0 0
1.1263 4.3429 3.2946 -0.383 0.893 0.236 54 54 56 0 0
1.0696 4.3133 3.3094 -0.603 0.786 0.137 50 50 52 0 0
1.0857 4.3205 3.3098 -0.765 0.640 0.074 49 49 51 0 0
1.0910 4.3331 3.3061 -0.846 0.493 0.205 40 40 42 0 0
1.0972 4.3451 3.3027 -0.846 0.493 0.205 50 50 52 0 0
1.0863 4.3236 3.3236 -0.603 0.786 0.137 48 48 50 0 0
1.0954 4.3343 3.3214 -0.846 0.493 0.205 42 42 44 0 0
1.1016 4.3464 3.3180 -0.846 0.493 0.205 52 52 54 0 0
1.1453 4.3406 3.3292 -0.327 0.908 0.261 54 54 56 0 0
1.1672 4.3452 3.3318 -0.502 0.828 0.250 54 54 56 0 0
1.0911 4.3247 3.3391 -0.603 0.786 0.137 48 48 50 0 0
1.1061 4.3476 3.3333 -0.846 0.493 0.205 53 53 55 0 0
1.1750 4.3449 3.3485 -0.502 0.828 0.250 54 54 56 0 0
1.0841 4.3164 3.3558 -0.603 0.786 0.137 50 50 52 0 0
1.0960 4.3257 3.3546 -0.603 0.786 0.137 49 49 51 0 0
1.1043 4.3368 3.3520 -0.846 0.493 0.205 43 43 45 0 0
1.1105 4.3489 3.3486 -0.846 0.493 0.205 52 52 54 0 0
1.1087 4.3381 3.3674 -0.846 0.493 0.205 44 44 46 0 0
1.1150 4.3501 3.3640 -0.846 0.493 0.205 50 50 52 0 0
1.1039 4.3287 3.3849 -0.627 0.774 0.091 49 49 51 0 0
1.1148 4.3385 3.3834 -0.836 0.519 0.179 43 43 45 0 0
1.1257 4.3484 3.3818 -0.647 0.755 0.104 51 51 53 0 0
1.1189 4.3399 3.3986 -0.836 0.519 0.179 43 43 46 0 0
1.1298 4.3498 3.3971 -0.647 0.755 0.104 52 52 54 0 0
1.1235 4.3412 3.4140 -0.673 0.725 0.146 42 41 46 0 0
1.1322 4.3521 3.4116 -0.700 0.693 0.175 52 52 54 0 0
1.1371 4.3531 3.4272 -0.700 0.693 0.175 51 51 53 0 0
1.1119 4.3384 3.4426 -0.405 0.913 -0.051 48 47 52 0 0
1.1322 4.3438 3.4448 -0.700 0.693 0.175 44 43 48 0 0
1.1421 4.3542 3.4428 -0.700 0.693 0.175 52 52 54 0 0
1.2844 4.3630 3.4702 -0.025 0.969 0.246 56 56 58 0 0
1.0250 4.3535 3.4326 -0.973 0.204 -0.105 50 49 53 0 0
1.1470 4.3552 3.4585 -0.700 0.693 0.175 51 51 53 0 0
1.0123 4.3630 3.4408 -0.646 0.757 0.098 49 48 52 0 0
1.1730 4.3614 3.4768 -0.396 0.916 0.068 51 51 53 0 0
1.0071 4.3689 3.4521 -0.362 0.852 0.379 48 47 51 0 0
1.1988 4.3678 3.4950 0.170 0.972 -0.165 52 52 54 0 0
0.8867 4.3712 3.4392 0.310 0.907 -0.284 44 44 48 0 0
1.0200 4.3660 3.4709 -0.362 0.852 0.379 47 47 50 0 0
1.2012 4.3701 3.5096 0.183 0.962 -0.202 52 52 54 0 0
0.9020 4.3671 3.4589 0.242 0.954 -0.178 45 45 47 0 0
1.0046 4.3469 3.4899 0.242 0.954 -0.178 61 61 63 0 0
1.0331 4.3631 3.4899 -0.434 0.735 0.520 47 47 49 0 0
1.2027 4.3728 3.5240 0.183 0.962 -0.202 52 52 54 0 0
1.0511 4.3578 3.5109 -0.456 0.611 0.647 48 48 50 0 0
1.2398 4.3740 3.5470 0.051 0.974 -0.222 55 55 57 0 0
1.0363 4.3716 3.5317 0.301 0.743 -0.598 48 48 51 0 0
1.0791 4.3661 3.5437 0.272 0.755 -0.597 49 48 52 0 0
1.3566 4.3795 3.6324 0.114 0.971 -0.209 149 148 145 0 0
1.2814 4.3871 3.6272 0.097 0.958 -0.272 155 153 152 0 0
1.3169 4.3860 3.6359 0.097 0.958 -0.272 164 164 164 0 0
1.0681 4.3999 3.5871 0.140 0.973 -0.184 108 105 101 0 0
1.1075 4.3962 3.5979 0.140 0.973 -0.184 123 120 117 0 0
1.2509 4.3895 3.6343 0.105 0.955 -0.278 169 167 169 0 0
1.0674 4.4036 3.6004 0.154 0.952 -0.265 149 149 146 0 0
1.1053 4.4006 3.6105 0.148 0.916 -0.373 159 159 156 0 0
1.1380 4.4003 3.6184 0.134 0.759 -0.637 166 165 163 0 0
1.1690 4.4008 3.6255 0.134 0.759 -0.637 173 172 170 0 0
1.2013 4.4008 3.6331 0.132 0.721 -0.681 176 174 175 0 0
1.2363 4.3997 3.6418 0.136 0.835 -0.533 180 178 179 0 0
1.0636 4.4087 3.6122 0.174 0.768 -0.617 172 172 171 0 0
1.1425 4.4016 3.6339 0.137 0.525 -0.840 181 180 178 0 0
1.0259 4.4299 3.6095 0.001 0.108 -0.994 184 184 184 0 0
