ply
format ascii 1.0
element vertex 874
property float x
property float y
property float z
property float nx
property float ny
property float nz
property uchar diffuse_red
property uchar diffuse_green
property uchar diffuse_blue
property uchar class
property uchar detection
end_header
1.0400 2.9408 -0.2080 0.384 -0.604 -0.698 123 123 123 0 0
1.0747 2.9528 -0.2002 0.720 -0.624 -0.305 118 117 115 0 0
1.0532 2.9285 -0.1939 0.396 -0.376 -0.838 85 85 85 0 0
0.8588 2.5620 -0.0915 -0.334 -0.287 -0.898 51 49 51 0 0
0.8380 2.5362 -0.0853 -0.865 -0.114 -0.489 54 52 54 0 0
0.8296 2.5539 -0.0723 -0.643 -0.199 -0.739 64 62 65 0 0
1.2029 3.0668 -0.1743 0.550 -0.427 -0.718 87 85 87 0 0
0.8441 2.3717 -0.0120 -0.135 -0.481 -0.866 69 67 71 0 0
0.9526 2.4041 -0.0180 0.383 -0.720 -0.578 67 67 68 0 0
0.8328 2.3228 0.0088 -0.116 -0.851 -0.513 74 73 72 0 0
0.7306 2.5928 -0.0067 -0.597 -0.463 -0.656 51 51 53 0 0
0.9520 2.3968 -0.0034 -0.162 -0.826 -0.540 44 44 45 0 0
0.9510 2.3880 0.0114 -0.050 -0.761 -0.647 40 40 41 0 0
0.8310 2.3052 0.0380 -0.221 -0.902 -0.371 28 26 30 0 0
0.9494 2.3773 0.0265 0.130 -0.987 -0.096 39 39 41 0 0
0.8308 2.2994 0.0522 -0.221 -0.902 -0.371 22 22 24 0 0
0.8756 2.3057 0.0585 0.439 -0.807 -0.396 13 14 16 0 0
0.8904 2.3040 0.0700 0.396 -0.917 0.035 14 14 16 0 0
0.8770 2.3060 0.0718 -0.144 -0.934 0.327 15 15 17 0 0
0.8502 2.3105 0.0752 0.000 -0.871 0.492 16 16 18 0 0
0.9878 2.3990 0.0597 -0.363 -0.824 0.434 29 28 31 0 0
0.8783 2.3062 0.0851 -0.043 -0.953 -0.301 15 15 17 0 0
0.8603 2.2906 0.0893 -0.020 -0.980 -0.196 16 16 18 0 0
0.7523 2.4728 0.0859 -0.309 -0.938 0.158 22 22 25 0 0
1.2867 2.9311 -0.0239 0.417 -0.503 -0.757 53 53 56 0 0
1.2772 2.8933 -0.0040 0.417 -0.503 -0.757 75 75 75 0 0
1.0047 2.3988 0.0848 -0.097 -0.985 0.140 25 24 28 0 0
0.8821 2.3101 0.1112 -0.126 -0.935 0.332 18 18 20 0 0
1.3228 2.9392 -0.0004 0.579 -0.580 -0.573 50 50 52 0 0
1.2961 2.9007 0.0072 0.484 -0.541 -0.688 75 75 77 0 0
0.8992 2.3169 0.1217 0.527 -0.791 0.312 41 41 43 0 0
0.9008 2.3179 0.1349 0.089 -0.922 -0.377 54 53 57 0 0
0.7588 2.3635 0.1505 -0.721 -0.597 -0.350 56 54 57 0 0
0.7491 2.3807 0.1502 -0.597 -0.667 -0.445 46 44 49 0 0
0.7382 2.3931 0.1506 -0.670 -0.599 -0.439 47 45 49 0 0
0.7533 2.3357 0.1676 -0.698 -0.641 0.319 74 72 75 0 0
0.7457 2.3615 0.1661 -0.665 -0.741 -0.094 68 66 71 0 0
0.7299 2.4109 0.1636 -0.774 -0.634 -0.006 45 43 46 0 0
1.0392 2.4522 0.1298 -0.170 -0.638 0.751 55 53 55 0 0
0.7652 2.3225 0.1807 -0.935 -0.354 -0.000 60 58 61 0 0
0.7049 2.5364 0.1689 -0.365 -0.895 -0.256 51 49 50 0 0
1.0593 2.4164 0.1442 -0.235 -0.732 0.639 53 51 54 0 0
1.1828 2.5244 0.1731 -0.057 -0.418 0.907 40 40 42 0 0
1.1578 2.5851 0.1854 0.764 -0.592 0.256 29 29 31 0 0
1.1172 2.5455 0.1943 0.700 -0.558 0.445 32 32 34 0 0
0.6924 2.7506 0.2493 0.842 -0.490 -0.227 48 48 51 0 0
0.6621 2.7437 0.2540 -0.521 -0.136 -0.842 46 46 48 0 0
0.6559 2.7100 0.2717 -0.573 -0.371 -0.731 52 52 54 0 0
0.6470 2.7346 0.2709 -0.800 -0.331 -0.501 43 43 45 0 0
0.6596 2.7206 0.2844 0.646 -0.761 0.056 55 55 57 0 0
0.6415 2.7037 0.2883 0.257 -0.920 0.296 46 46 48 0 0
0.6455 2.7864 0.2810 -0.584 -0.020 0.811 40 41 43 0 0
1.1835 2.5528 0.2410 0.704 -0.479 -0.524 34 34 36 0 0
1.2075 2.5796 0.2498 0.680 -0.469 -0.564 37 37 39 0 0
1.1763 2.5229 0.2585 0.692 -0.484 -0.535 36 36 38 0 0
0.7699 2.2284 0.3362 -0.908 -0.292 0.301 88 84 83 0 0
1.1692 2.4938 0.2757 0.686 -0.545 -0.481 36 36 38 0 0
1.1472 2.5187 0.2768 -0.824 -0.526 -0.211 41 41 42 0 0
1.2332 2.3626 0.2910 -0.126 -0.675 -0.727 38 38 40 0 0
1.2185 2.3617 0.2931 0.202 -0.736 -0.646 42 42 44 0 0
1.2306 2.3495 0.3062 -0.415 -0.624 -0.663 45 45 47 0 0
1.0000 2.3957 0.3335 0.823 -0.564 -0.063 40 40 40 0 0
0.9760 2.3601 0.3393 0.823 -0.564 -0.063 45 45 45 0 0
0.7138 2.0976 0.3935 -0.039 -0.856 -0.515 63 61 62 0 0
0.9507 2.3139 0.3597 0.851 -0.510 -0.127 48 48 48 0 0
0.8054 2.0800 0.3958 -0.381 -0.915 -0.135 59 56 58 0 0
1.0421 2.4346 0.3528 0.283 -0.905 0.318 43 43 43 0 0
1.0067 2.4100 0.3592 0.813 -0.581 -0.031 42 42 42 0 0
0.8060 2.0773 0.4091 -0.083 -0.852 -0.518 56 54 57 0 0
0.6944 2.1736 0.4170 -0.786 -0.383 -0.486 49 46 51 0 0
1.0159 2.4384 0.3698 -0.207 -0.574 -0.792 42 42 42 0 0
0.7218 2.1147 0.4308 -0.451 -0.880 -0.151 52 50 53 0 0
0.7121 2.1301 0.4310 -0.389 -0.827 -0.406 50 48 51 0 0
1.1288 2.2301 0.3830 -0.988 0.122 0.092 34 34 36 0 0
1.0163 2.4348 0.3839 -0.368 -0.576 -0.730 41 41 41 0 0
0.9462 2.2823 0.4033 0.849 -0.490 -0.198 43 43 43 0 0
0.7312 2.0929 0.4442 -0.702 -0.712 -0.022 49 47 50 0 0
0.7226 2.1125 0.4440 0.232 -0.950 0.209 49 47 50 0 0
0.6524 2.6989 0.4138 -0.923 -0.354 0.152 38 38 40 0 0
1.0137 2.4205 0.3991 -0.094 -0.642 -0.761 40 40 40 0 0
0.9574 2.3185 0.4131 0.603 -0.708 -0.368 42 42 42 0 0
0.7242 2.1140 0.4569 -0.129 -0.965 -0.228 46 46 48 0 0
0.6958 2.1086 0.4610 0.451 -0.891 -0.058 40 40 42 0 0
0.6546 2.7027 0.4273 -0.906 -0.339 0.253 37 37 39 0 0
0.7250 2.1118 0.4702 0.148 -0.988 -0.042 45 45 47 0 0
1.0550 2.4045 0.4224 0.185 -0.519 -0.834 44 44 44 0 0
0.7227 2.0975 0.4846 -0.442 -0.515 -0.735 43 43 45 0 0
1.2021 2.2661 0.4258 0.234 -0.963 -0.135 22 23 25 0 0
0.9984 2.3499 0.4469 -0.551 -0.592 -0.588 38 38 38 0 0
0.7231 2.0942 0.4980 -0.723 -0.687 -0.077 41 41 43 0 0
0.7129 2.1073 0.4985 0.585 -0.786 -0.201 39 39 41 0 0
1.2044 2.2690 0.4391 -0.446 -0.831 -0.332 24 24 26 0 0
0.9978 2.3431 0.4611 0.263 -0.945 -0.194 37 37 37 0 0
0.9533 2.2837 0.4704 0.765 -0.554 -0.328 37 37 37 0 0
0.7262 2.1011 0.5104 -0.201 -0.739 0.643 41 41 43 0 0
1.3376 2.4137 0.4274 -0.983 -0.119 -0.140 155 153 154 0 0
1.2042 2.2635 0.4532 -0.446 -0.831 -0.332 28 28 30 0 0
1.0250 2.3335 0.4720 0.764 -0.593 0.256 42 42 42 0 0
0.9951 2.3281 0.4761 -0.199 -0.739 -0.644 38 38 38 0 0
0.9532 2.2783 0.4843 0.792 -0.515 -0.328 36 36 36 0 0
1.2054 2.2630 0.4668 -0.037 -0.822 -0.568 32 32 34 0 0
0.9882 2.2982 0.4924 -0.405 -0.725 -0.558 39 39 39 0 0
0.9835 2.3325 0.4910 0.606 -0.739 -0.294 37 37 37 0 0
0.4221 2.5674 0.5491 0.214 -0.889 -0.405 113 112 111 0 0
1.3323 2.3875 0.4576 -0.991 -0.018 -0.129 163 162 161 0 0
1.2004 2.2418 0.4823 0.140 -0.985 -0.097 35 34 38 0 0
0.4213 2.5567 0.5636 -0.008 -0.903 -0.429 135 136 134 0 0
1.2794 2.3537 0.4800 0.790 -0.572 -0.222 54 53 55 0 0
0.9468 2.2400 0.5280 0.742 -0.445 -0.501 40 40 40 0 0
0.4217 2.5525 0.5775 -0.081 -0.935 -0.345 147 147 145 0 0
1.3119 2.4065 0.4871 0.522 -0.829 -0.201 82 80 82 0 0
1.2875 2.3753 0.4918 0.655 -0.733 -0.183 61 59 61 0 0
1.0891 2.3392 0.5186 0.809 -0.563 -0.168 42 42 42 0 0
0.7235 2.0651 0.5787 -0.432 -0.479 -0.764 43 43 45 0 0
0.7179 2.0968 0.5778 -0.596 -0.274 -0.755 42 42 44 0 0
1.3112 2.3997 0.5016 -0.909 -0.349 -0.228 102 100 101 0 0
1.2921 2.3852 0.5047 0.604 -0.750 0.270 73 72 74 0 0
1.2731 2.3711 0.5078 0.604 -0.750 0.270 57 57 58 0 0
0.9977 2.2623 0.5477 0.163 -0.683 -0.712 45 44 45 0 0
0.9670 2.2530 0.5520 0.585 -0.523 -0.620 41 41 41 0 0
0.4381 2.5524 0.6030 0.228 -0.933 0.279 125 124 123 0 0
1.3005 2.4078 0.5165 -0.931 -0.286 -0.229 90 90 89 0 0
1.2777 2.3812 0.5207 0.582 -0.709 0.398 68 68 70 0 0
1.0868 2.3215 0.5473 0.639 -0.762 0.105 41 41 41 0 0
0.7356 2.0492 0.6043 -0.643 -0.612 -0.461 52 50 54 0 0
0.7093 2.0519 0.6075 0.057 -0.883 -0.466 44 43 47 0 0
0.4400 2.5557 0.6163 0.470 -0.841 0.267 152 152 150 0 0
0.9626 2.2270 0.5810 0.730 -0.526 -0.436 44 42 43 0 0
0.9401 2.1959 0.5852 0.764 -0.504 -0.403 47 45 46 0 0
0.7910 1.9465 0.6155 -0.180 -0.743 -0.644 47 47 49 0 0
0.7308 2.0251 0.6192 -0.038 -0.928 0.371 56 54 56 0 0
0.7064 2.0351 0.6218 0.399 -0.907 -0.134 47 47 48 0 0
0.5495 2.4120 0.6234 -0.616 -0.770 -0.167 31 31 32 0 0
0.4289 2.5634 0.6311 0.146 -0.821 0.553 170 170 168 0 0
0.8518 2.0180 0.6178 0.585 -0.595 -0.551 53 53 53 0 0
0.8286 1.9817 0.6223 0.386 -0.913 0.133 52 52 53 0 0
0.7046 2.0230 0.6357 -0.515 -0.708 -0.484 51 51 51 0 0
1.1554 2.2974 0.5813 0.090 -0.885 -0.457 37 37 39 0 0
1.1484 2.3222 0.5811 -0.496 -0.447 -0.744 31 31 33 0 0
0.8316 1.9883 0.6348 0.293 -0.954 -0.067 56 54 56 0 0
0.7153 2.0072 0.6482 -0.885 -0.457 -0.085 59 58 58 0 0
0.4893 2.5732 0.6509 -0.421 -0.900 -0.115 83 83 83 0 0
0.4759 2.5763 0.6524 -0.353 -0.934 0.056 131 131 131 0 0
1.2906 2.4044 0.5740 -0.865 -0.450 -0.223 167 167 165 0 0
1.1434 2.3006 0.5964 -0.511 -0.423 -0.748 32 32 34 0 0
0.8323 1.9859 0.6479 0.274 -0.955 -0.113 60 58 60 0 0
0.7241 1.9840 0.6612 -0.374 -0.789 0.487 67 65 66 0 0
0.6099 2.4171 0.6566 0.811 -0.570 -0.130 38 38 40 0 0
0.5334 2.3840 0.6674 -0.576 -0.752 -0.321 33 32 37 0 0
0.4731 2.5563 0.6674 -0.085 -0.733 -0.674 167 167 167 0 0
1.1370 2.2742 0.6121 -0.373 -0.504 -0.779 33 33 35 0 0
0.5471 2.3776 0.6796 -0.408 -0.858 -0.313 32 32 35 0 0
0.5358 2.3889 0.6805 -0.517 -0.752 -0.409 34 33 38 0 0
0.7991 1.9526 0.6795 0.358 -0.921 0.153 61 59 62 0 0
0.5474 2.3735 0.6933 -0.609 -0.726 -0.318 33 32 37 0 0
0.7986 1.9459 0.6929 0.150 -0.987 -0.062 62 62 64 0 0
0.5607 2.3655 0.7056 -0.625 -0.623 -0.471 32 31 36 0 0
0.7596 2.0500 0.7068 -0.980 -0.193 -0.043 83 82 80 0 0
0.6974 2.3527 0.7032 -0.800 -0.095 0.593 45 45 47 0 0
0.7971 1.8757 0.7346 -0.108 -0.622 -0.776 77 74 77 0 0
0.7517 1.9571 0.7373 -0.201 -0.575 -0.793 95 93 93 0 0
0.5919 2.3590 0.7564 -0.509 -0.561 0.653 33 33 35 0 0
0.7556 1.9624 0.7628 -0.985 -0.145 0.096 66 65 71 0 0
0.9818 2.1379 0.7442 0.870 -0.478 -0.123 33 32 35 0 0
0.9541 2.0836 0.7624 0.803 -0.523 -0.285 34 35 37 0 0
0.9613 2.1045 0.7744 0.786 -0.614 -0.072 36 37 39 0 0
0.7496 1.8732 0.8050 -0.887 -0.079 -0.455 43 44 49 0 0
0.7465 1.9124 0.8044 -0.887 -0.079 -0.455 43 44 49 0 0
1.1003 2.0300 0.8405 0.880 -0.398 -0.259 100 94 94 0 0
0.7072 1.7320 0.8898 -0.702 -0.400 0.589 37 36 40 0 0
1.0037 1.8344 0.8807 0.717 -0.368 -0.592 72 72 71 0 0
0.7551 1.6576 0.9109 0.220 -0.908 -0.356 83 79 81 0 0
0.7026 1.7047 0.9162 -0.343 -0.938 -0.047 52 51 52 0 0
0.9675 1.8914 0.8971 0.198 -0.508 -0.839 47 47 49 0 0
0.7632 1.6349 0.9229 -0.084 -0.955 -0.284 85 81 82 0 0
0.6917 1.7079 0.9300 -0.462 -0.473 -0.750 71 70 71 0 0
0.9622 1.7760 0.9120 -0.059 -0.524 -0.850 52 50 54 0 0
0.9492 1.7771 0.9134 -0.365 -0.525 -0.769 46 43 49 0 0
0.7619 1.6258 0.9358 -0.289 -0.757 -0.586 74 70 73 0 0
0.5693 1.8939 0.9543 -0.809 -0.051 -0.585 61 61 61 0 0
0.9591 1.7609 0.9254 -0.105 -0.631 -0.768 42 40 45 0 0
0.9454 1.7598 0.9269 -0.330 -0.531 -0.781 34 31 38 0 0
0.7044 1.6480 0.9545 -0.593 -0.348 -0.726 46 44 48 0 0
0.9340 1.7618 0.9411 -0.442 -0.509 -0.738 49 49 52 0 0
0.7031 1.5894 0.9677 -0.746 -0.438 -0.501 28 26 31 0 0
0.9316 1.7490 0.9543 -0.578 -0.552 -0.601 53 54 58 0 0
0.6874 1.7130 1.0066 -0.218 -0.332 0.918 11 11 13 0 0
1.0100 1.7301 0.9846 0.561 -0.810 -0.171 33 33 36 0 0
0.8950 1.7007 0.9970 0.501 -0.814 0.295 18 17 20 0 0
0.9372 1.7046 1.0053 -0.636 -0.730 -0.249 18 17 22 0 0
0.9167 1.7256 1.0075 -0.728 -0.675 -0.119 16 16 18 0 0
0.8638 1.6791 1.0131 0.275 -0.617 0.738 22 22 24 0 0
0.7610 1.5904 1.0241 -0.349 -0.933 0.083 9 9 12 0 0
0.7486 1.5922 1.0254 -0.043 -0.999 0.003 12 10 15 0 0
0.7367 1.5957 1.0267 0.216 -0.976 -0.027 21 19 22 0 0
0.6211 1.6972 1.0391 -0.659 -0.698 0.280 19 18 23 0 0
0.6175 1.7346 1.0395 -0.532 -0.782 0.325 22 21 25 0 0
0.5428 1.8561 1.0475 -0.474 -0.880 0.034 44 44 45 0 0
1.0707 1.7884 1.0040 -0.360 -0.883 -0.301 117 116 116 0 0
0.9046 1.7251 1.0216 -0.332 -0.717 -0.613 15 15 17 0 0
0.7537 1.6065 1.0375 0.362 -0.924 -0.122 11 9 14 0 0
0.7404 1.6051 1.0389 0.632 -0.757 -0.165 22 20 23 0 0
0.6169 1.6753 1.0522 -0.534 -0.512 -0.673 17 17 19 0 0
0.6171 1.7281 1.0522 -0.567 -0.651 -0.505 18 18 21 0 0
0.6065 1.7377 1.0534 -0.780 -0.428 -0.456 21 21 23 0 0
0.7402 1.5996 1.0514 0.528 -0.836 -0.149 18 16 19 0 0
0.7246 1.5895 1.0531 0.528 -0.836 -0.149 18 16 19 0 0
0.9141 1.6125 1.0457 -0.301 -0.954 0.003 29 29 28 0 0
0.7394 1.5923 1.0640 0.282 -0.958 -0.060 18 17 19 0 0
0.7250 1.5865 1.0655 0.484 -0.864 -0.134 16 15 17 0 0
0.5375 1.8179 1.0865 -0.826 -0.255 -0.503 31 31 34 0 0
0.9154 1.6125 1.0583 -0.332 -0.937 0.112 38 38 38 0 0
0.9167 1.6126 1.0708 -0.306 -0.952 0.025 38 38 38 0 0
0.6266 1.6434 1.1014 -0.739 -0.674 -0.002 11 11 13 0 0
0.9981 1.7044 1.0760 0.275 -0.961 0.028 20 20 20 0 0
0.9325 1.6174 1.0819 0.181 -0.982 -0.048 23 23 25 0 0
0.9180 1.6125 1.0834 -0.306 -0.952 0.025 31 31 33 0 0
0.9157 1.6367 1.1221 -0.177 -0.948 -0.263 32 32 34 0 0
0.9017 1.6337 1.1235 0.093 -0.985 -0.142 23 23 25 0 0
0.6094 1.6580 1.1537 -0.083 -0.980 0.183 19 19 21 0 0
0.5969 1.6593 1.1550 -0.083 -0.980 0.183 36 36 38 0 0
0.5702 1.6548 1.1576 0.295 -0.955 0.027 22 22 24 0 0
0.9035 1.6356 1.1360 -0.279 -0.905 -0.322 23 23 25 0 0
0.8944 1.6495 1.1372 -0.771 -0.613 -0.174 15 15 17 0 0
0.6280 1.6759 1.1647 -0.499 -0.699 0.512 12 11 13 0 0
0.6147 1.6741 1.1660 0.117 -0.951 0.288 17 16 18 0 0
0.9289 1.6237 1.1587 -0.180 -0.930 -0.321 36 36 38 0 0
0.7714 1.5693 1.1861 -0.430 -0.903 0.002 13 13 15 0 0
0.7600 1.5747 1.1873 -0.430 -0.903 0.002 16 16 18 0 0
0.7479 1.5776 1.1886 -0.415 -0.903 -0.113 17 17 19 0 0
0.6994 1.6827 1.2083 0.148 -0.804 -0.576 9 9 11 0 0
0.6982 1.6734 1.2209 0.148 -0.804 -0.576 10 10 12 0 0
1.0012 1.7156 1.2049 0.112 -0.906 -0.409 31 31 34 0 0
0.6969 1.6637 1.2335 0.121 -0.837 -0.533 15 14 18 0 0
0.9821 1.6923 1.2191 0.352 -0.863 -0.363 36 36 37 0 0
0.9668 1.6854 1.2204 0.352 -0.863 -0.363 34 34 35 0 0
0.7239 1.6629 1.2435 0.057 -0.996 0.071 19 19 21 0 0
0.6965 1.6575 1.2461 -0.014 -0.932 -0.361 16 15 19 0 0
0.9746 1.6627 1.2318 0.632 -0.757 0.168 46 46 48 0 0
0.9712 1.6959 1.2331 -0.106 -0.765 -0.636 41 41 43 0 0
0.9583 1.6975 1.2344 0.028 -0.684 -0.729 37 37 39 0 0
0.9356 1.6652 1.2357 0.503 -0.800 -0.326 35 35 37 0 0
0.7374 1.6603 1.2548 -0.738 -0.675 -0.017 29 29 31 0 0
0.7235 1.6568 1.2561 -0.175 -0.946 -0.272 26 26 28 0 0
0.9409 1.6340 1.2471 0.651 -0.751 0.112 45 45 47 0 0
0.9377 1.6680 1.2484 0.130 -0.857 -0.498 41 41 43 0 0
0.9225 1.6611 1.2497 0.265 -0.848 -0.458 38 38 40 0 0
0.8974 1.6200 1.2509 0.334 -0.826 -0.455 36 36 38 0 0
0.9022 1.6824 1.2523 -0.059 -0.955 0.290 34 34 36 0 0
0.7383 1.6590 1.2674 -0.738 -0.675 -0.017 30 30 32 0 0
0.7218 1.6458 1.2686 0.084 -0.811 -0.579 31 31 33 0 0
0.7377 1.6518 1.2800 -0.299 -0.942 0.153 34 34 36 0 0
0.7728 1.6330 1.2887 -0.626 -0.700 0.343 39 39 40 0 0
0.7641 1.6488 1.2900 -0.662 -0.655 0.365 39 39 40 0 0
0.7050 1.7210 1.2980 -0.255 -0.899 0.356 42 41 46 0 0
0.6644 1.7103 1.3143 0.429 -0.467 0.773 45 45 47 0 0
0.8067 1.6524 1.3115 0.777 -0.557 0.292 46 46 48 0 0
0.7895 1.6850 1.3143 -0.229 -0.716 -0.659 45 45 48 0 0
0.7660 1.6948 1.3169 0.047 -0.663 -0.747 42 42 44 0 0
0.6801 1.7161 1.3258 0.083 -0.306 0.948 26 26 26 0 0
0.7887 1.6773 1.3269 -0.337 -0.906 -0.255 37 36 41 0 0
0.7658 1.6894 1.3295 0.035 -0.986 -0.165 17 15 18 0 0
0.7528 1.6899 1.3308 -0.407 -0.888 0.212 16 14 16 0 0
0.7924 1.6863 1.3397 -0.219 -0.693 0.687 26 25 29 0 0
0.5969 1.9545 1.3685 -0.855 0.016 0.518 105 103 104 0 0
0.7891 1.7179 1.3541 -0.348 -0.372 0.861 39 39 40 0 0
0.7782 1.7263 1.3554 -0.200 -0.441 0.875 39 39 39 0 0
0.7648 1.7253 1.3566 -0.021 -0.443 0.896 39 39 39 0 0
0.6055 1.9850 1.3820 -0.877 0.017 0.481 79 77 78 0 0
0.8710 1.8179 1.3636 0.745 -0.500 0.442 38 38 38 0 0
0.7863 1.7516 1.3686 -0.630 -0.410 0.659 39 39 39 0 0
0.7717 1.7461 1.3697 -0.423 -0.420 0.803 39 39 39 0 0
0.8224 1.7820 1.3795 -0.235 -0.880 0.412 42 42 42 0 0
0.8059 1.7704 1.3805 -0.301 -0.687 0.661 43 43 43 0 0
0.7962 1.7835 1.3820 -0.210 -0.851 0.481 41 41 41 0 0
0.7807 1.7753 1.3831 -0.195 -0.661 0.724 43 43 43 0 0
0.7350 1.7475 1.3989 0.023 -0.229 0.973 35 35 35 0 0
0.8654 1.7839 1.4017 -0.512 -0.242 0.824 40 40 40 0 0
0.7767 1.8003 1.4105 -0.007 -0.201 0.980 14 14 14 0 0
0.8727 1.8054 1.4150 -0.482 -0.204 0.852 22 22 22 0 0
0.8644 1.8239 1.4167 -0.102 -0.260 0.960 27 27 28 0 0
0.8852 1.9382 1.4469 0.197 -0.347 0.917 45 45 42 0 0
0.8730 1.9436 1.4482 -0.051 -0.268 0.962 23 23 23 0 0
0.8344 3.2070 1.5625 -0.450 -0.742 -0.497 39 39 41 0 0
1.5312 3.0030 1.5207 -0.119 -0.970 -0.210 56 56 56 0 0
1.1361 2.6597 1.5344 0.872 -0.485 0.066 14 14 16 0 0
0.9309 2.6112 1.5492 -0.088 -0.894 -0.439 39 38 42 0 0
0.9630 2.6726 1.5645 -0.535 -0.549 0.642 36 36 38 0 0
0.9412 2.6454 1.5648 -0.161 -0.773 0.614 42 41 43 0 0
0.9130 2.7072 1.5709 -0.830 -0.175 0.530 49 48 50 0 0
0.9030 2.7259 1.5729 -0.993 0.074 0.087 53 51 54 0 0
0.8340 3.0562 1.5990 -0.532 -0.804 0.267 42 42 44 0 0
0.9350 2.8473 1.5923 -0.456 -0.186 0.871 43 42 44 0 0
0.8362 3.0596 1.6140 -0.617 -0.606 0.502 39 39 41 0 0
0.8317 3.1052 1.6172 0.100 -0.853 -0.513 38 38 40 0 0
0.8199 3.1199 1.6192 -0.644 -0.699 -0.310 42 42 45 0 0
1.2016 2.6126 1.5694 -0.032 -0.389 -0.921 27 26 28 0 0
1.1649 2.5888 1.5710 -0.057 -0.463 -0.885 27 25 28 0 0
0.8344 3.0462 1.6283 -0.880 -0.462 0.111 43 43 45 0 0
0.8318 3.0997 1.6319 -0.800 -0.592 -0.101 38 38 40 0 0
0.8211 3.1192 1.6341 -0.781 -0.624 0.030 37 36 39 0 0
0.8103 3.1382 1.6362 -0.832 -0.517 -0.203 41 40 45 0 0
0.7733 3.1098 1.6375 -0.544 -0.751 -0.375 55 53 57 0 0
0.7177 3.1321 1.6437 -0.806 0.070 -0.587 66 66 67 0 0
1.1353 2.5839 1.5876 -0.367 -0.243 -0.898 17 17 19 0 0
0.9410 2.5723 1.6032 -0.351 -0.719 -0.600 12 12 14 0 0
0.8366 3.0493 1.6433 -0.924 -0.323 0.204 50 49 51 0 0
0.8277 3.0762 1.6458 -0.870 -0.491 0.048 45 43 46 0 0
0.8219 3.1162 1.6489 -0.853 -0.491 0.177 39 37 42 0 0
0.7997 3.1525 1.6532 -0.277 -0.738 -0.616 38 36 43 0 0
0.7222 3.0780 1.6548 -0.699 -0.132 -0.703 65 65 66 0 0
0.7102 3.1605 1.6612 -0.773 0.092 -0.628 72 72 73 0 0
1.6179 2.9517 1.5865 0.227 -0.647 0.728 41 42 44 0 0
0.9201 2.7131 1.6287 -0.628 0.010 -0.778 15 13 16 0 0
0.7477 3.1182 1.6703 -0.323 -0.946 -0.006 47 46 50 0 0
0.7187 3.0559 1.6686 -0.802 -0.197 -0.564 53 53 55 0 0
0.6902 3.0628 1.6714 -0.790 0.101 -0.605 81 81 82 0 0
1.1558 2.5420 1.6119 -0.387 -0.548 -0.742 33 33 35 0 0
0.9582 2.5715 1.6303 0.156 -0.988 0.010 30 30 32 0 0
1.2761 2.5918 1.6199 0.583 -0.696 0.420 41 39 40 0 0
1.2304 2.5389 1.6199 0.344 -0.933 0.101 46 46 48 0 0
1.2175 2.5454 1.6215 -0.284 -0.942 0.179 41 41 43 0 0
1.2039 2.5498 1.6229 -0.284 -0.942 0.179 36 36 38 0 0
1.1909 2.5560 1.6244 -0.537 -0.736 0.412 36 36 38 0 0
1.1737 2.5991 1.6288 -0.630 -0.511 0.585 35 35 37 0 0
1.1579 2.5960 1.6299 -0.077 -0.520 0.851 36 36 38 0 0
1.5489 2.8225 1.6287 0.776 -0.630 -0.036 53 53 55 0 0
1.1933 2.5594 1.6389 -0.305 -0.761 0.573 36 36 39 0 0
1.1810 2.5679 1.6405 -0.794 -0.430 0.429 36 36 38 0 0
1.1728 2.5911 1.6428 -0.769 -0.408 0.492 34 34 36 0 0
1.1613 2.6028 1.6446 -0.574 -0.472 0.669 33 33 35 0 0
1.1487 2.6109 1.6462 0.021 -0.483 0.875 33 33 35 0 0
1.1596 2.6440 1.6623 0.697 -0.716 0.046 33 33 35 0 0
0.7110 3.0636 1.7296 -0.529 -0.310 0.790 38 37 42 0 0
0.7054 3.1761 1.7383 -0.122 -0.299 0.946 52 52 54 0 0
1.1006 2.5355 1.6734 0.449 -0.892 -0.058 26 26 28 0 0
0.9438 2.6068 1.6915 -0.155 -0.925 0.346 32 32 34 0 0
0.6864 3.1518 1.7531 -0.281 -0.291 0.915 54 54 56 0 0
1.7359 3.0366 1.6752 0.834 -0.551 -0.002 79 79 81 0 0
1.0014 2.4892 1.6922 -0.878 -0.477 0.037 7 7 9 0 0
0.9462 2.6106 1.7059 -0.350 -0.881 0.318 33 33 35 0 0
0.6784 3.1783 1.7709 -0.954 -0.113 0.278 60 60 63 0 0
1.3938 2.9057 1.7077 0.019 -0.213 0.977 50 50 50 0 0
1.0970 2.5125 1.7006 0.214 -0.834 -0.508 21 21 23 0 0
0.9998 2.5861 1.7141 -0.792 -0.531 -0.301 7 7 9 0 0
0.9526 2.5741 1.7170 0.259 -0.890 -0.376 29 29 31 0 0
0.6785 3.1724 1.7855 -0.947 -0.075 0.314 57 59 61 0 0
1.0035 2.5404 1.7246 0.146 -0.989 0.004 7 7 9 0 0
0.9525 2.5682 1.7308 0.259 -0.890 -0.376 30 30 32 0 0
1.7036 2.9269 1.7153 0.811 -0.448 -0.377 73 73 75 0 0
1.0960 2.4991 1.7283 0.237 -0.760 -0.605 16 16 18 0 0
0.6880 3.2036 1.8176 -0.978 -0.091 0.189 62 64 66 0 0
1.9146 3.2987 1.7449 -0.246 -0.634 -0.733 146 145 146 0 0
1.7105 2.9425 1.7313 0.786 -0.430 -0.444 72 71 75 0 0
1.6094 3.1238 1.7543 0.294 -0.796 -0.529 39 39 39 0 0
1.5967 3.1347 1.7561 -0.193 -0.663 -0.724 39 39 39 0 0
1.5778 3.1260 1.7569 -0.187 -0.704 -0.685 40 40 40 0 0
0.7031 3.1267 1.8252 -0.097 -0.395 -0.914 54 53 57 0 0
1.5377 3.0958 1.7730 -0.841 -0.431 0.327 47 47 47 0 0
1.5215 3.1469 1.7786 -0.746 -0.168 0.644 54 52 53 0 0
1.0910 2.4715 1.7549 0.317 -0.649 -0.691 23 23 25 0 0
1.5838 3.0843 1.7840 0.619 -0.565 -0.545 38 38 38 0 0
1.7913 3.2152 1.7951 0.347 -0.884 -0.314 60 60 61 0 0
1.7558 3.2028 1.8125 0.548 -0.640 -0.538 48 48 50 0 0
1.7324 3.1817 1.8124 -0.317 -0.732 0.603 41 41 42 0 0
1.0808 2.4202 1.7940 0.201 -0.753 -0.626 27 26 31 0 0
0.6930 3.1942 1.8923 -0.915 0.024 -0.403 68 68 68 0 0
0.7125 3.2070 1.9072 -0.896 -0.047 -0.442 56 56 58 0 0
1.7606 3.2072 1.8441 -0.826 -0.549 -0.125 38 38 40 0 0
1.0124 2.4781 1.8328 -0.289 -0.892 0.348 8 8 10 0 0
0.9969 2.4747 1.8336 -0.994 -0.103 0.034 9 9 11 0 0
1.7571 3.2413 1.8634 -0.939 -0.122 0.321 36 36 37 0 0
1.0088 2.4599 1.8456 0.215 -0.955 0.202 8 8 10 0 0
0.9996 2.4794 1.8481 -0.991 -0.107 0.086 10 10 12 0 0
0.9626 2.5588 1.8583 -0.775 -0.309 -0.552 19 19 21 0 0
1.0180 2.4353 1.8568 -0.437 -0.862 0.259 9 9 11 0 0
1.0131 2.4707 1.8605 0.114 -0.988 0.107 9 9 11 0 0
0.9996 2.4743 1.8619 -0.981 -0.134 0.143 10 10 12 0 0
2.0028 3.3146 1.8842 0.627 -0.701 -0.340 172 172 172 0 0
1.0152 2.4729 1.8749 -0.558 -0.797 -0.231 9 9 11 0 0
1.0189 2.4286 1.8845 -0.354 -0.810 -0.468 8 8 10 0 0
1.0232 2.4972 1.8909 -0.966 -0.075 -0.249 9 9 11 0 0
1.4886 2.8401 1.9060 0.060 -0.053 -0.997 30 30 32 0 0
1.0176 2.4190 1.8978 -0.200 -0.794 -0.574 8 8 10 0 0
1.0066 2.4846 1.9051 -0.937 -0.104 0.334 10 10 12 0 0
1.0169 2.5767 1.9136 -0.978 -0.179 -0.108 11 11 13 0 0
0.8184 2.5417 1.9244 -0.236 -0.498 -0.834 29 31 36 0 0
0.8045 2.5438 1.9256 -0.294 -0.543 -0.787 28 31 36 0 0
0.8581 2.5219 1.9338 0.266 -0.617 -0.741 19 19 21 0 0
0.8286 2.5191 1.9356 -0.310 -0.478 -0.822 27 27 32 0 0
0.7939 2.6130 1.9477 -0.901 -0.059 0.430 23 24 28 0 0
1.0131 2.3924 1.9237 -0.278 -0.957 -0.088 8 8 10 0 0
0.8270 2.5072 1.9488 -0.374 -0.628 -0.682 16 14 21 0 0
1.0145 2.3925 1.9378 -0.302 -0.951 0.065 10 10 12 0 0
1.0073 2.5799 1.9579 0.040 -0.170 -0.985 10 10 12 0 0
0.8524 2.4884 1.9592 0.040 -0.745 -0.666 14 14 16 0 0
0.8395 2.4944 1.9607 -0.335 -0.828 -0.449 16 14 19 0 0
0.8157 2.5145 1.9645 -0.644 -0.725 -0.244 23 21 27 0 0
0.8552 2.4941 1.9738 -0.375 -0.912 -0.167 16 15 18 0 0
0.8287 2.5032 1.9766 -0.797 -0.586 -0.148 31 29 35 0 0
1.1815 2.5067 1.9668 -0.396 0.085 -0.914 21 21 23 0 0
0.8478 2.5163 1.9909 -0.739 -0.577 0.348 34 33 37 0 0
0.7979 2.5480 1.9978 0.259 -0.964 -0.057 51 50 54 0 0
0.7822 2.5426 1.9983 -0.443 -0.895 -0.047 49 48 52 0 0
1.0216 2.4032 1.9809 -0.224 -0.964 0.145 10 10 12 0 0
0.8435 2.4939 2.0030 -0.341 -0.928 -0.152 47 47 50 0 0
0.8299 2.4972 2.0043 -0.198 -0.975 0.104 48 49 51 0 0
1.2674 2.4379 1.9822 0.155 -0.690 -0.707 47 47 49 0 0
1.0611 2.3327 1.9845 -0.715 -0.583 -0.386 21 21 23 0 0
1.0554 2.4153 1.9941 0.406 -0.882 0.237 20 20 22 0 0
1.0362 2.3984 1.9935 0.074 -0.996 -0.045 14 14 16 0 0
1.0214 2.3973 1.9944 0.074 -0.996 -0.045 8 8 10 0 0
0.9363 2.3489 1.9948 -0.207 -0.608 -0.767 36 35 40 0 0
0.9256 2.3626 1.9971 -0.082 -0.981 0.175 30 29 34 0 0
1.0230 2.3979 2.0085 0.154 -0.975 -0.159 24 24 26 0 0
0.9454 2.3779 2.0115 -0.183 -0.858 0.480 37 37 40 0 0
0.9173 2.3800 2.0137 -0.522 -0.777 0.353 39 39 42 0 0
1.0852 2.3570 2.0139 0.364 -0.874 -0.322 42 42 44 0 0
0.9581 2.3667 2.0235 -0.317 -0.857 0.407 40 40 40 0 0
0.9451 2.3717 2.0249 -0.360 -0.830 0.425 40 40 42 0 0
0.9324 2.3776 2.0265 -0.317 -0.857 0.407 41 41 43 0 0
1.8373 2.9316 2.0445 0.364 -0.503 -0.784 67 67 69 0 0
1.7949 2.9028 2.0440 0.664 -0.602 -0.443 52 52 55 0 0
0.9784 2.3831 2.0381 -0.089 -0.789 0.608 36 36 38 0 0
0.9515 2.3901 2.0407 -0.638 -0.524 0.565 30 30 31 0 0
0.7719 2.5915 2.0760 -0.892 -0.210 0.400 28 27 31 0 0
1.7866 2.8745 2.0566 0.649 -0.636 -0.416 59 59 61 0 0
0.7688 2.5730 2.0883 -0.836 -0.328 0.441 27 26 30 0 0
1.7638 2.8504 2.0706 0.777 -0.558 -0.292 62 63 67 0 0
1.6318 2.6504 2.0555 0.867 -0.487 0.109 50 49 54 0 0
1.5515 2.5954 2.0542 -0.665 0.041 0.746 41 40 45 0 0
0.7670 2.6197 2.1083 -0.688 -0.298 0.662 29 29 31 0 0
0.6550 2.8311 2.1408 -0.012 -0.492 -0.871 32 31 36 0 0
0.6539 2.8931 2.1482 -0.415 -0.716 -0.561 34 33 38 0 0
2.1279 3.4001 2.1285 0.827 -0.558 0.073 182 182 182 0 0
0.7735 2.6412 2.1249 -0.537 -0.329 0.777 39 39 41 0 0
0.6489 2.8640 2.1598 -0.466 -0.298 -0.833 35 34 39 0 0
0.6440 2.9090 2.1655 -0.946 -0.324 -0.005 37 36 41 0 0
0.6447 2.9808 2.1741 -0.700 -0.326 -0.635 38 37 42 0 0
0.6208 3.0791 2.1875 -0.930 -0.131 -0.343 58 59 59 0 0
0.6071 3.0855 2.1892 -0.998 -0.022 -0.052 77 79 78 0 0
0.6044 3.1447 2.1965 -1.000 -0.007 -0.018 94 96 95 0 0
2.1296 3.3999 2.1448 0.786 -0.610 0.101 185 184 182 0 0
2.1235 3.4304 2.1489 0.887 -0.462 0.015 129 127 129 0 0
0.6623 2.7856 2.1641 -0.964 -0.210 0.160 40 40 43 0 0
0.6445 2.9051 2.1798 -0.973 -0.223 0.063 36 38 40 0 0
0.6367 3.0066 2.1927 -0.814 -0.269 -0.515 44 46 49 0 0
0.6290 3.0405 2.1973 -0.769 -0.227 -0.598 55 56 58 0 0
0.6068 3.0775 2.2033 -0.996 -0.029 0.079 92 93 93 0 0
0.6049 3.1404 2.2111 -0.989 -0.007 0.148 105 104 105 0 0
0.6080 3.0767 2.2181 -0.996 -0.029 0.079 100 99 99 0 0
1.0432 2.4305 2.1248 -0.836 -0.549 0.025 18 18 20 0 0
0.6653 2.7216 2.1851 -0.570 -0.378 0.730 39 38 43 0 0
0.6560 2.7453 2.1886 -0.708 -0.351 0.613 42 43 45 0 0
0.6369 2.9259 2.2124 -0.903 -0.274 -0.331 55 56 59 0 0
2.1355 3.4018 2.1938 0.505 -0.847 0.167 193 192 191 0 0
0.6706 2.7391 2.2015 -0.430 -0.449 0.783 36 35 40 0 0
2.1622 3.4227 2.2112 0.404 -0.904 0.141 201 200 201 0 0
1.0454 2.4283 2.1529 -0.860 -0.509 0.031 16 16 18 0 0
0.6458 2.8862 2.2364 -0.975 -0.216 0.049 61 62 65 0 0
0.6394 2.9248 2.2418 -0.952 -0.245 0.186 71 70 74 0 0
1.8490 2.8778 2.1761 0.858 -0.453 -0.245 76 74 76 0 0
0.6490 2.8944 2.2520 -0.949 -0.212 0.234 54 55 56 0 0
0.6413 2.9270 2.2568 -0.924 -0.211 0.319 63 63 64 0 0
1.0507 2.3802 2.1889 -0.964 -0.257 0.067 11 9 12 0 0
1.0437 2.4072 2.1930 -0.964 -0.257 0.067 10 10 12 0 0
1.0082 2.5436 2.2132 -0.930 -0.045 0.365 14 14 16 0 0
1.0519 2.3796 2.2030 -0.802 -0.462 -0.377 11 9 12 0 0
1.0417 2.3951 2.2057 -0.802 -0.462 -0.377 10 10 12 0 0
1.0146 2.5618 2.2298 -0.763 -0.175 0.623 13 13 15 0 0
1.0102 2.6003 2.2352 -0.763 -0.175 0.623 15 15 17 0 0
0.8398 3.0548 2.3066 -0.159 -0.288 0.944 53 52 57 0 0
1.7552 3.0551 2.2675 -0.151 -0.224 0.963 36 36 38 0 0
1.7018 3.2902 2.3027 0.698 -0.669 0.256 53 53 56 0 0
1.0508 2.3708 2.2161 -0.802 -0.462 -0.377 11 9 12 0 0
1.0337 2.5189 2.2372 -0.990 -0.062 0.128 10 10 12 0 0
1.0309 2.5624 2.2433 -0.991 -0.075 0.110 10 10 12 0 0
1.7350 3.3359 2.3230 0.722 -0.555 0.412 53 52 57 0 0
1.0398 2.5361 2.2537 -0.862 -0.351 0.365 10 10 12 0 0
1.0418 2.5383 2.2683 -0.935 -0.325 0.145 10 10 12 0 0
2.1597 3.3317 2.3302 -0.966 -0.254 0.059 147 147 147 0 0
2.1585 3.3239 2.3455 -0.952 -0.208 -0.223 125 125 125 0 0
2.1577 3.3170 2.3608 -0.950 -0.062 -0.306 111 111 113 0 0
0.8105 3.5004 2.4633 0.475 -0.607 0.637 40 39 44 0 0
2.1454 3.2795 2.3724 -0.766 -0.135 -0.629 104 105 107 0 0
1.0518 2.5487 2.3416 -0.917 -0.360 0.174 10 10 12 0 0
2.1833 3.2800 2.4029 0.030 -0.494 -0.869 198 196 198 0 0
1.6947 3.1725 2.4295 0.743 -0.445 -0.500 57 57 59 0 0
0.7788 3.6128 2.5614 -0.707 -0.544 0.452 42 41 46 0 0
1.0465 2.3524 2.3697 -0.474 -0.822 0.316 12 12 14 0 0
1.9609 2.8810 2.4489 0.858 -0.495 0.135 89 89 90 0 0
1.7937 3.0960 2.5073 -0.294 -0.012 -0.956 35 35 37 0 0
1.9119 2.8271 2.4738 0.826 -0.564 -0.023 85 85 87 0 0
1.8610 2.7668 2.4972 0.582 -0.598 -0.551 82 82 84 0 0
2.2489 3.2664 2.5767 0.438 -0.741 -0.508 205 205 205 0 0
2.0271 2.9928 2.5420 0.772 -0.462 -0.435 71 69 70 0 0
1.9155 2.8237 2.5193 0.790 -0.571 -0.223 76 75 78 0 0
1.0141 2.3514 2.4847 -0.200 -0.299 -0.933 11 11 13 0 0
0.5977 2.9927 2.6116 -0.896 -0.224 0.384 81 79 81 0 0
0.5925 3.0394 2.6196 -0.885 -0.182 0.428 80 80 82 0 0
1.9492 2.8667 2.5404 0.806 -0.588 -0.066 67 65 68 0 0
1.9170 2.8231 2.5346 0.806 -0.588 -0.066 62 62 64 0 0
1.8884 2.7892 2.5303 0.790 -0.609 -0.067 63 63 65 0 0
1.7870 2.6852 2.5177 0.462 -0.721 -0.516 76 76 78 0 0
1.7668 2.6727 2.5166 0.458 -0.798 -0.393 71 71 73 0 0
1.7469 2.6613 2.5156 0.232 -0.794 -0.562 65 65 70 0 0
1.7294 2.6562 2.5156 0.232 -0.794 -0.562 62 62 67 0 0
1.0150 2.4020 2.5074 -0.753 -0.596 -0.279 12 12 14 0 0
0.6314 2.8664 2.6037 -0.942 -0.255 0.218 64 65 68 0 0
0.5957 3.0479 2.6359 -0.793 -0.230 0.564 67 67 69 0 0
0.5890 3.0882 2.6430 -0.793 -0.230 0.564 67 67 69 0 0
1.8276 2.7055 2.5344 0.701 -0.630 -0.334 67 67 69 0 0
1.8053 2.6874 2.5324 0.498 -0.609 -0.618 71 71 73 0 0
1.7446 2.6501 2.5290 0.135 -0.496 -0.858 72 71 75 0 0
1.0092 2.3760 2.5175 -0.858 -0.478 0.189 15 15 17 0 0
0.9099 2.3821 2.5233 -0.060 -0.676 -0.734 14 14 16 0 0
0.6486 2.8043 2.6072 -0.874 -0.252 0.415 63 66 67 0 0
0.6423 2.8422 2.6139 -0.886 -0.231 0.402 66 69 72 0 0
0.6154 2.9929 2.6407 -0.723 -0.279 0.632 61 65 62 0 0
0.6087 3.0318 2.6477 -0.793 -0.230 0.564 59 63 60 0 0
0.6004 3.0638 2.6535 -0.842 -0.217 0.493 57 57 59 0 0
0.5940 3.1053 2.6608 -0.842 -0.217 0.493 52 52 54 0 0
2.0387 3.0103 2.5918 0.797 -0.560 -0.226 67 65 66 0 0
2.0036 2.9602 2.5849 0.801 -0.584 -0.133 61 59 61 0 0
1.7051 2.6225 2.5412 0.236 -0.471 -0.850 70 68 71 0 0
0.9420 2.3359 2.5281 -0.130 -0.895 -0.427 25 25 27 0 0
0.6005 3.1304 2.6799 -0.905 -0.217 0.365 50 50 52 0 0
2.1314 3.1188 2.6220 -0.302 -0.626 -0.719 113 113 113 0 0
2.1117 3.1111 2.6216 0.402 -0.756 -0.517 88 90 89 0 0
1.9287 2.8416 2.5836 0.701 -0.632 0.330 52 51 56 0 0
1.7762 2.6416 2.5562 0.456 -0.730 -0.509 48 48 50 0 0
1.5295 2.4660 2.5374 0.484 -0.746 0.457 56 55 58 0 0
1.0107 2.3714 2.5451 -0.322 -0.764 -0.559 36 37 41 0 0
0.9818 2.3190 2.5374 0.144 -0.985 0.098 34 35 39 0 0
2.0050 2.9551 2.6154 0.798 -0.585 -0.143 57 57 59 0 0
1.9378 2.8619 2.6022 0.776 -0.629 -0.047 49 48 53 0 0
1.5277 2.5017 2.5583 0.240 -0.971 -0.013 55 54 59 0 0
1.3687 2.4313 2.5534 0.010 -0.614 -0.789 47 47 50 0 0
1.3471 2.4105 2.5507 -0.052 -0.928 -0.369 47 46 49 0 0
1.3315 2.4082 2.5511 0.233 -0.973 -0.005 46 46 48 0 0
0.9442 2.3340 2.5559 -0.092 -0.989 -0.120 44 45 47 0 0
0.9295 2.3325 2.5563 -0.133 -0.972 -0.195 49 50 52 0 0
0.8641 2.4113 2.5731 -0.508 -0.644 0.572 47 47 49 0 0
0.8605 2.5104 2.5905 -0.878 -0.191 0.439 48 48 50 0 0
1.8203 2.7114 2.5966 0.768 -0.627 0.133 46 46 48 0 0
1.5101 2.4901 2.5718 0.088 -0.694 0.715 52 49 54 0 0
1.4907 2.4774 2.5705 0.183 -0.625 0.759 51 49 54 0 0
1.2879 2.4068 2.5673 0.216 -0.971 0.105 46 46 48 0 0
1.1946 2.3916 2.5688 0.318 -0.768 -0.556 44 44 46 0 0
1.1513 2.3447 2.5626 0.172 -0.970 0.170 42 41 46 0 0
1.1312 2.3757 2.5689 -0.384 -0.918 -0.102 41 40 45 0 0
1.0908 2.3875 2.5728 -0.451 -0.764 -0.462 41 40 45 0 0
0.9796 2.3534 2.5719 0.103 -0.869 0.483 34 35 39 0 0
0.9602 2.3350 2.5695 -0.217 -0.876 0.430 35 36 38 0 0
0.9471 2.3396 2.5709 -0.419 -0.730 0.540 34 35 37 0 0
0.7753 2.6920 2.6406 0.012 -0.714 0.700 29 30 32 0 0
0.7608 2.6927 2.6414 -0.008 -0.777 0.630 21 22 25 0 0
0.7489 2.7047 2.6441 0.333 -0.927 0.171 14 15 17 0 0
2.0192 2.9399 2.6435 0.773 -0.614 -0.155 79 79 81 0 0
1.9501 2.8862 2.6370 0.507 -0.479 -0.717 48 47 52 0 0
1.9322 2.8820 2.6371 0.437 -0.340 -0.833 43 42 47 0 0
1.1312 2.3709 2.5824 -0.067 -0.975 -0.213 42 41 44 0 0
1.1134 2.3599 2.5812 0.175 -0.878 -0.446 42 41 45 0 0
1.1039 2.3773 2.5848 -0.565 -0.748 -0.348 35 34 38 0 0
1.0900 2.3800 2.5859 -0.451 -0.764 -0.462 31 30 34 0 0
0.8090 2.7043 2.6559 -0.235 -0.781 0.579 18 18 21 0 0
2.0848 3.0218 2.6709 0.812 -0.542 0.215 118 118 118 0 0
1.9694 2.8897 2.6524 0.774 -0.601 -0.202 66 67 71 0 0
1.9189 2.8410 2.6459 0.542 -0.426 -0.724 47 46 51 0 0
1.8343 2.7412 2.6318 0.665 -0.601 0.444 40 39 44 0 0
1.1879 2.3596 2.5922 -0.192 -0.807 -0.559 39 38 42 0 0
0.7085 2.7723 2.6872 -0.315 -0.483 0.817 47 48 50 0 0
1.9672 2.8792 2.6662 0.759 -0.592 -0.271 71 72 74 0 0
1.5277 2.5292 2.6223 -0.449 -0.868 0.211 49 47 52 0 0
1.3313 2.3889 2.6055 -0.420 -0.903 -0.088 37 37 39 0 0
1.1991 2.3432 2.6031 0.346 -0.880 0.327 25 24 29 0 0
1.1864 2.3497 2.6048 -0.101 -0.993 0.068 24 23 29 0 0
1.1721 2.3510 2.6056 -0.073 -0.997 -0.012 25 24 29 0 0
1.1312 2.3611 2.6092 -0.170 -0.909 0.382 20 19 23 0 0
1.1220 2.3798 2.6130 -0.362 -0.700 0.615 19 19 21 0 0
1.1098 2.3880 2.6150 -0.362 -0.700 0.615 20 20 22 0 0
1.5188 2.5437 2.6401 -0.111 -0.773 0.625 40 38 41 0 0
1.4274 2.4972 2.6356 0.627 -0.669 0.399 28 28 30 0 0
1.3324 2.3876 2.6197 -0.515 -0.842 0.161 36 36 38 0 0
1.1416 2.3419 2.6196 0.127 -0.968 0.216 17 17 19 0 0
1.1266 2.3907 2.6291 -0.333 -0.761 0.557 15 15 17 0 0
0.7820 2.6913 2.7133 0.136 -0.671 -0.729 42 42 45 0 0
0.7667 2.6888 2.7135 -0.570 -0.408 -0.713 46 46 48 0 0
0.7379 2.7539 2.7267 -0.728 -0.652 -0.211 53 52 57 0 0
0.7291 2.7799 2.7319 -0.629 -0.777 0.018 52 50 55 0 0
1.4904 2.5411 2.6704 0.082 -0.977 -0.199 24 24 26 0 0
0.8068 2.7275 2.7336 0.688 -0.695 0.209 29 29 31 0 0
0.7746 2.7163 2.7329 0.203 -0.929 0.308 33 33 35 0 0
0.7589 2.7120 2.7328 -0.747 -0.664 -0.030 34 34 37 0 0
2.3617 3.4974 2.8277 -0.020 -0.664 -0.748 196 196 196 0 0
2.3428 3.4943 2.8279 -0.062 -0.594 -0.802 160 160 160 0 0
1.1425 2.3805 2.6696 0.163 -0.808 0.566 16 16 18 0 0
0.7693 2.6882 2.7426 -0.872 -0.417 0.255 26 26 28 0 0
0.7485 2.7245 2.7502 -0.922 -0.356 0.149 30 30 34 0 0
0.7402 2.7519 2.7557 -0.973 -0.228 0.022 28 28 32 0 0
0.6111 3.1143 2.8287 -0.522 -0.380 -0.764 69 70 72 0 0
2.3769 3.4864 2.8419 0.218 -0.613 -0.759 200 200 200 0 0
2.3385 3.4784 2.8419 -0.023 -0.615 -0.788 122 122 122 0 0
1.3038 2.4202 2.6849 -0.037 -0.996 -0.086 30 30 32 0 0
0.9160 2.6212 2.7386 -0.649 -0.026 -0.760 17 17 19 0 0
0.8171 2.6975 2.7570 -0.322 -0.564 -0.760 17 17 19 0 0
0.7981 2.6801 2.7545 -0.478 -0.878 -0.011 18 17 20 0 0
0.7823 2.6752 2.7542 -0.834 -0.422 0.355 19 19 21 0 0
0.6870 2.9028 2.8010 -0.522 -0.414 -0.746 40 40 44 0 0
2.3917 3.4744 2.8558 0.261 -0.617 -0.742 203 203 203 0 0
1.8681 2.7589 2.7410 0.613 -0.608 0.505 68 68 70 0 0
1.1737 2.3275 2.6870 -0.579 -0.466 -0.669 24 22 25 0 0
1.1320 2.3849 2.6996 -0.271 -0.824 0.497 23 23 25 0 0
0.8823 2.6570 2.7614 0.782 -0.542 -0.308 15 15 17 0 0
0.8036 2.6971 2.7722 -0.570 -0.757 -0.319 16 14 17 0 0
0.7308 2.7630 2.7876 -0.969 -0.218 0.113 30 26 32 0 0
0.6820 2.8741 2.8107 -0.814 -0.571 0.102 48 49 51 0 0
0.6765 2.9164 2.8189 -0.696 -0.566 -0.442 51 52 54 0 0
0.6668 2.9402 2.8239 -0.797 -0.342 -0.498 54 55 57 0 0
0.6143 3.0442 2.8457 -0.883 -0.246 -0.401 75 75 77 0 0
2.3578 3.3835 2.8565 -0.821 -0.548 -0.161 191 191 191 0 0
2.3492 3.4062 2.8612 -0.554 -0.621 -0.554 150 150 150 0 0
2.3366 3.4189 2.8641 -0.750 -0.619 -0.233 105 105 105 0 0
1.8805 2.7885 2.7615 0.613 -0.608 0.505 58 58 60 0 0
1.3426 2.4396 2.7161 0.092 -0.958 0.271 35 35 37 0 0
1.1359 2.3932 2.7154 -0.365 -0.929 0.066 27 27 29 0 0
0.7864 2.6811 2.7844 -0.910 -0.411 0.054 29 27 30 0 0
2.3578 3.3788 2.8722 -0.891 -0.453 0.031 168 168 168 0 0
2.3485 3.3998 2.8766 -0.750 -0.619 -0.233 118 118 118 0 0
1.8030 2.7022 2.7633 0.748 -0.599 0.285 42 42 44 0 0
1.6939 2.6170 2.7511 0.354 -0.933 -0.063 58 58 60 0 0
1.1374 2.3934 2.7298 -0.422 -0.902 0.092 32 32 34 0 0
0.8914 2.6238 2.7839 0.512 -0.850 -0.125 23 23 25 0 0
2.3611 3.3824 2.8894 -0.896 -0.410 0.173 138 138 137 0 0
2.3478 3.3933 2.8921 -0.842 -0.537 -0.046 99 98 99 0 0
1.0890 2.5287 2.7724 -0.217 -0.751 -0.623 21 22 25 0 0
2.3725 3.3625 2.9017 -0.896 -0.410 0.173 164 164 164 0 0
2.3635 3.3841 2.9063 -0.896 -0.410 0.173 112 112 112 0 0
1.9933 2.8609 2.8177 0.740 -0.428 -0.519 65 65 67 0 0
1.0926 2.5363 2.7883 -0.059 -0.812 0.580 31 32 35 0 0
0.7520 2.7668 2.8465 -0.735 -0.672 0.096 50 50 52 0 0
0.7279 2.7907 2.8521 -0.868 -0.488 -0.095 51 49 52 0 0
2.3830 3.3402 2.9135 -0.914 -0.388 0.121 183 183 184 0 0
2.3743 3.3623 2.9183 -0.914 -0.388 0.121 135 135 136 0 0
1.9534 2.7930 2.8214 0.832 -0.428 -0.353 66 66 68 0 0
1.7153 2.6198 2.7961 0.371 -0.850 0.374 39 39 43 0 0
1.0258 2.5036 2.7989 -0.283 -0.652 0.704 38 38 42 0 0
0.8635 2.5552 2.8152 -0.255 -0.931 -0.262 42 42 44 0 0
0.7167 2.8001 2.8692 -0.790 -0.488 -0.373 30 29 31 0 0
2.3795 3.3268 2.9276 -0.956 -0.282 -0.077 163 163 165 0 0
1.9314 2.7295 2.8250 0.590 -0.403 -0.700 58 58 60 0 0
1.6876 2.6257 2.8133 0.467 -0.714 0.522 44 44 46 0 0
1.2097 2.4688 2.7997 -0.536 -0.844 -0.021 41 41 43 0 0
0.7913 2.7340 2.8681 0.019 -1.000 0.025 32 29 34 0 0
0.7783 2.7413 2.8700 -0.163 -0.983 -0.085 31 28 33 0 0
2.3784 3.3194 2.9427 -0.895 -0.313 -0.318 136 137 139 0 0
1.1833 2.4754 2.8165 0.148 -0.984 -0.097 30 30 32 0 0
2.3721 3.3431 2.9643 -0.881 -0.227 -0.416 89 89 91 0 0
1.3270 2.5006 2.8311 -0.566 -0.706 -0.425 24 24 26 0 0
1.2385 2.4562 2.8252 -0.134 -0.902 0.411 24 22 27 0 0
1.1544 2.4730 2.8317 -0.631 -0.775 -0.045 26 26 28 0 0
1.0149 2.5019 2.8425 0.078 -0.801 -0.593 23 23 25 0 0
0.9930 2.4754 2.8379 0.063 -0.996 0.067 23 23 25 0 0
0.7835 2.7515 2.9014 -0.316 -0.577 0.753 31 30 35 0 0
2.3811 3.2735 2.9664 -0.942 -0.078 -0.327 165 165 165 0 0
1.1552 2.4708 2.8457 -0.493 -0.810 -0.317 23 23 25 0 0
1.1070 2.5095 2.8553 -0.013 -0.682 -0.731 18 18 21 0 0
1.0134 2.4912 2.8549 0.159 -0.969 -0.191 20 20 22 0 0
2.3774 3.2597 2.9802 -0.893 -0.087 -0.441 152 153 153 0 0
1.3181 2.5110 2.8629 0.397 -0.914 -0.081 36 36 38 0 0
1.2833 2.4955 2.8609 0.526 -0.686 -0.503 36 36 37 0 0
1.2756 2.5197 2.8661 0.192 -0.965 0.178 36 35 36 0 0
1.2068 2.4397 2.8521 -0.606 -0.766 -0.212 33 31 33 0 0
1.0629 2.5054 2.8706 0.068 -0.874 -0.480 21 21 23 0 0
0.8062 2.7729 2.9346 -0.392 -0.799 0.457 50 50 52 0 0
0.7932 2.7805 2.9366 -0.392 -0.799 0.457 48 48 51 0 0
1.3232 2.4739 2.8697 0.084 -0.930 0.359 48 48 52 0 0
1.0352 2.5067 2.8863 -0.242 -0.968 0.060 39 37 40 0 0
0.8308 2.7456 2.9429 -0.828 -0.558 0.047 56 56 58 0 0
0.8200 2.7623 2.9467 -0.656 -0.626 0.421 55 55 57 0 0
0.8085 2.7766 2.9501 -0.426 -0.712 0.558 54 54 56 0 0
0.7951 2.7825 2.9518 -0.198 -0.763 0.615 52 52 54 0 0
1.4293 2.4711 2.8802 -0.289 -0.864 0.412 54 54 56 0 0
1.3124 2.5316 2.8968 -0.296 -0.917 0.268 49 49 48 0 0
1.2965 2.5289 2.8967 0.305 -0.913 -0.271 50 50 50 0 0
1.0468 2.4901 2.8970 -0.685 -0.447 -0.575 48 48 50 0 0
1.0367 2.5072 2.9009 -0.491 -0.699 -0.521 55 54 55 0 0
1.0231 2.5113 2.9022 -0.425 -0.851 0.308 55 53 54 0 0
1.0081 2.5103 2.9025 0.192 -0.684 0.704 53 51 52 0 0
0.8358 2.7607 2.9607 -0.774 -0.434 0.462 58 58 60 0 0
2.4067 3.1899 3.0140 -0.362 -0.719 -0.594 206 204 205 0 0
2.3779 3.2042 3.0179 -0.916 -0.244 -0.320 185 186 185 0 0
2.3684 3.2238 3.0224 -0.668 -0.476 -0.572 132 134 133 0 0
2.3519 3.2258 3.0234 -0.171 -0.635 -0.754 95 95 97 0 0
1.0342 2.4929 2.9125 -0.622 -0.783 0.023 59 58 59 0 0
1.0247 2.5118 2.9168 -0.406 -0.821 0.401 57 56 57 0 0
2.4219 3.1801 3.0278 -0.227 -0.813 -0.536 204 204 204 0 0
2.4042 3.1793 3.0282 -0.302 -0.744 -0.596 204 203 204 0 0
2.3627 3.2050 3.0350 -0.331 -0.705 -0.627 127 129 129 0 0
2.3278 3.1608 3.0268 0.706 -0.599 -0.378 94 95 97 0 0
1.1061 2.4293 2.9112 0.098 -0.944 -0.315 59 59 61 0 0
1.0406 2.5109 2.9307 -0.526 -0.632 0.569 59 59 60 0 0
1.1134 2.4499 2.9299 -0.267 -0.914 -0.306 63 62 63 0 0
1.0770 2.4775 2.9369 -0.716 -0.165 0.678 66 64 65 0 0
1.0672 2.4954 2.9411 -0.967 -0.198 0.163 66 64 65 0 0
2.3608 3.1913 3.0649 -0.471 -0.646 -0.601 127 129 128 0 0
2.3146 3.1190 3.0508 0.757 -0.583 -0.294 101 102 104 0 0
2.3128 3.1100 3.0652 0.740 -0.608 -0.286 100 101 103 0 0
1.2031 2.3933 2.9438 0.173 -0.809 -0.561 72 69 69 0 0
1.2201 2.3960 2.9584 -0.110 -0.754 0.647 71 69 69 0 0
2.3668 3.0653 3.0862 -0.886 -0.268 -0.379 203 203 203 0 0
2.3495 3.1498 3.1053 -0.388 -0.664 -0.639 149 149 149 0 0
1.2378 2.4008 2.9734 -0.297 -0.931 0.210 57 57 58 0 0
1.0759 2.4532 2.9897 -0.257 -0.268 -0.928 69 67 67 0 0
1.2339 2.4273 3.0084 -0.328 -0.943 0.055 43 43 47 0 0
2.3343 3.1370 3.1681 0.717 -0.569 0.402 147 148 150 0 0
1.1670 2.3421 3.0201 -0.501 -0.847 -0.177 45 46 50 0 0
1.1546 2.3500 3.0222 0.026 -0.899 -0.437 41 42 46 0 0
1.1675 2.3390 3.0337 -0.501 -0.847 -0.177 40 41 46 0 0
1.1547 2.3455 3.0356 -0.138 -0.965 -0.221 34 35 39 0 0
1.0912 2.4304 3.0567 -0.026 -0.944 0.330 22 23 25 0 0
1.0139 3.2182 3.2542 -0.768 0.221 -0.601 25 26 28 0 0
1.2105 2.3749 3.0697 0.743 -0.434 -0.509 28 29 33 0 0
1.1607 2.3066 3.0552 -0.712 -0.565 -0.416 30 31 35 0 0
0.6176 3.0316 3.2369 -0.237 -0.414 -0.879 40 43 46 0 0
1.2321 2.3877 3.1011 0.816 -0.460 -0.351 25 26 28 0 0
0.7319 2.6033 3.1640 -0.862 -0.058 -0.504 21 19 24 0 0
0.7855 2.5184 3.1573 -0.412 -0.268 0.871 19 17 22 0 0
0.5933 3.1859 3.3195 -0.490 -0.814 0.312 64 65 67 0 0
1.8339 2.5762 3.1608 0.447 -0.659 0.605 54 53 59 0 0
0.7960 2.4965 3.1663 0.233 -0.798 -0.556 17 16 20 0 0
0.7870 2.5786 3.1860 -0.464 -0.375 0.803 19 17 22 0 0
0.7757 2.5921 3.1895 -0.679 -0.337 0.652 23 20 26 0 0
1.1688 2.2609 3.1158 -0.503 -0.711 -0.491 25 24 27 0 0
0.7954 2.4886 3.1788 0.539 -0.832 -0.127 19 18 23 0 0
1.5411 2.3523 3.1438 0.814 -0.556 0.169 42 41 46 0 0
1.4861 2.3686 3.1489 0.814 -0.450 -0.366 40 39 44 0 0
1.1547 2.2579 3.1296 -0.473 -0.824 -0.311 32 32 37 0 0
0.8771 2.4621 3.1851 0.739 -0.516 -0.433 19 20 24 0 0
1.7800 2.5019 3.1895 0.126 -0.573 -0.810 55 54 59 0 0
1.5017 2.3656 3.1625 0.229 -0.973 -0.034 42 41 46 0 0
1.4849 2.3603 3.1615 0.707 -0.527 -0.471 42 41 46 0 0
0.8959 2.4730 3.2017 0.123 -0.082 -0.989 30 31 35 0 0
0.9447 2.4868 3.2186 0.188 -0.126 -0.974 34 35 40 0 0
0.9313 2.4914 3.2200 0.021 -0.066 -0.998 34 35 40 0 0
1.1661 2.2815 3.1781 -0.464 -0.850 -0.250 39 39 43 0 0
1.1544 2.2912 3.1807 -0.577 -0.817 0.017 38 38 41 0 0
1.0239 2.3439 3.1963 -0.239 -0.760 -0.604 36 35 40 0 0
0.9827 2.3524 3.1993 -0.146 -0.882 -0.448 37 36 41 0 0
1.5206 2.3633 3.2055 0.167 -0.986 -0.028 47 46 51 0 0
1.1661 2.2768 3.1912 -0.374 -0.875 -0.306 41 41 43 0 0
1.0144 2.3570 3.2141 -0.332 -0.149 -0.931 39 38 43 0 0
1.4044 2.3258 3.2131 -0.381 -0.854 0.354 46 45 50 0 0
1.3348 2.3412 3.2182 0.617 -0.774 -0.142 43 42 47 0 0
0.7558 2.5910 3.2918 0.441 -0.382 0.812 51 50 55 0 0
1.4460 2.3113 3.2232 -0.386 -0.763 0.518 48 47 51 0 0
1.4349 2.3231 3.2263 -0.509 -0.660 0.552 47 47 51 0 0
1.3903 2.3240 3.2274 -0.063 -0.997 -0.044 46 46 50 0 0
0.8032 2.5998 3.3077 -0.305 -0.339 -0.890 51 50 55 0 0
1.4307 2.3059 3.2366 0.764 -0.645 0.038 48 48 50 0 0
1.2950 2.3000 3.2376 -0.271 -0.746 0.609 45 45 47 0 0
0.8040 2.5974 3.3217 -0.641 -0.025 -0.767 52 52 54 0 0
0.7957 2.6236 3.3284 -0.719 -0.013 -0.695 53 52 55 0 0
1.3838 2.4341 3.2845 -0.989 0.035 -0.147 46 46 48 0 0
1.2976 2.3036 3.2530 -0.475 -0.675 0.565 45 45 47 0 0
1.2904 2.3279 3.2593 -0.449 -0.813 0.371 45 45 48 0 0
1.1998 2.3704 3.2716 -0.494 -0.855 -0.159 44 45 46 0 0
1.1749 2.4358 3.2887 -0.520 -0.653 -0.551 42 44 44 0 0
0.7611 2.6569 3.3522 -0.219 -0.186 -0.958 54 53 58 0 0
1.4366 2.3602 3.2795 -0.850 -0.127 -0.511 47 47 49 0 0
1.4286 2.3818 3.2851 -0.477 -0.310 -0.822 47 47 49 0 0
1.3576 2.3476 3.2776 -0.376 -0.765 -0.522 46 46 48 0 0
1.2143 2.3644 3.2844 -0.466 -0.858 -0.218 42 43 46 0 0
1.1846 2.4136 3.2974 -0.759 -0.645 0.087 44 45 47 0 0
1.4491 2.3481 3.2908 -0.495 -0.858 0.139 46 45 49 0 0
1.4313 2.3854 3.3006 -0.266 -0.849 -0.457 47 46 50 0 0
1.3974 2.3736 3.2982 -0.356 -0.879 0.318 46 46 50 0 0
1.3864 2.3859 3.3015 -0.341 -0.890 0.304 46 45 49 0 0
1.3732 2.3916 3.3032 -0.341 -0.890 0.304 45 45 49 0 0
1.3637 2.4089 3.3078 0.124 -0.985 -0.124 45 44 48 0 0
1.3430 2.3910 3.3036 -0.296 -0.838 0.459 45 45 49 0 0
1.3298 2.3966 3.3052 -0.296 -0.838 0.459 45 44 48 0 0
1.4259 2.3642 3.3099 -0.129 -0.940 -0.315 44 43 48 0 0
1.4129 2.3705 3.3118 -0.462 -0.833 -0.305 45 44 49 0 0
0.9303 2.4400 3.3375 -0.849 -0.433 0.302 47 46 51 0 0
1.3606 2.3900 3.3323 0.194 -0.948 -0.251 38 37 42 0 0
1.2979 2.3806 3.3308 -0.207 -0.688 0.695 35 35 39 0 0
1.1541 2.3960 3.3371 -0.753 -0.652 0.092 42 41 46 0 0
1.1314 2.4195 3.3435 -0.458 -0.856 0.238 40 39 44 0 0
1.1103 2.4489 3.3515 -0.503 -0.849 -0.164 40 41 45 0 0
0.9286 2.4284 3.3490 -0.800 -0.544 0.253 44 43 48 0 0
0.8438 2.5471 3.3958 -0.482 -0.605 -0.634 43 42 47 0 0
1.5193 2.4043 3.3630 -0.712 -0.696 -0.094 38 37 42 0 0
0.8433 2.5394 3.4084 -0.488 -0.726 -0.484 55 54 59 0 0
1.5488 2.4417 3.3873 0.784 -0.544 -0.299 36 35 40 0 0
1.5174 2.3940 3.3751 0.228 -0.692 -0.684 36 35 40 0 0
1.4431 2.3527 3.3652 -0.887 -0.405 -0.223 36 35 40 0 0
0.8649 2.4471 3.3982 0.094 -0.734 0.673 50 49 52 0 0
0.8196 2.5561 3.4278 -0.786 -0.535 -0.308 44 44 45 0 0
0.8652 2.4996 3.4267 -0.025 -0.530 0.847 32 32 34 0 0
0.8561 2.5214 3.4326 -0.343 -0.937 -0.067 32 32 35 0 0
0.8441 2.5316 3.4355 -0.542 -0.838 -0.059 30 29 34 0 0
0.8192 2.5492 3.4405 -0.786 -0.535 -0.308 32 33 34 0 0
1.5138 2.3745 3.3994 0.584 -0.467 -0.664 29 28 33 0 0
1.4907 2.3508 3.3933 0.549 -0.685 -0.479 31 30 35 0 0
0.8756 2.5350 3.4506 -0.273 -0.482 0.833 30 30 32 0 0
0.8451 2.5303 3.4497 -0.292 -0.956 0.014 29 28 32 0 0
1.4301 2.3451 3.4072 -0.462 -0.773 0.436 33 32 37 0 0
0.7404 2.6354 3.4939 -0.935 0.123 -0.332 41 40 45 0 0
0.7334 2.6681 3.5028 -0.958 -0.187 -0.219 42 41 46 0 0
2.5138 3.3247 3.6750 -0.177 -0.966 0.189 161 161 163 0 0
2.5028 3.3412 3.6796 -0.880 -0.330 0.342 127 127 127 0 0
1.4586 2.3361 3.4190 -0.135 -0.988 -0.069 37 36 41 0 0
1.4460 2.3434 3.4212 -0.734 -0.666 0.135 37 36 41 0 0
1.2991 2.3515 3.4251 -0.999 0.044 0.031 38 37 42 0 0
0.8900 2.5804 3.4920 -0.200 -0.966 0.164 32 32 34 0 0
0.8453 2.5200 3.4761 -0.723 -0.687 -0.078 33 33 35 0 0
0.8277 2.5667 3.4890 -0.759 -0.365 0.540 34 33 38 0 0
0.8192 2.5914 3.4958 -0.741 -0.251 0.623 35 34 39 0 0
2.5075 3.3481 3.6982 -0.880 -0.330 0.342 125 125 125 0 0
0.8354 2.5332 3.4944 -0.892 -0.223 0.393 37 36 41 0 0
2.5170 3.3235 3.7083 -0.337 -0.941 0.020 154 155 157 0 0
1.4611 2.3345 3.4478 0.306 -0.905 -0.296 38 39 43 0 0
0.8257 2.6068 3.5293 -0.679 0.015 -0.734 39 38 43 0 0
2.5434 3.2973 3.7176 -0.506 -0.765 -0.399 173 175 176 0 0
2.5273 3.3013 3.7188 -0.638 -0.716 -0.282 166 168 170 0 0
2.5140 3.3117 3.7218 -0.919 -0.379 -0.109 151 152 154 0 0
0.8780 2.5745 3.5346 -0.686 0.078 -0.723 38 38 40 0 0
1.2117 2.3378 3.4804 -0.208 -0.961 -0.180 41 40 45 0 0
1.2171 2.4000 3.5122 -0.537 -0.842 0.039 42 41 46 0 0
1.1608 2.3602 3.5016 0.223 -0.974 -0.031 36 36 39 0 0
0.4533 3.9007 3.9383 0.042 -0.673 -0.738 194 194 193 0 0
1.1622 2.3600 3.5160 0.223 -0.974 -0.031 36 36 38 0 0
0.4697 3.8931 3.9526 -0.226 -0.090 -0.970 180 180 178 0 0
2.5553 3.3079 3.7877 0.420 -0.216 -0.882 174 175 177 0 0
1.1215 2.3165 3.5186 0.372 -0.906 0.202 35 35 37 0 0
0.5048 3.8109 3.9457 -0.880 -0.109 -0.461 189 189 189 0 0
0.4919 3.8284 3.9507 -0.636 -0.138 -0.760 189 189 189 0 0
0.5020 3.7875 3.9555 -0.839 -0.125 -0.530 189 189 189 0 0
0.4881 3.7998 3.9591 -0.518 -0.145 -0.843 190 190 190 0 0
1.2538 2.3066 3.5438 -0.947 -0.268 -0.176 37 36 41 0 0
1.1513 2.3438 3.5985 -0.084 -0.989 -0.123 38 37 42 0 0
1.1314 2.3666 3.6344 -0.568 -0.746 -0.348 39 38 43 0 0
2.3473 2.8483 3.8193 -0.865 -0.081 -0.495 185 186 188 0 0
2.0667 2.6784 3.8003 0.648 -0.762 0.009 113 114 111 0 0
1.9778 2.6581 3.7943 -0.097 -0.102 -0.990 48 47 52 0 0
1.9409 2.6457 3.7906 0.236 -0.199 -0.951 47 46 51 0 0
1.1969 2.3639 3.7062 -0.304 -0.926 0.222 35 34 39 0 0
1.2477 2.3797 3.7256 0.181 -0.980 0.080 38 37 42 0 0
1.2135 2.3651 3.7211 -0.129 -0.990 -0.056 36 35 40 0 0
1.8326 2.5137 3.7964 0.622 -0.703 0.345 60 60 60 0 0
1.2309 2.3638 3.7499 -0.242 -0.778 -0.580 39 38 43 0 0
1.2340 2.3693 3.7663 -0.334 -0.890 0.312 38 37 42 0 0
1.2211 2.3756 3.7682 -0.375 -0.863 0.338 37 36 41 0 0
0.7212 2.8506 3.9291 -0.488 -0.208 -0.848 97 96 92 0 0
0.7091 2.8632 3.9330 -0.488 -0.208 -0.848 114 113 109 0 0
0.7180 2.8301 3.9378 -0.561 -0.230 -0.795 143 142 140 0 0
0.7061 2.8440 3.9421 -0.561 -0.230 -0.795 153 152 150 0 0
0.6994 2.8020 3.9591 -0.536 -0.211 -0.818 183 183 183 0 0
0.9179 2.5876 3.9220 -0.077 -0.077 -0.994 155 156 153 0 0
0.9025 2.5857 3.9213 -0.050 -0.064 -0.997 160 160 158 0 0
0.8339 2.5475 3.9089 0.145 -0.921 0.361 173 173 171 0 0
0.8188 2.5458 3.9083 0.198 -0.885 0.422 176 176 175 0 0
0.7360 2.5665 3.9145 -0.008 -0.570 0.822 187 187 187 0 0
0.9363 2.5393 3.9215 -0.135 -0.108 -0.985 174 174 174 0 0
0.9226 2.5436 3.9228 -0.097 -0.104 -0.990 177 177 177 0 0
1.2632 2.3198 3.8969 0.228 -0.191 -0.955 189 189 191 0 0
0.4562 2.4464 3.9323 0.380 -0.801 -0.463 200 200 200 0 0
0.4376 2.4243 3.9250 0.265 -0.961 -0.075 200 200 200 0 0
0.4652 2.4092 3.9488 -0.026 -0.924 0.382 196 196 196 0 0
0.4409 2.4279 3.9548 -0.677 -0.416 0.608 200 200 200 0 0
0.4816 2.4140 3.9648 -0.111 -0.891 0.440 195 195 195 0 0
0.4673 2.4131 3.9644 -0.196 -0.879 0.436 198 198 198 0 0
0.4516 2.4053 3.9617 0.090 -0.851 0.517 199 199 199 0 0
