ply
format ascii 1.0
element vertex 784
property float x
property float y
property float z
property float nx
property float ny
property float nz
property uchar diffuse_red
property uchar diffuse_green
property uchar diffuse_blue
property uchar class
property uchar detection
end_header
1.2843 3.0223 -0.1836 0.182 0.364 -0.913 43 43 43 0 0
1.3288 3.2418 -0.1196 0.682 0.598 -0.422 38 38 38 0 0
1.3592 3.2685 -0.1140 0.292 0.019 -0.956 46 46 46 0 0
1.3160 3.2992 -0.0967 0.184 0.222 -0.957 49 49 49 0 0
1.3260 3.2878 -0.0968 0.678 -0.133 -0.723 49 49 49 0 0
1.3579 3.2840 -0.1017 0.137 0.505 -0.852 48 48 48 0 0
1.3734 3.2746 -0.1031 0.591 0.325 -0.739 50 50 50 0 0
1.4198 3.2020 -0.1013 0.880 0.400 -0.258 53 52 54 0 0
1.2430 3.3500 -0.0768 -0.132 0.623 -0.771 39 38 39 0 0
1.2916 3.3366 -0.0833 0.000 0.326 -0.945 52 52 52 0 0
1.3850 3.2798 -0.0916 0.591 0.325 -0.739 47 47 49 0 0
1.3954 3.2686 -0.0919 0.596 0.487 -0.638 47 47 49 0 0
1.4334 3.1931 -0.0883 0.922 0.179 -0.343 59 59 61 0 0
1.4424 3.1816 -0.0883 0.940 -0.022 -0.342 51 51 53 0 0
1.3866 3.2962 -0.0800 0.322 0.601 -0.732 41 41 42 0 0
1.4091 3.2893 -0.0829 0.575 -0.010 -0.818 40 40 42 0 0
1.4373 3.2105 -0.0772 0.620 0.020 -0.784 48 48 50 0 0
1.4021 2.9260 -0.0329 0.891 0.338 -0.304 10 9 14 0 0
1.3315 3.3821 -0.0679 -0.146 0.623 -0.768 51 50 52 0 0
1.4204 3.3533 -0.0794 0.822 0.231 -0.520 42 41 44 0 0
1.3958 3.3006 -0.0681 0.315 0.388 -0.866 35 35 38 0 0
1.4237 3.2955 -0.0722 0.598 -0.077 -0.797 33 33 35 0 0
1.3218 3.3948 -0.0537 -0.144 0.725 -0.674 45 44 46 0 0
1.4154 3.3675 -0.0664 0.788 0.608 -0.095 33 33 36 0 0
1.4133 3.3078 -0.0580 0.332 0.344 -0.878 30 29 33 0 0
1.4284 3.2983 -0.0593 0.825 -0.356 -0.439 39 38 41 0 0
1.3556 3.4073 -0.0472 -0.091 0.771 -0.630 38 38 40 0 0
1.3885 3.3889 -0.0505 0.570 0.745 0.347 34 34 36 0 0
1.4163 3.3542 -0.0507 0.740 0.519 0.428 35 33 37 0 0
1.4419 3.3483 -0.0544 0.301 0.292 -0.908 34 32 37 0 0
1.4075 2.8849 0.0149 0.960 -0.237 -0.151 11 10 15 0 0
1.3365 3.4169 -0.0309 -0.085 0.874 -0.478 37 37 39 0 0
1.2954 3.4354 0.0024 -0.109 0.778 -0.618 45 45 47 0 0
1.4523 3.3700 -0.0170 0.034 0.645 -0.764 43 41 44 0 0
1.5133 3.3628 -0.0131 0.556 0.340 -0.758 42 40 43 0 0
1.5274 3.3688 -0.0025 0.721 0.515 -0.464 41 39 42 0 0
1.5683 3.3394 -0.0059 0.889 0.212 -0.406 42 40 43 0 0
1.4689 3.0507 0.0527 0.633 -0.233 -0.738 41 41 43 0 0
1.5725 3.3565 0.0048 0.798 0.233 -0.556 65 63 66 0 0
1.4923 3.0757 0.0591 0.566 -0.282 -0.775 18 17 21 0 0
1.5493 3.3932 0.0180 0.083 0.679 -0.729 50 48 51 0 0
1.5783 3.3886 0.0132 0.973 -0.061 -0.224 58 56 59 0 0
1.6113 3.3130 0.0177 0.651 0.355 -0.671 53 53 55 0 0
1.4967 3.0784 0.0722 0.637 -0.112 -0.763 27 26 30 0 0
1.5032 3.0507 0.0749 0.527 -0.341 -0.779 21 20 26 0 0
1.5706 3.4016 0.0268 0.077 0.560 -0.825 49 47 50 0 0
1.5931 3.3804 0.0255 0.564 0.162 -0.810 62 60 63 0 0
1.5111 3.0698 0.0850 0.711 -0.129 -0.691 31 30 35 0 0
1.5604 3.4428 0.0368 0.416 0.600 -0.683 43 43 45 0 0
1.5727 3.1241 0.0798 0.751 -0.172 -0.637 40 40 42 0 0
1.5263 3.0615 0.0975 0.899 -0.435 -0.046 35 35 37 0 0
1.5749 3.4488 0.0472 0.640 0.638 -0.429 42 42 44 0 0
1.6036 3.4152 0.0465 0.515 0.156 -0.843 36 35 39 0 0
1.6107 3.4032 0.0468 0.580 -0.026 -0.814 22 21 26 0 0
1.6133 3.3896 0.0483 0.635 0.071 -0.769 22 20 24 0 0
1.6293 3.2789 0.0610 0.919 0.242 -0.311 50 49 54 0 0
1.6094 3.4328 0.0568 0.582 0.357 -0.731 39 39 42 0 0
1.6227 3.4084 0.0577 0.638 0.017 -0.770 43 43 45 0 0
1.6258 3.3950 0.0590 0.635 0.071 -0.769 39 39 41 0 0
1.6341 3.2817 0.0737 0.879 0.155 -0.451 23 22 27 0 0
1.5670 3.4485 0.0767 0.071 0.900 -0.430 36 36 38 0 0
1.6197 3.3651 0.0785 0.709 0.567 -0.419 45 45 47 0 0
1.6343 3.3556 0.0770 0.932 -0.049 -0.360 32 32 34 0 0
1.6399 3.2848 0.0861 0.879 0.155 -0.451 16 15 20 0 0
1.6419 3.2709 0.0877 0.948 0.153 -0.279 20 19 24 0 0
1.6466 3.3610 0.0878 0.836 0.158 -0.526 53 54 55 0 0
1.6532 3.2615 0.1009 0.717 0.209 -0.666 17 16 21 0 0
1.6521 3.4363 0.0897 0.425 0.495 -0.758 48 48 48 0 0
1.4332 2.9857 0.2132 0.289 -0.300 -0.909 39 39 41 0 0
1.6779 3.4618 0.1086 0.546 0.067 -0.835 35 33 35 0 0
1.4716 3.0026 0.2321 0.595 -0.644 -0.481 39 39 41 0 0
1.7137 3.4905 0.1249 0.687 0.176 -0.705 48 47 47 0 0
1.7189 3.4780 0.1257 0.712 0.252 -0.656 61 60 58 0 0
1.6887 3.4246 0.1397 0.787 0.455 -0.417 57 57 57 0 0
1.6358 3.1420 0.1924 0.992 -0.123 -0.031 24 22 27 0 0
1.5687 3.0865 0.2144 0.533 -0.792 -0.298 48 46 48 0 0
1.7228 3.4947 0.1362 0.712 0.252 -0.656 55 54 50 0 0
1.7280 3.4822 0.1370 0.712 0.252 -0.656 60 59 56 0 0
1.6358 3.1430 0.2065 0.976 -0.212 0.054 31 30 34 0 0
1.5585 3.0685 0.2335 0.601 -0.789 -0.127 44 42 45 0 0
1.4889 3.5630 0.1885 -0.074 0.895 -0.440 31 31 34 0 0
1.7318 3.4989 0.1476 0.712 0.252 -0.656 67 66 61 0 0
1.7370 3.4864 0.1484 0.712 0.252 -0.656 50 49 48 0 0
1.7197 3.4662 0.1550 0.593 -0.195 -0.782 48 46 46 0 0
1.5540 3.0678 0.2490 0.581 -0.812 -0.056 46 45 45 0 0
1.7293 3.4992 0.1620 0.877 0.209 -0.433 55 53 52 0 0
1.7347 3.4868 0.1627 0.780 0.372 -0.503 30 28 31 0 0
1.6403 3.1467 0.2335 0.999 -0.014 0.040 48 48 48 0 0
1.7431 3.4622 0.1785 0.868 0.226 -0.443 14 12 16 0 0
1.5910 3.1439 0.2586 0.237 -0.528 -0.816 34 34 36 0 0
1.6395 3.1473 0.2478 0.931 -0.184 -0.315 45 45 46 0 0
1.7557 3.4389 0.1933 0.865 0.419 -0.276 12 9 15 0 0
1.6421 3.1493 0.2613 0.389 -0.630 -0.672 31 30 33 0 0
1.5895 3.6001 0.2183 -0.115 0.939 -0.324 35 35 39 0 0
1.6290 3.5841 0.2123 0.899 -0.295 0.325 26 25 30 0 0
1.6742 3.5415 0.2091 0.091 0.816 -0.571 21 21 25 0 0
1.7347 3.5044 0.2017 0.886 0.412 -0.210 50 50 52 0 0
1.7690 3.4303 0.2057 0.961 0.228 -0.155 15 13 18 0 0
1.7166 3.2374 0.2462 0.501 -0.408 -0.763 15 15 17 0 0
1.7169 3.2228 0.2484 0.474 -0.502 -0.724 11 11 13 0 0
1.6828 3.1657 0.2643 0.384 -0.647 -0.659 19 18 21 0 0
1.6309 3.5859 0.2256 0.408 -0.021 -0.913 25 24 29 0 0
1.6430 3.5754 0.2246 0.039 0.146 -0.989 27 26 30 0 0
1.6765 3.5577 0.2201 0.071 0.502 -0.862 29 29 31 0 0
1.7367 3.2458 0.2547 0.706 -0.572 -0.417 30 30 32 0 0
1.7337 3.2301 0.2578 0.666 -0.695 -0.272 22 22 24 0 0
1.7177 3.2094 0.2644 0.521 -0.505 -0.688 14 14 16 0 0
1.7254 3.1975 0.2645 0.398 -0.497 -0.771 11 11 13 0 0
1.6327 3.5877 0.2390 0.708 0.041 -0.705 37 37 39 0 0
1.7751 3.4203 0.2337 0.739 0.353 -0.574 24 22 27 0 0
1.7428 3.2345 0.2692 0.742 -0.654 0.149 40 40 42 0 0
1.7378 3.2179 0.2729 0.798 -0.582 -0.157 33 33 35 0 0
1.3701 3.6370 0.3030 -0.183 0.922 -0.342 68 68 69 0 0
1.4990 3.6186 0.2776 -0.072 0.960 -0.272 31 30 34 0 0
1.6419 3.6062 0.2482 0.692 -0.496 -0.524 39 39 41 0 0
1.5000 3.6201 0.2915 -0.062 0.933 -0.354 41 41 42 0 0
1.6621 3.6139 0.2567 0.978 -0.168 -0.121 40 40 42 0 0
1.6617 3.5994 0.2590 0.679 0.727 -0.104 40 40 42 0 0
1.7479 3.4848 0.2577 0.768 0.158 -0.620 13 12 17 0 0
1.5243 3.6435 0.2967 -0.099 0.916 -0.389 47 49 49 0 0
1.6734 3.6044 0.2697 0.805 0.531 -0.266 41 41 43 0 0
1.6761 3.5910 0.2711 0.558 0.582 -0.591 36 36 38 0 0
1.7753 3.5381 0.2573 0.971 0.107 -0.212 23 21 24 0 0
1.7662 3.4922 0.2665 0.959 0.253 -0.130 12 12 15 0 0
1.7699 3.4791 0.2677 0.821 0.521 -0.234 12 11 14 0 0
1.7682 3.4642 0.2704 0.804 0.360 -0.473 12 11 14 0 0
1.7794 3.4538 0.2695 0.703 0.470 -0.533 14 12 15 0 0
1.7977 3.4315 0.2689 0.791 0.454 -0.410 23 21 24 0 0
1.5639 3.0347 0.3825 0.650 0.020 -0.760 33 33 35 0 0
1.3407 3.6467 0.3516 -0.199 0.929 -0.312 55 55 55 0 0
1.5449 3.6511 0.3052 -0.118 0.912 -0.394 50 50 52 0 0
1.7916 3.4591 0.2799 0.897 0.441 -0.030 13 11 14 0 0
1.7946 3.4458 0.2813 0.800 0.553 -0.232 13 11 14 0 0
1.5724 3.0390 0.3945 0.755 0.107 -0.647 33 33 35 0 0
1.2785 2.7495 0.5055 0.706 -0.707 0.047 41 41 43 0 0
1.5531 3.6550 0.3170 -0.130 0.945 -0.301 38 39 41 0 0
1.7163 3.5779 0.2923 0.101 0.967 -0.232 34 34 37 0 0
1.7744 3.4973 0.2918 0.836 0.222 -0.503 56 56 57 0 0
1.7862 3.4870 0.2908 0.915 0.257 -0.312 36 36 37 0 0
1.5819 3.0436 0.4063 0.755 0.107 -0.647 33 33 35 0 0
1.2807 2.7513 0.5200 0.710 -0.702 0.062 44 43 46 0 0
1.3669 3.6574 0.3731 -0.180 0.946 -0.268 75 75 75 0 0
1.4992 3.6685 0.3413 -0.137 0.944 -0.301 47 48 50 0 0
1.5653 3.6601 0.3277 -0.130 0.945 -0.301 31 32 35 0 0
1.7125 3.5779 0.3072 0.184 0.978 0.094 39 39 42 0 0
1.7836 3.5585 0.2941 0.808 0.577 -0.120 51 50 55 0 0
1.7814 3.2548 0.3424 0.714 0.540 -0.447 42 40 43 0 0
1.7912 3.2438 0.3419 0.551 0.790 -0.269 37 36 38 0 0
1.5717 3.0406 0.4237 0.435 0.776 -0.458 32 32 35 0 0
1.3933 3.6667 0.3802 -0.194 0.942 -0.273 71 70 75 0 0
1.5128 3.6740 0.3517 -0.135 0.947 -0.290 39 38 40 0 0
1.7814 3.2558 0.3564 0.767 0.622 -0.156 51 50 53 0 0
1.7892 3.2441 0.3564 0.508 0.861 -0.019 52 52 54 0 0
1.4073 3.6723 0.3906 -0.179 0.935 -0.305 56 55 62 0 0
1.5250 3.6790 0.3625 -0.135 0.947 -0.290 41 39 42 0 0
1.8008 3.2640 0.3648 0.676 0.164 -0.718 39 39 41 0 0
1.7970 3.2480 0.3682 0.668 0.542 -0.510 47 47 49 0 0
1.5642 3.0243 0.4573 0.889 0.042 -0.456 36 34 40 0 0
1.5382 3.6844 0.3729 -0.141 0.933 -0.330 52 53 54 0 0
1.8194 3.5313 0.3321 0.510 0.283 -0.812 16 15 21 0 0
1.8122 3.2546 0.3778 0.967 -0.059 0.249 31 30 33 0 0
1.5703 3.0276 0.4701 0.908 0.097 -0.407 35 33 39 0 0
1.8136 3.2562 0.3914 0.868 -0.148 0.475 16 15 19 0 0
1.3212 2.7884 0.5812 0.616 -0.777 0.127 41 38 45 0 0
1.8241 3.5920 0.3492 0.499 0.796 -0.343 30 26 33 0 0
1.8670 3.5213 0.3504 0.683 0.358 -0.636 13 13 16 0 0
1.8659 3.5067 0.3530 0.691 0.511 -0.511 13 12 15 0 0
1.8551 3.4887 0.3585 0.624 0.781 -0.025 12 12 14 0 0
1.6222 3.0650 0.4813 0.931 0.144 -0.336 32 31 37 0 0
1.6149 3.0165 0.4908 0.993 -0.057 -0.101 59 59 62 0 0
1.7413 3.6372 0.3754 -0.062 0.241 -0.968 25 25 26 0 0
1.8411 3.5987 0.3580 0.656 0.754 -0.037 46 43 48 0 0
1.8657 3.5219 0.3646 0.631 0.770 -0.095 14 14 16 0 0
1.8787 3.5122 0.3631 0.481 0.809 -0.337 12 12 14 0 0
1.8881 3.5012 0.3626 0.525 0.748 -0.407 11 11 13 0 0
1.8435 3.3130 0.4036 0.936 0.196 -0.291 40 41 40 0 0
1.6266 3.0677 0.4945 0.931 0.144 -0.336 31 31 37 0 0
1.5656 3.0133 0.5177 0.576 0.794 -0.194 42 41 46 0 0
1.6185 3.0188 0.5043 0.978 0.003 -0.208 57 58 61 0 0
1.3813 2.8306 0.5908 0.602 -0.791 0.106 37 35 39 0 0
1.8289 3.6100 0.3730 0.343 0.909 -0.235 57 57 57 0 0
1.8410 3.5998 0.3718 0.783 0.621 -0.041 59 58 59 0 0
1.8473 3.5878 0.3723 0.880 0.382 -0.281 62 60 63 0 0
1.6188 3.0199 0.5187 0.917 0.119 -0.380 56 57 60 0 0
1.4082 2.8582 0.5951 0.548 -0.836 0.031 34 34 36 0 0
1.3776 2.8300 0.6070 0.602 -0.790 0.112 37 37 40 0 0
1.7588 3.6310 0.4004 0.200 0.926 0.321 42 42 44 0 0
1.8362 3.6136 0.3847 0.223 0.676 -0.702 64 63 65 0 0
1.8436 3.2713 0.4386 0.781 0.538 0.318 45 45 48 0 0
1.8314 3.2375 0.4470 0.179 -0.089 -0.980 26 26 29 0 0
1.6103 3.0480 0.5309 0.782 0.516 -0.350 33 34 38 0 0
1.6193 3.0363 0.5307 0.860 0.353 -0.369 40 41 45 0 0
1.8483 3.6187 0.3949 0.165 0.719 -0.675 50 48 52 0 0
1.8965 3.5358 0.3968 0.607 0.152 -0.780 52 52 54 0 0
1.8655 3.4252 0.4224 0.599 0.237 -0.765 16 16 18 0 0
1.8807 3.3730 0.4272 0.779 -0.094 -0.619 12 11 16 0 0
1.8326 3.2828 0.4536 0.923 0.121 0.365 41 41 41 0 0
1.8394 3.2708 0.4539 0.822 0.482 0.303 44 44 45 0 0
1.6139 3.0504 0.5444 0.704 0.635 -0.317 34 35 38 0 0
1.6231 3.0387 0.5441 0.831 0.405 -0.381 39 40 44 0 0
1.9029 3.5391 0.4087 0.700 0.223 -0.678 39 38 42 0 0
1.9064 3.5261 0.4100 0.773 0.238 -0.588 42 42 45 0 0
1.9057 3.5117 0.4125 0.811 0.251 -0.528 45 45 46 0 0
1.8905 3.3776 0.4382 0.321 0.380 -0.868 13 11 15 0 0
1.8917 3.3636 0.4402 0.648 -0.137 -0.749 12 12 14 0 0
1.8498 3.2902 0.4624 0.836 0.187 -0.515 23 23 24 0 0
1.8494 3.2755 0.4649 0.866 0.315 -0.388 30 30 31 0 0
1.9122 3.5433 0.4197 0.745 0.275 -0.608 23 22 27 0 0
1.9162 3.5305 0.4208 0.972 -0.015 -0.236 37 36 41 0 0
1.8634 3.2671 0.4771 0.696 0.635 -0.335 22 22 24 0 0
1.8765 3.6174 0.4302 0.972 -0.193 -0.137 27 25 31 0 0
1.9046 3.5843 0.4287 0.543 0.686 -0.483 12 10 13 0 0
1.9118 3.5443 0.4336 0.824 0.533 -0.193 11 11 14 0 0
1.8676 3.2842 0.4875 0.869 0.347 -0.353 16 16 18 0 0
1.8674 3.2695 0.4899 0.696 0.635 -0.335 16 16 18 0 0
1.6458 3.0352 0.5833 0.423 0.756 -0.499 47 46 51 0 0
1.8979 3.5833 0.4445 0.989 -0.037 -0.145 13 11 12 0 0
1.9111 3.5735 0.4428 0.879 0.261 -0.398 11 11 11 0 0
1.9006 3.5417 0.4507 0.859 0.440 -0.263 9 9 11 0 0
1.8628 3.2688 0.5054 0.837 0.522 0.164 17 17 19 0 0
1.8748 3.2587 0.5041 0.722 0.629 0.286 19 19 21 0 0
1.8285 3.2118 0.5234 0.739 -0.303 0.601 24 24 26 0 0
1.8618 3.2694 0.5199 0.824 0.337 -0.456 27 27 29 0 0
1.8695 3.2577 0.5199 0.722 0.629 0.286 23 23 25 0 0
1.8327 3.2144 0.5363 0.805 -0.316 0.501 23 23 25 0 0
1.9096 3.4471 0.4923 0.925 -0.061 0.375 20 20 22 0 0
1.8398 3.3499 0.5262 0.498 0.108 -0.860 50 50 51 0 0
1.7956 3.1874 0.5790 0.410 -0.633 -0.657 21 21 23 0 0
1.5230 3.7418 0.5693 0.063 0.985 -0.158 56 55 59 0 0
1.5526 3.7362 0.5627 0.011 0.979 -0.204 48 47 51 0 0
1.9262 3.5690 0.4958 0.484 0.728 -0.486 32 32 34 0 0
1.8515 3.5295 0.5215 0.365 0.302 -0.881 30 30 32 0 0
1.9089 3.4634 0.5180 0.729 0.277 -0.626 10 10 13 0 0
1.8717 3.3636 0.5443 0.457 -0.104 -0.884 15 15 17 0 0
1.5248 3.7437 0.5831 0.061 0.985 -0.159 59 58 62 0 0
1.5527 3.7376 0.5770 0.028 0.990 -0.136 52 52 56 0 0
1.3380 2.8239 0.7869 0.560 -0.807 0.185 48 48 50 0 0
1.5888 3.7497 0.5801 -0.049 0.978 -0.203 60 60 62 0 0
1.9357 3.5744 0.5205 0.485 0.719 -0.499 42 42 44 0 0
1.9687 3.5432 0.5173 0.694 0.690 -0.205 32 32 34 0 0
1.9232 3.4275 0.5487 0.262 -0.036 -0.964 25 25 27 0 0
1.9385 3.5907 0.5310 0.746 0.422 -0.516 15 14 17 0 0
1.9422 3.5778 0.5322 0.576 0.716 -0.394 22 22 24 0 0
1.9544 3.5678 0.5308 0.849 0.519 -0.099 27 27 29 0 0
1.9215 3.4710 0.5559 0.373 0.684 -0.627 32 32 35 0 0
1.8747 3.4113 0.5782 0.825 -0.565 -0.002 29 29 31 0 0
1.5927 3.7680 0.6050 -0.040 0.976 -0.213 73 73 75 0 0
1.9437 3.5936 0.5432 0.773 0.460 -0.437 10 10 12 0 0
1.9414 3.5939 0.5578 0.847 0.432 -0.311 10 10 12 0 0
1.9306 3.4764 0.5809 0.100 0.654 -0.750 41 41 43 0 0
1.7802 3.6847 0.5988 0.026 0.302 -0.953 23 23 25 0 0
1.9305 3.6197 0.5703 0.940 0.277 -0.200 18 18 20 0 0
1.9335 3.6066 0.5718 0.958 0.078 -0.275 13 13 15 0 0
1.9434 3.5957 0.5710 0.894 0.392 -0.217 11 11 13 0 0
1.9484 3.5691 0.5743 0.658 0.527 -0.539 9 9 11 0 0
1.9491 3.6129 0.5806 0.812 0.500 -0.301 19 19 23 0 0
1.9527 3.6000 0.5819 0.742 0.439 -0.507 15 13 16 0 0
1.9729 3.5785 0.5803 0.356 0.473 -0.806 10 9 10 0 0
1.9250 3.5481 0.5983 0.168 0.781 -0.601 9 9 11 0 0
1.8969 3.2778 0.6527 0.835 0.550 0.026 36 36 39 0 0
1.9036 3.2656 0.6530 0.769 0.625 -0.133 31 31 35 0 0
1.9042 3.5564 0.6166 0.407 0.230 -0.884 16 14 15 0 0
1.9069 3.2679 0.6662 0.670 0.646 -0.366 35 34 39 0 0
1.9490 3.5869 0.6134 0.729 0.494 -0.474 28 26 29 0 0
1.9686 3.5652 0.6119 0.009 0.739 -0.673 26 25 27 0 0
1.9115 3.2559 0.6814 0.694 0.084 -0.715 34 33 38 0 0
1.5489 3.7631 0.7051 0.013 0.998 -0.061 62 62 64 0 0
1.9622 3.2780 0.7069 0.638 0.115 -0.761 30 29 34 0 0
1.8936 3.7022 0.6791 -0.129 0.892 -0.433 26 25 29 0 0
1.6528 3.7141 0.7585 -0.259 0.540 -0.801 31 31 33 0 0
1.9425 3.6354 0.7059 0.951 0.285 0.118 27 27 29 0 0
1.9007 3.5500 0.7330 0.227 -0.264 -0.937 10 9 13 0 0
1.9122 3.5108 0.7368 0.009 0.203 -0.979 10 10 13 0 0
1.9382 3.6635 0.7162 0.959 0.260 -0.110 30 30 32 0 0
1.9399 3.6357 0.7208 0.927 0.376 -0.002 28 28 30 0 0
1.9553 3.6703 0.7244 0.770 0.390 -0.505 35 35 37 0 0
1.8801 3.7182 0.7514 0.056 0.992 0.112 46 44 47 0 0
1.9137 3.7005 0.7450 -0.182 0.982 -0.056 38 38 40 0 0
1.9960 3.7128 0.7193 0.778 -0.619 0.107 35 35 37 0 0
1.9721 3.6769 0.7326 0.861 0.159 -0.483 38 38 40 0 0
1.9338 3.5933 0.7588 0.943 0.244 0.227 24 24 26 0 0
1.9487 3.5840 0.7563 0.772 -0.261 -0.580 28 28 30 0 0
1.9253 3.5474 0.7696 0.281 -0.469 -0.837 27 29 29 0 0
1.9422 3.5388 0.7663 0.240 -0.115 -0.964 26 29 29 0 0
1.7839 3.1421 0.8838 0.489 -0.872 0.022 23 23 25 0 0
1.9945 3.7135 0.7337 0.833 -0.520 0.189 36 36 38 0 0
1.9353 3.5520 0.7803 0.918 0.344 0.197 26 27 29 0 0
1.9421 3.5399 0.7805 0.925 -0.039 0.377 26 28 30 0 0
1.9281 3.5219 0.8023 0.630 -0.095 0.770 23 23 27 0 0
1.7993 3.1500 0.9078 0.499 -0.866 0.034 22 22 24 0 0
1.6252 3.0051 0.9848 0.702 0.672 0.234 36 34 40 0 0
1.9885 3.7140 0.7637 0.977 0.001 0.213 35 35 37 0 0
1.9873 3.7148 0.7782 0.973 0.202 0.113 31 31 33 0 0
1.9966 3.7037 0.7775 0.914 0.403 -0.049 28 28 30 0 0
2.0005 3.7061 0.7902 0.871 0.491 0.029 34 34 36 0 0
1.9900 3.6887 0.7965 0.947 -0.039 -0.318 32 32 34 0 0
1.9681 3.6532 0.8095 0.706 -0.294 -0.644 21 21 23 0 0
1.9466 3.5603 0.8331 0.509 0.223 -0.831 9 9 11 0 0
1.9731 3.5550 0.8263 0.861 0.439 -0.255 10 10 12 0 0
1.9811 3.7152 0.8085 0.405 0.903 0.144 39 39 41 0 0
2.0027 3.7080 0.8034 0.488 0.866 0.107 38 38 40 0 0
1.9998 3.6648 0.8123 0.474 0.313 -0.823 24 24 26 0 0
1.9759 3.6427 0.8235 0.123 0.132 -0.984 18 18 20 0 0
1.9302 3.5559 0.8532 0.552 0.585 -0.594 9 9 11 0 0
1.9681 3.5854 0.8653 0.264 -0.416 -0.870 20 20 22 0 0
2.0156 3.6168 0.8595 0.301 0.665 -0.684 32 32 34 0 0
1.9713 3.5733 0.8811 0.456 0.599 -0.659 30 30 32 0 0
2.0068 3.5710 0.8708 0.289 0.943 -0.166 30 30 32 0 0
2.0401 3.6261 0.8647 0.925 0.151 0.349 30 30 32 0 0
2.0301 3.6085 0.8711 0.967 -0.179 0.181 28 28 30 0 0
2.0346 3.6973 0.8815 0.829 0.534 -0.168 22 20 21 0 0
2.0363 3.6838 0.8836 0.876 0.470 -0.111 18 16 17 0 0
1.7141 3.0806 1.0972 0.799 0.524 0.295 26 26 28 0 0
2.0167 3.7068 0.8995 0.738 0.673 0.050 27 26 27 0 0
1.7206 3.0841 1.1099 0.979 0.196 0.049 26 26 28 0 0
1.9695 3.2717 1.0120 0.824 0.383 -0.418 36 35 40 0 0
1.9328 3.2130 1.0347 0.901 0.315 -0.297 24 24 26 0 0
1.7233 3.0861 1.1240 0.970 0.141 0.200 25 25 27 0 0
1.8846 3.7669 0.9579 0.528 -0.626 -0.574 46 46 47 0 0
1.9230 3.7646 0.9464 -0.079 0.452 -0.888 46 46 48 0 0
2.0274 3.6986 0.9266 0.726 0.045 -0.686 29 29 29 0 0
1.9727 3.2887 1.0226 0.492 0.845 -0.208 35 35 37 0 0
1.9728 3.2740 1.0253 0.869 0.313 -0.383 37 36 41 0 0
1.9373 3.2157 1.0476 0.863 0.445 -0.238 25 25 27 0 0
1.7900 3.1131 1.1133 0.499 -0.860 -0.104 25 25 27 0 0
1.9169 3.7640 0.9629 0.637 0.327 0.699 49 49 51 0 0
2.0037 3.7204 0.9441 0.995 0.044 0.094 34 34 34 0 0
2.0425 3.7047 0.9350 0.845 0.485 -0.226 32 32 32 0 0
2.0146 3.5096 0.9815 0.283 -0.293 -0.913 13 12 15 0 0
1.9837 3.2642 1.0386 0.839 0.540 0.064 35 34 37 0 0
1.9344 3.2155 1.0635 0.981 0.025 0.192 27 27 29 0 0
2.0108 3.7534 0.9644 0.098 0.882 -0.461 37 37 37 0 0
1.5830 2.9401 1.2583 0.995 -0.011 0.099 36 35 40 0 0
1.5982 2.9303 1.2554 0.767 0.572 0.291 40 39 44 0 0
1.9637 3.7681 0.9910 0.011 1.000 -0.016 48 48 48 0 0
2.0098 3.7543 0.9789 0.233 0.597 -0.768 37 37 37 0 0
2.0040 3.7383 0.9839 0.184 0.356 -0.916 35 35 35 0 0
2.0366 3.5925 1.0021 0.848 -0.496 0.188 19 19 21 0 0
2.0149 3.7572 0.9912 0.578 0.093 -0.810 38 38 39 0 0
2.0171 3.7437 0.9931 0.577 0.263 -0.773 28 28 29 0 0
2.0174 3.6871 1.0042 0.792 0.070 -0.607 17 16 19 0 0
1.5808 2.9251 1.2936 0.969 0.165 0.186 37 36 41 0 0
1.9158 3.7700 1.0351 0.370 0.904 0.216 24 24 26 0 0
1.9703 3.7585 1.0198 -0.156 0.936 -0.317 34 34 36 0 0
2.0210 3.7603 1.0031 0.743 0.462 -0.484 35 35 37 0 0
2.0317 3.7496 1.0018 0.354 0.609 -0.710 26 26 28 0 0
2.0359 3.7368 1.0029 0.880 0.072 -0.470 21 21 23 0 0
2.0204 3.6751 1.0201 0.201 0.739 -0.643 11 11 13 0 0
1.5831 2.9429 1.3051 0.872 0.459 -0.169 34 33 38 0 0
1.5776 2.9248 1.3105 0.969 0.165 0.186 36 35 40 0 0
2.0437 3.7687 1.0086 0.589 0.714 -0.379 32 32 34 0 0
2.0554 3.7583 1.0069 0.519 0.711 -0.475 29 29 31 0 0
2.0514 3.7430 1.0112 0.775 0.164 -0.611 22 22 24 0 0
1.5869 2.9454 1.3192 0.871 0.408 -0.274 33 32 37 0 0
1.5779 2.9098 1.3292 0.893 0.421 0.156 38 37 42 0 0
2.0513 3.7724 1.0198 0.886 0.293 0.360 30 30 32 0 0
2.0633 3.7621 1.0180 0.797 0.603 0.036 33 33 35 0 0
1.5793 2.9113 1.3443 0.950 0.277 0.144 38 37 42 0 0
2.0458 3.6869 1.0531 0.716 0.262 -0.648 19 19 21 0 0
2.0596 3.7068 1.0591 0.989 -0.115 0.088 30 30 32 0 0
2.0718 3.5980 1.0915 0.281 -0.684 -0.673 33 33 35 0 0
2.0187 3.7670 1.0897 0.204 0.850 -0.485 37 37 39 0 0
2.0858 3.6182 1.0973 0.378 -0.367 -0.850 33 32 34 0 0
2.0411 3.7612 1.0980 0.707 0.200 -0.678 35 35 37 0 0
2.0893 3.6205 1.1103 0.317 -0.077 -0.945 24 22 25 0 0
2.0583 3.7691 1.1197 0.961 -0.035 -0.275 28 28 30 0 0
2.0284 3.6896 1.1607 0.247 -0.461 -0.852 16 16 18 0 0
1.9816 3.3090 1.2694 0.433 0.471 0.769 42 43 45 0 0
1.5876 2.8584 1.4962 0.997 -0.071 -0.018 50 49 51 0 0
2.0898 3.7403 1.1586 0.975 0.006 -0.222 37 37 39 0 0
2.0754 3.7215 1.1675 0.846 0.524 -0.102 33 33 35 0 0
2.0774 3.7079 1.1696 0.817 0.555 -0.155 26 26 28 0 0
2.0692 3.6910 1.1758 0.656 -0.525 -0.542 18 18 20 0 0
1.5783 2.8393 1.5194 0.978 0.167 0.123 62 61 67 0 0
1.5589 2.8970 1.5303 0.817 0.242 -0.524 34 33 38 0 0
1.5492 2.8939 1.5505 0.958 -0.284 0.048 33 32 37 0 0
2.0683 3.5504 1.2494 0.391 0.356 0.849 33 33 35 0 0
2.0763 3.5387 1.2491 0.383 0.400 0.833 35 35 37 0 0
2.0583 3.7932 1.2319 0.194 0.911 -0.363 38 38 40 0 0
1.5538 2.8823 1.6001 0.914 0.160 0.372 34 33 38 0 0
1.9927 3.8168 1.2648 -0.155 0.422 -0.893 39 39 39 0 0
2.0533 3.7359 1.2604 0.585 0.508 -0.632 33 33 35 0 0
2.0808 3.8027 1.2513 0.041 0.807 -0.589 28 28 30 0 0
2.1269 3.7040 1.2557 0.934 0.288 -0.212 14 14 16 0 0
2.0197 3.8276 1.2826 0.142 0.895 -0.423 23 22 23 0 0
2.0867 3.7491 1.2753 0.350 0.062 -0.935 27 27 29 0 0
1.9607 3.2801 1.4195 0.295 0.531 -0.795 51 51 53 0 0
2.0210 3.8293 1.2966 0.395 0.912 0.113 29 27 30 0 0
2.0634 3.7998 1.2876 0.955 -0.274 0.116 36 36 38 0 0
2.0295 3.8047 1.3136 0.851 0.340 0.401 41 39 42 0 0
2.0342 3.7919 1.3146 0.851 0.340 0.401 43 43 45 0 0
2.1316 3.7659 1.2850 0.943 -0.265 0.200 41 41 43 0 0
2.1368 3.6250 1.3131 0.428 -0.567 -0.703 21 21 23 0 0
2.0909 3.4346 1.3703 0.702 -0.322 0.635 36 35 40 0 0
2.0728 3.4133 1.3813 0.723 -0.321 0.612 41 40 45 0 0
2.0260 3.8049 1.3297 0.714 0.665 0.219 46 44 47 0 0
2.0377 3.7943 1.3277 0.178 0.984 0.008 44 44 46 0 0
2.1377 3.7690 1.2969 0.817 -0.547 0.181 41 41 43 0 0
2.1112 3.7321 1.3144 0.871 -0.212 0.444 32 32 34 0 0
2.0979 3.6706 1.3323 0.937 0.267 0.225 23 23 25 0 0
2.1622 3.6491 1.3136 0.999 0.050 0.004 33 33 35 0 0
2.1582 3.6334 1.3184 0.954 -0.051 -0.294 34 34 36 0 0
2.1549 3.6180 1.3229 0.888 -0.237 -0.393 33 33 35 0 0
2.1082 3.7466 1.3271 0.871 -0.212 0.444 41 41 43 0 0
2.1651 3.6369 1.3299 0.977 0.055 -0.206 40 39 41 0 0
2.1634 3.6220 1.3337 0.840 -0.087 -0.536 40 38 41 0 0
2.0607 3.7897 1.3501 0.256 0.960 -0.111 39 39 41 0 0
2.0942 3.7433 1.3478 0.830 0.086 0.551 41 41 43 0 0
2.1679 3.6533 1.3402 0.962 0.255 0.100 39 39 39 0 0
2.1678 3.6389 1.3433 0.977 0.055 -0.206 40 38 41 0 0
2.1710 3.6257 1.3450 0.840 -0.087 -0.536 40 38 41 0 0
2.1690 3.6107 1.3489 0.475 -0.384 -0.792 37 35 38 0 0
2.1209 3.4633 1.3983 0.686 -0.725 0.061 35 35 35 0 0
2.0734 3.7950 1.3591 0.603 0.254 -0.756 36 36 38 0 0
2.0627 3.6624 1.3917 0.037 0.817 -0.575 28 28 30 0 0
2.1512 3.6488 1.3621 0.595 0.643 0.483 22 22 24 0 0
2.1617 3.6380 1.3605 0.622 0.641 0.449 21 20 22 0 0
2.1176 3.4485 1.4177 0.403 -0.830 -0.386 35 35 36 0 0
2.0888 3.8153 1.3639 0.458 -0.152 -0.876 36 36 38 0 0
2.0770 3.7974 1.3722 0.706 -0.283 -0.650 35 35 37 0 0
2.1083 3.6500 1.3925 0.008 1.000 -0.018 13 12 17 0 0
2.0620 3.8082 1.3902 0.475 -0.472 -0.743 36 36 38 0 0
2.0582 3.7927 1.3950 0.882 -0.472 0.006 33 33 35 0 0
2.1003 3.6484 1.4108 0.934 0.296 -0.201 12 12 14 0 0
2.0821 3.6580 1.4305 0.954 0.294 -0.053 11 11 13 0 0
2.0438 3.8479 1.4182 -0.116 0.789 -0.603 27 25 28 0 0
2.0983 3.8078 1.4066 0.051 0.016 -0.999 25 25 27 0 0
2.1340 3.6476 1.4282 0.231 0.934 0.274 11 11 13 0 0
2.0778 3.8026 1.4303 0.923 -0.381 0.057 38 38 40 0 0
2.1221 3.6448 1.4483 0.335 0.793 0.509 13 12 15 0 0
2.1130 3.7722 1.4387 0.413 -0.751 -0.515 40 40 44 0 0
2.1834 3.6235 1.4448 0.993 0.045 0.110 23 24 26 0 0
2.1720 3.5907 1.4563 0.938 -0.116 -0.327 30 30 32 0 0
2.1735 3.5768 1.4588 0.870 -0.215 -0.443 35 35 37 0 0
2.1414 3.4634 1.4960 0.822 -0.437 -0.365 49 48 52 0 0
2.1068 3.8427 1.4403 0.839 -0.385 0.383 45 45 47 0 0
2.0713 3.8031 1.4626 0.927 -0.258 0.273 43 43 45 0 0
2.1205 3.6610 1.4753 0.569 0.822 -0.021 29 27 30 0 0
2.1747 3.6072 1.4666 0.544 0.371 -0.752 35 36 38 0 0
2.0635 3.8449 1.4713 0.063 0.932 -0.357 45 45 47 0 0
2.0747 3.8340 1.4695 0.059 0.987 -0.148 44 44 46 0 0
2.0772 3.7489 1.4874 0.795 -0.069 0.602 40 40 42 0 0
2.1000 3.6698 1.4962 0.551 0.624 -0.554 36 34 37 0 0
2.1549 3.4997 1.5130 0.852 0.110 0.512 32 32 34 0 0
2.1788 3.4937 1.5052 0.338 0.893 -0.297 32 32 34 0 0
2.1224 3.6640 1.5040 -0.087 0.823 -0.561 29 29 31 0 0
2.1831 3.6555 1.4826 0.936 -0.265 -0.233 24 24 26 0 0
2.1681 3.6516 1.5042 0.913 -0.050 0.405 11 11 13 0 0
1.7574 3.9030 1.6221 0.062 0.830 -0.554 32 31 37 0 0
2.1364 3.7142 1.5175 0.953 0.244 0.180 18 18 20 0 0
2.2059 3.6655 1.5015 0.614 -0.357 -0.704 11 11 13 0 0
1.7731 3.9089 1.6302 -0.016 0.683 -0.730 35 35 38 0 0
2.1197 3.7100 1.5400 0.962 -0.227 0.152 14 14 16 0 0
2.1811 3.6439 1.5309 0.313 0.294 -0.903 10 10 12 0 0
1.7512 3.9334 1.6488 0.225 0.793 -0.566 70 71 73 0 0
2.1439 3.7190 1.5436 0.829 -0.486 0.275 15 15 17 0 0
2.1971 3.6505 1.5382 0.947 0.225 0.227 10 10 12 0 0
2.1776 3.6295 1.5506 0.971 0.225 0.079 10 10 12 0 0
2.1783 3.6008 1.5568 0.800 -0.083 0.594 13 11 14 0 0
1.7978 3.9188 1.6494 0.152 0.936 -0.318 66 65 67 0 0
2.0839 3.8589 1.5505 0.045 0.975 0.216 26 25 28 0 0
2.1180 3.8564 1.5527 0.124 0.893 -0.433 38 37 42 0 0
2.0647 3.8113 1.5840 0.413 -0.749 -0.517 37 37 39 0 0
2.1226 3.7433 1.5766 -0.251 0.682 -0.687 35 34 39 0 0
2.1949 3.5506 1.5918 0.257 0.429 -0.866 41 43 42 0 0
2.0413 3.8628 1.5967 0.088 0.996 -0.008 46 46 48 0 0
2.0995 3.8520 1.5761 0.314 0.949 -0.002 44 44 47 0 0
2.0934 3.8358 1.5822 0.943 -0.322 -0.085 44 44 48 0 0
2.0796 3.8172 1.5919 0.950 -0.299 0.086 44 43 48 0 0
2.0978 3.8527 1.5917 0.273 0.958 -0.088 47 47 50 0 0
2.0925 3.8368 1.5975 0.968 -0.138 0.212 45 44 49 0 0
2.0843 3.8199 1.6046 0.977 0.178 0.113 45 44 49 0 0
2.1566 3.7996 1.5804 0.838 0.210 0.504 42 42 44 0 0
2.1017 3.8409 1.6080 0.644 0.596 0.479 47 46 51 0 0
2.2074 3.6741 1.6039 0.784 -0.215 -0.582 39 40 43 0 0
2.2015 3.6433 1.6134 0.904 -0.276 -0.325 41 41 43 0 0
2.1983 3.6277 1.6183 0.969 -0.247 -0.012 42 41 44 0 0
2.1689 3.4418 1.6727 0.440 0.541 0.716 17 17 19 0 0
2.1808 3.4314 1.6703 0.763 -0.026 -0.646 16 16 18 0 0
2.0670 3.8602 1.6327 0.154 0.986 -0.070 48 48 50 0 0
2.0912 3.8390 1.6278 0.637 0.630 0.445 43 43 47 0 0
2.0938 3.8254 1.6299 0.661 0.601 0.448 44 43 47 0 0
2.2125 3.6913 1.6130 0.670 0.503 -0.546 36 36 41 0 0
2.2237 3.6807 1.6110 0.468 -0.048 -0.882 34 34 37 0 0
2.2122 3.6481 1.6231 0.870 -0.280 0.406 32 32 34 0 0
2.1901 3.5825 1.6471 0.833 0.110 0.542 18 17 21 0 0
2.1983 3.4536 1.6735 0.838 -0.285 -0.466 16 16 18 0 0
2.1955 3.4378 1.6782 0.838 -0.285 -0.466 16 16 18 0 0
1.9086 3.9010 1.7025 -0.056 0.838 -0.543 55 55 57 0 0
2.2103 3.6630 1.6355 0.851 -0.297 0.433 12 12 14 0 0
2.1997 3.6449 1.6440 0.851 -0.297 0.433 13 13 15 0 0
2.2124 3.4451 1.6850 0.637 -0.298 -0.711 18 18 20 0 0
1.7616 3.9480 1.7668 0.134 0.600 -0.788 59 59 61 0 0
2.0269 3.8795 1.6749 0.062 0.883 -0.465 42 42 44 0 0
2.2301 3.6564 1.6441 0.514 -0.561 -0.649 11 11 13 0 0
2.2262 3.6994 1.6508 0.421 0.439 -0.794 12 12 14 0 0
2.2239 3.6843 1.6553 0.686 0.126 -0.717 12 12 14 0 0
2.2244 3.6556 1.6617 0.413 -0.276 -0.868 11 11 13 0 0
1.9929 3.9009 1.7145 0.254 0.879 -0.404 28 28 30 0 0
2.0187 3.8941 1.7056 0.243 0.892 -0.382 24 24 26 0 0
2.0391 3.8858 1.6991 0.243 0.892 -0.382 27 26 29 0 0
2.2287 3.7014 1.6644 0.364 0.734 -0.573 16 16 19 0 0
2.2387 3.6904 1.6630 0.652 0.428 -0.626 14 14 16 0 0
2.0007 3.9046 1.7259 0.328 0.944 0.013 41 41 43 0 0
2.0227 3.8967 1.7187 0.355 0.933 -0.049 33 33 35 0 0
2.1594 3.6940 1.7099 0.128 0.499 -0.857 30 30 32 0 0
2.1938 3.7066 1.7080 0.864 0.323 0.386 24 24 26 0 0
2.1974 3.6933 1.7096 0.991 -0.103 0.082 17 17 19 0 0
2.2007 3.5636 1.7387 0.809 -0.533 0.248 30 30 32 0 0
2.1952 3.3546 1.7901 0.691 -0.608 -0.391 15 15 17 0 0
2.1834 3.3351 1.7995 0.691 -0.608 -0.391 17 16 18 0 0
2.1859 3.7052 1.7268 0.864 0.323 0.386 21 21 23 0 0
2.1890 3.5606 1.7596 0.805 -0.491 0.334 20 20 22 0 0
2.1729 3.7598 1.7346 0.730 0.072 0.679 29 29 31 0 0
2.1564 3.6966 1.7564 0.620 0.465 0.632 34 34 36 0 0
2.2382 3.6516 1.7329 0.944 0.013 0.331 34 33 36 0 0
2.2320 3.6205 1.7428 0.940 -0.307 0.152 23 23 25 0 0
2.2235 3.6030 1.7505 0.900 -0.391 0.192 19 19 21 0 0
2.2122 3.5845 1.7597 0.913 -0.185 0.364 16 16 18 0 0
2.2062 3.5678 1.7661 0.913 -0.185 0.364 16 16 18 0 0
2.2078 3.4209 1.8001 0.272 -0.659 -0.701 14 14 16 0 0
2.1962 3.3569 1.8201 0.965 -0.252 -0.071 17 15 18 0 0
2.1550 3.7841 1.7516 0.687 -0.114 0.718 42 42 45 0 0
2.2230 3.6039 1.7658 0.929 -0.127 0.348 13 13 15 0 0
2.2481 3.4516 1.7915 0.189 -0.398 -0.898 13 13 15 0 0
2.2435 3.4204 1.8008 0.647 -0.757 -0.094 14 14 16 0 0
2.1977 3.3585 1.8347 0.965 -0.252 -0.071 25 23 26 0 0
2.1277 3.7912 1.7767 0.660 -0.197 0.725 46 46 48 0 0
1.6923 4.0014 1.9259 0.153 0.574 -0.804 68 69 71 0 0
1.7513 3.9880 1.9042 -0.094 0.408 -0.908 72 73 74 0 0
1.7657 3.9624 1.9042 0.074 0.379 -0.922 60 60 65 0 0
2.1319 3.8657 1.7725 0.150 0.641 -0.753 31 30 35 0 0
2.2230 3.8368 1.7409 0.797 -0.590 0.125 37 36 40 0 0
2.1919 3.8127 1.7598 0.823 -0.497 0.276 36 36 38 0 0
2.2215 3.5764 1.8037 0.857 0.239 0.457 12 12 14 0 0
2.2129 3.5588 1.8116 0.928 0.012 0.372 11 11 13 0 0
2.1721 3.5148 1.8393 0.804 -0.471 -0.362 11 11 13 0 0
1.8207 3.9499 1.8998 0.168 0.945 -0.281 57 58 62 0 0
2.1365 3.8828 1.7818 0.089 0.982 -0.169 43 42 47 0 0
2.1470 3.8716 1.7800 0.314 0.945 -0.087 36 35 40 0 0
2.2126 3.8348 1.7609 0.728 -0.670 -0.147 35 34 38 0 0
2.1908 3.6254 1.8204 -0.141 0.930 -0.340 10 10 12 0 0
2.2160 3.6195 1.8111 -0.133 0.805 -0.578 11 11 13 0 0
2.2039 3.5714 1.8278 0.916 -0.346 -0.205 11 11 13 0 0
1.8804 3.9389 1.8928 0.146 0.771 -0.619 54 54 56 0 0
2.0973 3.8866 1.8129 0.166 0.985 0.050 40 39 44 0 0
2.1526 3.8603 1.7956 0.769 0.448 -0.456 35 34 39 0 0
2.2102 3.8353 1.7771 0.714 -0.661 -0.231 34 33 37 0 0
2.1946 3.8161 1.7884 0.459 -0.733 -0.503 33 33 35 0 0
2.1932 3.6274 1.8343 -0.246 0.751 -0.613 11 11 13 0 0
2.1675 3.6039 1.8509 0.280 0.753 -0.596 11 11 13 0 0
2.1505 3.2840 1.9351 0.974 0.198 0.108 37 37 39 0 0
2.1423 3.2656 1.9430 0.822 0.396 0.410 40 40 42 0 0
2.1404 3.2496 1.9476 0.870 -0.103 0.482 44 44 47 0 0
1.7050 4.0095 1.9667 -0.051 0.933 -0.357 51 49 54 0 0
2.2028 3.8342 1.7958 0.795 -0.600 -0.090 31 30 34 0 0
2.1387 3.6247 1.8737 -0.347 0.261 -0.901 13 13 17 0 0
2.1772 3.6084 1.8611 0.280 0.753 -0.596 13 13 16 0 0
2.2160 3.4894 1.8732 0.817 -0.316 -0.482 42 41 46 0 0
2.2133 3.4737 1.8782 0.820 -0.251 -0.514 46 45 50 0 0
2.2121 3.4584 1.8824 0.813 -0.230 -0.535 50 49 53 0 0
2.1805 3.3419 1.9240 0.852 -0.521 0.050 29 29 31 0 0
2.1656 3.3211 1.9354 0.875 -0.479 0.076 31 31 33 0 0
2.1906 3.3156 1.9260 0.617 -0.135 -0.775 34 34 36 0 0
2.1660 3.2909 1.9425 0.794 0.607 0.037 36 36 38 0 0
1.3972 2.4785 2.4678 0.388 -0.864 -0.320 156 156 158 0 0
2.0203 3.8951 1.8748 0.065 0.585 -0.808 44 45 47 0 0
2.1631 3.8661 1.8204 0.447 0.826 -0.343 40 39 44 0 0
2.1643 3.8522 1.8232 0.823 -0.114 -0.556 35 34 39 0 0
2.2115 3.6213 1.8588 0.270 0.954 -0.130 26 25 31 0 0
2.2214 3.4777 1.8893 0.888 -0.220 -0.404 49 48 53 0 0
2.2003 3.3654 1.9255 0.825 0.543 -0.159 25 25 27 0 0
2.1996 3.3501 1.9295 0.982 0.179 -0.060 26 26 28 0 0
2.2037 3.3366 1.9310 0.479 -0.145 -0.866 28 28 30 0 0
2.2083 3.3233 1.9323 0.467 0.097 -0.879 30 30 32 0 0
1.4421 2.4995 2.4613 0.378 -0.877 -0.298 126 126 128 0 0
2.2219 3.6260 1.8686 0.266 0.889 0.373 41 40 45 0 0
2.2332 3.4682 1.9020 0.793 -0.018 -0.608 47 46 51 0 0
2.1956 3.4096 1.9325 0.885 -0.217 0.411 28 27 32 0 0
2.1873 3.3915 1.9405 0.865 -0.267 0.425 25 24 29 0 0
2.2071 3.3840 1.9338 0.998 0.061 -0.012 25 25 28 0 0
2.2208 3.3741 1.9302 0.664 0.684 -0.302 27 27 29 0 0
2.2073 3.3540 1.9409 0.681 0.340 -0.649 27 27 29 0 0
2.2208 3.6414 1.8808 0.124 0.991 0.052 43 43 45 0 0
2.2410 3.5606 1.8917 0.973 -0.018 -0.230 47 46 51 0 0
2.2405 3.4867 1.9099 0.829 -0.161 -0.535 41 40 45 0 0
2.1999 3.4123 1.9456 0.993 -0.119 0.010 26 25 30 0 0
2.2331 3.4097 1.9319 0.258 0.029 -0.966 28 27 32 0 0
2.2190 3.3894 1.9429 0.695 -0.142 -0.704 29 28 32 0 0
2.2296 3.6163 1.8985 0.787 0.426 -0.446 47 47 48 0 0
2.2377 3.6045 1.8979 0.768 0.535 -0.353 47 47 49 0 0
2.2474 3.5639 1.9036 0.995 0.035 -0.094 46 45 50 0 0
2.2427 3.5476 1.9096 0.990 0.098 -0.098 45 45 47 0 0
2.2744 3.7486 1.8620 0.060 0.964 -0.259 47 46 51 0 0
2.2172 3.6717 1.9059 0.829 0.426 -0.361 47 47 50 0 0
2.2200 3.6580 1.9080 0.877 0.266 -0.400 47 47 49 0 0
2.2430 3.6075 1.9103 0.815 0.561 0.145 47 47 49 0 0
2.2512 3.5957 1.9096 0.815 0.561 0.145 45 45 47 0 0
2.2478 3.5652 1.9186 0.998 0.069 0.004 38 37 41 0 0
2.2440 3.5491 1.9242 0.990 0.098 -0.098 35 35 37 0 0
2.2463 3.5352 1.9266 0.812 0.115 -0.572 28 28 30 0 0
2.2459 3.5803 1.9312 0.788 0.560 -0.256 34 33 37 0 0
2.2538 3.5390 1.9379 0.812 0.115 -0.572 17 17 19 0 0
2.2662 3.7483 1.8963 0.104 0.834 -0.542 46 45 50 0 0
2.2363 3.6221 1.9407 0.556 0.466 -0.689 27 26 31 0 0
2.2420 3.5947 1.9449 0.691 0.711 -0.128 32 32 34 0 0
2.2498 3.5828 1.9444 0.739 0.583 -0.338 22 21 25 0 0
2.2488 3.5677 1.9486 0.977 0.212 0.010 16 16 20 0 0
2.2435 3.5511 1.9550 0.978 0.097 0.186 15 15 17 0 0
2.2177 3.4826 1.9833 -0.116 0.703 -0.702 15 15 17 0 0
1.6298 4.0465 2.1202 -0.063 0.979 -0.192 59 58 63 0 0
1.7159 4.0247 2.0874 0.638 0.599 0.484 35 35 38 0 0
2.2744 3.7522 1.9071 0.185 0.898 -0.398 35 35 37 0 0
2.2456 3.6264 1.9510 0.556 0.466 -0.689 19 19 21 0 0
2.2450 3.6115 1.9550 0.558 0.580 -0.593 19 17 22 0 0
2.2431 3.5962 1.9596 0.691 0.711 -0.128 17 15 20 0 0
2.2539 3.5853 1.9575 0.739 0.583 -0.338 15 13 18 0 0
2.2537 3.6157 1.9656 0.726 0.512 -0.459 15 14 18 0 0
2.2570 3.6022 1.9675 0.425 0.816 -0.392 14 12 17 0 0
2.2692 3.5918 1.9646 0.237 0.873 -0.426 13 11 16 0 0
2.0969 3.9025 1.9955 0.160 0.956 -0.247 29 29 31 0 0
2.1549 3.8622 1.9795 0.750 0.397 -0.529 28 28 30 0 0
2.2349 3.7718 1.9662 0.930 -0.243 -0.276 29 29 31 0 0
1.9592 3.9361 2.0649 0.212 0.752 -0.624 25 25 27 0 0
2.0471 3.9035 2.0334 0.160 0.732 -0.662 28 28 30 0 0
2.1659 3.8669 1.9889 0.781 0.550 -0.296 28 28 30 0 0
2.2390 3.7888 1.9756 0.952 0.254 -0.169 28 28 30 0 0
2.2428 3.7756 1.9772 0.952 0.254 -0.169 28 28 30 0 0
2.1991 3.7469 2.0041 0.502 -0.524 -0.688 27 27 29 0 0
2.1934 3.7305 2.0108 0.513 -0.850 -0.119 25 25 27 0 0
2.2180 3.6948 2.0086 0.611 -0.507 -0.608 19 19 21 0 0
2.2572 3.6933 1.9913 0.073 0.540 -0.838 16 16 18 0 0
1.9474 3.9488 2.0829 0.257 0.728 -0.635 37 37 40 0 0
1.9874 3.9457 2.0656 0.373 0.890 -0.262 31 31 33 0 0
2.0075 3.9370 2.0587 0.436 0.894 -0.102 25 25 27 0 0
2.0664 3.9106 2.0386 0.255 0.948 -0.189 27 27 29 0 0
2.2073 3.7362 2.0186 0.030 0.053 -0.998 24 24 26 0 0
2.2305 3.7001 2.0172 0.660 -0.473 -0.584 19 19 21 0 0
2.2744 3.7002 1.9973 0.073 0.540 -0.838 18 18 20 0 0
1.9642 3.9551 2.0896 0.361 0.932 -0.024 46 45 50 0 0
1.9878 3.9472 2.0809 0.412 0.909 -0.068 42 42 44 0 0
2.0044 3.9375 2.0758 0.452 0.890 0.057 36 36 38 0 0
2.2045 3.7511 2.0318 -0.112 0.145 -0.983 25 25 27 0 0
2.2362 3.7469 2.0184 0.518 0.704 -0.486 26 26 28 0 0
2.2393 3.7043 2.0278 0.814 -0.423 -0.399 33 33 35 0 0
2.0775 3.1144 2.2502 0.438 -0.510 -0.740 48 48 50 0 0
2.0509 3.0878 2.2690 0.053 0.558 -0.828 53 53 55 0 0
1.9624 3.9560 2.1062 0.423 0.906 0.028 55 55 58 0 0
1.9853 3.9479 2.0978 0.414 0.910 0.022 51 50 55 0 0
2.0018 3.9381 2.0927 0.409 0.908 0.087 48 47 52 0 0
2.1754 3.8737 2.0297 0.782 0.206 -0.589 39 38 42 0 0
2.2433 3.7504 2.0299 0.437 0.885 -0.159 39 38 42 0 0
2.2095 3.7248 2.0518 0.632 -0.775 0.017 40 39 44 0 0
2.2469 3.7079 2.0390 0.782 -0.372 -0.500 38 38 40 0 0
2.2453 3.6782 2.0472 0.404 -0.890 -0.211 36 36 38 0 0
2.1856 3.8782 2.0395 0.659 0.468 -0.589 45 44 49 0 0
1.9367 3.9662 2.1474 0.272 0.953 -0.136 42 41 47 0 0
1.9587 3.9578 2.1394 0.517 0.856 -0.002 44 43 48 0 0
1.9755 3.9479 2.1342 0.557 0.821 -0.121 46 45 50 0 0
2.0136 3.9297 2.1213 0.505 0.822 0.262 50 49 54 0 0
2.1257 3.9192 2.0723 0.205 0.963 -0.173 48 47 52 0 0
2.1668 3.9026 2.0576 0.386 0.912 -0.138 48 47 52 0 0
2.1815 3.8927 2.0533 0.552 0.712 -0.435 48 47 52 0 0
2.1698 3.8746 2.0633 0.879 0.471 0.081 48 47 52 0 0
2.2438 3.7530 2.0602 0.567 0.824 -0.025 44 43 48 0 0
2.2699 3.7470 2.0497 0.818 -0.321 -0.478 42 41 46 0 0
1.9733 3.9634 2.1472 0.138 0.923 -0.360 40 39 44 0 0
1.9973 3.9557 2.1381 0.301 0.905 -0.301 41 40 45 0 0
2.1549 3.8859 2.0830 0.785 0.596 0.171 48 47 52 0 0
2.1653 3.8746 2.0811 0.799 0.543 0.259 48 47 52 0 0
2.1886 3.7655 2.0982 0.679 0.622 0.391 44 43 48 0 0
1.9691 3.9636 2.1651 0.236 0.953 -0.189 41 40 45 0 0
2.0042 3.9591 2.1500 0.122 0.908 -0.401 41 40 45 0 0
2.0288 3.9516 2.1405 0.122 0.908 -0.401 41 40 45 0 0
2.2290 3.5889 2.1404 0.808 0.569 0.154 43 42 47 0 0
2.0847 3.9402 2.1333 0.519 0.832 -0.193 42 41 46 0 0
2.0963 3.9290 2.1307 0.630 0.714 -0.305 43 42 47 0 0
2.1137 3.9197 2.1250 0.883 0.469 0.017 44 43 48 0 0
2.0588 3.9339 2.1629 0.119 0.993 0.020 44 43 48 0 0
2.1357 3.8549 2.1472 0.892 0.389 -0.229 42 41 46 0 0
2.1665 3.8498 2.1341 0.353 0.926 -0.133 43 42 47 0 0
2.0570 3.9348 2.1794 0.069 0.994 -0.087 46 45 50 0 0
2.1025 3.9336 2.1583 0.656 0.637 0.406 43 42 47 0 0
2.1171 3.9234 2.1541 0.598 0.744 0.300 40 39 44 0 0
2.1323 3.8552 2.1646 0.754 0.616 0.227 42 41 46 0 0
2.1184 3.8522 2.1878 0.946 0.261 0.194 44 43 48 0 0
2.1493 3.8471 2.1745 0.688 0.709 0.155 44 44 48 0 0
2.0640 3.9250 2.2106 0.381 0.924 0.014 44 43 48 0 0
2.0671 3.9113 2.2127 0.525 -0.123 -0.842 42 41 46 0 0
2.0791 3.9002 2.2099 0.685 0.687 -0.243 41 40 45 0 0
2.0723 3.8835 2.2174 0.427 0.834 -0.350 42 41 46 0 0
2.0878 3.8735 2.2127 0.427 0.834 -0.350 44 43 48 0 0
2.1277 3.8710 2.1944 0.694 0.716 0.074 45 44 49 0 0
2.1351 3.8586 2.1941 0.766 0.635 0.098 46 45 50 0 0
2.1449 3.8471 2.1925 0.766 0.635 0.098 47 46 50 0 0
2.1292 3.8275 2.2050 0.769 0.406 -0.494 46 46 48 0 0
2.0893 3.8900 2.2237 0.658 0.230 -0.717 40 39 44 0 0
2.0857 3.8742 2.2295 0.354 0.734 -0.580 41 40 45 0 0
2.2347 3.6421 2.2192 0.777 0.609 -0.159 38 37 42 0 0
2.2312 3.6261 2.2250 0.820 -0.498 -0.282 37 37 40 0 0
2.2426 3.6152 2.2224 0.985 0.040 0.170 37 37 39 0 0
2.1063 3.8818 2.2337 0.726 0.014 -0.688 41 40 45 0 0
2.1099 3.8682 2.2355 0.169 0.882 -0.440 45 44 49 0 0
2.1296 3.8596 2.2284 0.213 0.863 -0.459 46 46 48 0 0
2.2037 3.6772 2.2407 0.541 0.674 0.504 43 42 47 0 0
2.2518 3.6344 2.2289 0.719 0.563 0.408 39 38 43 0 0
2.0946 3.8796 2.2559 0.906 0.421 -0.033 26 26 28 0 0
2.1175 3.8719 2.2469 0.272 0.955 0.115 45 45 47 0 0
2.2304 3.6430 2.2528 0.534 0.737 0.415 42 42 47 0 0
2.2301 3.5983 2.2647 0.846 -0.087 0.526 43 42 47 0 0
2.0851 3.8781 2.2769 0.887 0.233 0.398 18 18 20 0 0
2.1687 3.7569 2.2685 0.641 0.766 0.047 41 42 44 0 0
2.1915 3.7200 2.2673 0.946 -0.057 0.319 42 43 47 0 0
2.0762 3.8364 2.3568 -0.208 0.711 -0.672 31 31 33 0 0
2.0515 3.8140 2.3749 -0.103 0.672 -0.733 29 29 31 0 0
2.0089 3.9093 2.4193 0.577 0.527 0.624 40 39 44 0 0
2.0343 3.9020 2.4086 0.293 0.730 -0.618 41 40 45 0 0
2.0424 3.8896 2.4080 0.280 0.323 -0.904 43 43 45 0 0
1.6015 2.5625 3.0020 0.606 -0.637 -0.477 71 72 72 0 0
2.0507 3.8665 2.4591 0.427 0.852 0.303 47 46 50 0 0
2.0515 3.8519 2.4627 0.743 0.617 0.259 46 45 49 0 0
2.0507 3.8679 2.4751 0.269 0.958 -0.097 38 38 40 0 0
2.0651 3.8573 2.4708 0.563 0.631 -0.534 39 39 42 0 0
2.0759 3.8457 2.4685 0.563 0.631 -0.534 38 37 42 0 0
2.0617 3.8725 2.4847 0.770 0.520 0.370 26 26 28 0 0
2.0685 3.8597 2.4848 0.894 0.231 0.383 23 23 27 0 0
2.0661 3.8604 2.5022 0.950 0.273 0.154 29 28 32 0 0
2.0728 3.8475 2.5024 0.828 0.485 0.281 24 23 28 0 0
2.0888 3.8713 2.5369 0.815 0.324 -0.480 49 48 53 0 0
2.0900 3.8879 2.5481 0.330 0.287 -0.899 49 48 53 0 0
2.0939 3.8743 2.5499 0.468 0.068 -0.881 47 46 51 0 0
1.5530 2.6416 3.3012 0.699 -0.532 -0.478 43 42 48 0 0
2.2473 4.0274 2.6548 0.952 0.283 0.113 41 40 47 0 0
2.2495 4.0134 2.6577 0.729 -0.628 0.273 43 42 48 0 0
2.2554 4.0456 2.6615 0.956 0.148 -0.254 34 33 41 0 0
2.2523 4.0302 2.6676 0.909 0.348 -0.229 37 36 44 0 0
2.2587 4.0480 2.6753 0.956 0.148 -0.254 31 30 36 0 0
2.2612 4.0342 2.6779 0.800 0.518 -0.304 33 32 39 0 0
2.2626 4.0505 2.6888 0.782 0.088 -0.617 30 29 35 0 0
2.2793 4.0581 2.7100 0.306 0.708 -0.637 35 34 39 0 0
2.2803 4.0294 2.7180 0.545 0.148 -0.825 35 34 40 0 0
2.2745 4.0727 2.7248 0.345 0.728 -0.592 38 37 42 0 0
2.2893 4.0624 2.7196 0.306 0.708 -0.637 38 37 42 0 0
2.2850 4.0785 2.7500 0.906 -0.192 0.377 42 41 46 0 0
2.2702 4.0598 2.7638 0.980 -0.011 0.198 42 41 46 0 0
2.2847 4.0494 2.7588 0.862 -0.029 -0.507 44 43 48 0 0
2.2862 4.0353 2.7621 0.862 -0.029 -0.507 44 43 48 0 0
2.2854 4.0801 2.7657 0.884 -0.455 0.105 45 44 49 0 0
2.2700 4.0466 2.7844 0.914 0.384 0.130 46 45 50 0 0
2.2613 4.0893 2.7930 0.021 0.989 -0.146 47 46 51 0 0
2.2890 4.0825 2.7794 0.885 -0.438 -0.159 46 45 50 0 0
2.2737 4.0637 2.7937 0.915 0.158 -0.370 46 45 50 0 0
2.2725 4.0487 2.7988 0.837 0.467 -0.285 48 47 52 0 0
2.3004 4.0422 2.7850 0.029 0.967 -0.253 46 45 50 0 0
2.2495 4.0874 2.8168 0.855 -0.495 -0.153 49 48 53 0 0
2.2583 4.0753 2.8154 0.787 0.182 -0.590 49 48 53 0 0
2.3011 4.0147 2.8093 0.238 0.349 -0.907 44 43 48 0 0
2.1823 3.1277 3.1414 -0.072 -0.194 -0.978 56 56 58 0 0
2.1880 3.1139 3.1423 0.005 -0.319 -0.948 58 58 60 0 0
2.0600 4.1844 2.9120 0.126 0.963 -0.237 58 58 60 0 0
2.2785 4.0533 2.8271 0.820 0.409 -0.401 51 50 55 0 0
2.2879 4.0414 2.8253 0.131 0.922 -0.364 48 47 52 0 0
2.3216 4.0220 2.8119 0.178 0.407 -0.896 45 44 49 0 0
2.2580 3.9888 2.8580 0.894 -0.300 -0.334 45 44 49 0 0
2.2430 4.0446 2.8665 0.246 0.932 0.266 51 50 55 0 0
2.2634 4.0358 2.8575 0.369 0.846 0.384 48 47 52 0 0
2.2635 3.9918 2.8707 0.940 -0.246 -0.238 46 45 50 0 0
2.2726 3.9839 2.9178 0.943 0.229 0.242 46 45 49 0 0
2.4627 3.7928 2.8661 0.736 0.065 -0.674 45 46 50 0 0
2.3778 3.8846 2.9038 0.832 -0.531 -0.159 45 44 49 0 0
2.3892 3.8895 2.9123 0.077 0.777 -0.625 41 40 45 0 0
2.3336 4.0598 3.0260 0.615 -0.740 -0.272 40 40 42 0 0
2.4075 3.9791 3.0070 0.776 -0.234 -0.586 36 35 40 0 0
2.3626 4.1950 3.2518 -0.195 -0.015 -0.981 41 41 43 0 0
2.3324 4.1723 3.2784 0.642 -0.145 -0.753 41 41 43 0 0
2.3706 4.2293 3.2695 0.190 0.496 -0.847 42 42 44 0 0
2.3826 4.2180 3.2655 0.190 0.496 -0.847 40 40 42 0 0
2.3007 4.1977 3.3417 0.226 0.863 0.452 41 41 43 0 0
2.4894 4.0350 3.3254 0.961 -0.256 0.105 39 38 44 0 0
2.5343 4.0205 3.3181 0.801 -0.084 0.592 38 37 42 0 0
2.4974 4.0548 3.3476 0.930 -0.275 0.246 38 38 40 0 0
2.4714 4.0176 3.3770 0.755 -0.655 -0.031 37 36 41 0 0
2.5061 4.0133 3.3558 0.804 -0.051 0.592 38 37 42 0 0
2.4993 3.9966 3.3659 0.808 -0.031 0.589 40 39 44 0 0
