ply
format ascii 1.0
element vertex 326
property float x
property float y
property float z
property float nx
property float ny
property float nz
property uchar diffuse_red
property uchar diffuse_green
property uchar diffuse_blue
property uchar class
property uchar detection
end_header
1.4337 3.3144 -0.0506 0.789 0.223 -0.573 33 32 35 0 0
1.2226 3.5001 0.0877 -0.185 0.896 -0.402 59 59 62 0 0
1.4364 2.9675 0.1267 0.747 -0.632 0.205 35 35 37 0 0
1.2203 3.5164 0.1140 -0.276 0.795 -0.539 38 37 43 0 0
1.3069 3.5247 0.1097 -0.088 0.893 -0.441 45 45 47 0 0
1.6104 3.4245 0.0921 0.513 0.097 -0.853 52 52 54 0 0
1.6542 3.4180 0.1254 0.854 0.387 -0.349 21 19 24 0 0
1.6580 3.4049 0.1267 0.757 0.458 -0.466 14 12 17 0 0
1.6636 3.3927 0.1275 0.586 0.285 -0.759 12 10 14 0 0
1.6317 3.1507 0.1722 0.204 0.288 -0.936 30 30 32 0 0
1.6645 3.4088 0.1385 0.767 0.439 -0.467 32 30 33 0 0
1.6751 3.3990 0.1378 0.720 0.584 -0.374 20 18 21 0 0
1.5181 3.0494 0.2688 0.682 -0.708 -0.184 42 42 44 0 0
1.7101 3.4633 0.1750 0.705 -0.164 -0.690 20 16 22 0 0
1.4806 3.0000 0.3136 0.642 -0.428 -0.636 33 33 35 0 0
1.4943 3.0077 0.3238 0.688 -0.336 -0.643 33 33 35 0 0
1.6586 3.5452 0.2140 -0.026 0.878 -0.479 19 17 20 0 0
1.7373 3.4933 0.2053 0.833 0.540 -0.119 47 47 51 0 0
1.6213 3.1204 0.2919 0.359 -0.663 -0.657 28 26 29 0 0
1.5836 3.6008 0.2351 0.717 0.671 0.187 20 19 25 0 0
1.5892 3.5885 0.2359 0.437 0.696 -0.570 17 16 21 0 0
1.7399 3.5101 0.2157 0.638 0.295 -0.711 54 56 56 0 0
1.7363 3.4790 0.2216 0.658 0.535 -0.530 56 57 60 0 0
1.6569 3.1393 0.2952 0.510 -0.693 -0.509 21 19 22 0 0
1.5769 3.5988 0.2508 0.621 0.768 0.158 25 24 29 0 0
1.7462 3.5431 0.2225 0.279 0.648 -0.709 44 45 47 0 0
1.7468 3.5288 0.2247 0.688 0.288 -0.666 42 43 45 0 0
1.7470 3.5142 0.2271 0.883 0.123 -0.453 34 35 37 0 0
1.7413 3.4969 0.2312 0.928 0.176 -0.327 38 39 41 0 0
1.7425 3.4828 0.2333 0.837 0.547 0.027 45 48 49 0 0
1.5814 3.6018 0.2632 0.348 0.923 -0.164 36 35 39 0 0
1.7395 3.5555 0.2356 0.379 0.632 -0.676 41 41 43 0 0
1.7633 3.5227 0.2358 0.608 0.170 -0.776 22 22 24 0 0
1.7647 3.4793 0.2427 0.848 0.254 -0.464 19 20 22 0 0
1.7636 3.5529 0.2443 0.623 0.299 -0.723 31 31 33 0 0
1.7674 3.4815 0.2554 0.784 0.140 -0.605 12 12 14 0 0
1.7728 3.4693 0.2562 0.871 0.031 -0.491 12 12 14 0 0
1.7710 3.5572 0.2556 0.628 0.459 -0.628 24 22 28 0 0
1.7797 3.5621 0.2665 0.624 0.552 -0.553 33 32 35 0 0
1.7829 3.5489 0.2680 0.890 0.340 -0.305 42 42 44 0 0
1.7827 3.5343 0.2705 0.936 0.192 -0.295 44 44 45 0 0
1.7780 3.5622 0.2805 0.582 0.757 -0.297 43 42 44 0 0
1.7844 3.5506 0.2810 0.787 0.533 -0.313 60 60 60 0 0
1.7870 3.5372 0.2827 0.946 0.307 -0.105 70 71 70 0 0
1.7906 3.5543 0.2927 0.771 0.563 -0.297 55 57 56 0 0
1.7975 3.5584 0.3041 0.703 0.601 -0.379 45 45 48 0 0
1.7972 3.5436 0.3067 0.857 0.198 -0.476 50 50 53 0 0
1.7948 3.5580 0.3185 0.574 0.729 -0.372 35 34 40 0 0
1.4427 3.6833 0.3936 -0.147 0.949 -0.277 33 34 38 0 0
1.8358 3.5642 0.3352 0.631 0.381 -0.676 23 22 25 0 0
1.7589 3.6028 0.3605 -0.090 0.784 -0.614 21 21 23 0 0
1.8369 3.5801 0.3459 0.623 0.380 -0.684 24 24 26 0 0
1.8448 3.5692 0.3459 0.715 0.397 -0.576 22 21 24 0 0
1.4692 3.6977 0.4273 -0.163 0.963 -0.216 50 51 51 0 0
1.7995 3.6075 0.3638 0.067 0.840 -0.538 28 26 29 0 0
1.8583 3.5908 0.3525 0.742 0.596 -0.308 40 38 41 0 0
1.8614 3.5777 0.3541 0.920 0.360 -0.157 33 30 34 0 0
1.8566 3.5610 0.3582 0.683 0.627 -0.374 28 25 30 0 0
1.5925 3.0372 0.5138 0.862 0.454 -0.226 37 36 42 0 0
1.4755 3.7015 0.4393 -0.163 0.963 -0.216 55 55 56 0 0
1.7999 3.6231 0.3747 0.168 0.921 -0.350 35 33 36 0 0
1.8204 3.6179 0.3706 0.168 0.921 -0.350 45 42 45 0 0
1.8669 3.5521 0.3710 0.877 0.334 -0.344 35 33 36 0 0
1.8558 3.5177 0.3798 0.557 -0.098 -0.825 16 14 17 0 0
1.4000 3.7007 0.4721 -0.105 0.960 -0.259 62 62 64 0 0
1.4265 3.6969 0.4663 -0.131 0.949 -0.286 56 56 58 0 0
1.8784 3.5438 0.3834 0.609 0.671 -0.423 36 34 37 0 0
1.8649 3.5974 0.4046 0.871 0.277 -0.406 31 31 33 0 0
1.9474 3.4907 0.4034 0.831 0.495 -0.253 33 33 35 0 0
1.6245 3.0566 0.5608 0.604 0.793 0.076 35 35 37 0 0
1.8662 3.5989 0.4177 0.912 0.224 -0.343 22 22 24 0 0
1.6211 3.0555 0.5764 0.543 0.839 0.026 34 34 38 0 0
1.8609 3.5097 0.4490 0.189 0.110 -0.976 26 25 30 0 0
1.6218 3.0565 0.5906 0.622 0.782 -0.036 33 34 38 0 0
1.8731 3.6184 0.4400 0.854 0.405 -0.326 25 25 27 0 0
1.8452 3.3546 0.4949 0.816 -0.390 -0.426 44 44 46 0 0
1.4527 3.7294 0.5399 -0.241 0.965 -0.101 68 66 67 0 0
1.8867 3.6110 0.4517 0.851 0.086 -0.518 21 21 23 0 0
1.6156 3.0388 0.6247 0.950 -0.251 -0.183 35 36 41 0 0
1.4538 3.7310 0.5537 -0.249 0.931 -0.267 67 65 66 0 0
1.8794 3.6375 0.4625 0.441 0.691 -0.573 28 26 27 0 0
1.8893 3.6276 0.4618 0.832 0.372 -0.412 26 25 27 0 0
1.8959 3.6017 0.4648 0.909 0.302 -0.288 21 20 23 0 0
1.8609 3.6590 0.4770 0.365 0.915 -0.169 34 32 35 0 0
1.8860 3.6559 0.4712 0.914 0.344 -0.216 39 37 40 0 0
1.8925 3.6444 0.4716 0.983 0.105 -0.149 44 42 43 0 0
1.8942 3.6307 0.4737 0.983 0.105 -0.149 39 36 37 0 0
1.9004 3.6191 0.4743 0.865 0.291 -0.409 30 26 28 0 0
1.9034 3.6060 0.4759 0.560 0.614 -0.556 26 23 24 0 0
1.9101 3.5509 0.4843 0.193 0.637 -0.746 14 12 15 0 0
1.8365 3.6635 0.4963 -0.003 0.991 -0.133 33 33 35 0 0
1.8626 3.6608 0.4901 0.365 0.915 -0.169 40 38 41 0 0
1.8882 3.6578 0.4840 0.765 0.644 -0.012 51 49 52 0 0
1.8950 3.6465 0.4844 0.959 0.232 -0.163 62 60 61 0 0
1.9005 3.6345 0.4852 0.898 0.353 -0.261 56 54 55 0 0
1.9060 3.6226 0.4860 0.879 0.203 -0.431 51 50 50 0 0
1.9052 3.6077 0.4889 0.693 0.475 -0.542 43 42 42 0 0
1.9107 3.5957 0.4897 0.801 0.506 -0.320 38 37 38 0 0
1.9163 3.5838 0.4905 0.564 0.712 -0.417 31 29 32 0 0
1.7432 3.1538 0.6146 0.732 -0.673 -0.110 29 29 31 0 0
1.8583 3.6598 0.5052 0.201 0.979 0.030 50 50 53 0 0
1.8844 3.6570 0.4989 0.534 0.827 -0.173 57 57 59 0 0
1.9015 3.6503 0.4958 0.847 0.448 -0.287 62 62 63 0 0
1.9058 3.6233 0.4997 0.906 0.164 -0.391 56 57 58 0 0
1.9007 3.6065 0.5041 0.822 0.183 -0.540 55 56 57 0 0
1.9035 3.5933 0.5059 0.857 0.139 -0.496 52 54 55 0 0
1.9049 3.5794 0.5081 0.810 0.496 -0.314 46 46 47 0 0
1.9072 3.5659 0.5100 0.367 0.869 -0.331 40 39 40 0 0
1.9201 3.5573 0.5082 0.415 0.596 -0.688 37 36 37 0 0
1.8574 3.6603 0.5192 0.151 0.988 -0.023 50 51 53 0 0
1.8888 3.6600 0.5111 0.411 0.859 -0.306 54 54 56 0 0
1.9062 3.6534 0.5078 0.647 0.622 -0.440 52 52 54 0 0
1.9073 3.6105 0.5155 0.822 0.183 -0.540 45 45 47 0 0
1.9226 3.5594 0.5210 0.552 0.832 0.053 40 40 40 0 0
1.9113 3.6566 0.5196 0.487 0.790 -0.372 40 39 42 0 0
1.9186 3.6455 0.5198 0.738 0.416 -0.531 27 26 28 0 0
1.9128 3.6139 0.5272 0.889 0.134 -0.437 18 17 19 0 0
1.8846 3.6599 0.5398 0.084 0.881 -0.465 33 31 34 0 0
1.9102 3.6571 0.5336 0.321 0.771 -0.550 34 32 35 0 0
1.9312 3.6684 0.5535 0.664 0.589 -0.461 29 29 31 0 0
1.7141 3.1125 0.7318 0.723 -0.682 -0.108 30 31 34 0 0
1.9467 3.6629 0.5781 0.817 0.483 -0.316 29 29 31 0 0
1.7341 3.1235 0.7390 0.698 -0.709 -0.095 30 31 35 0 0
1.4915 3.7591 0.6972 -0.103 0.977 -0.187 54 53 58 0 0
1.9552 3.6676 0.5887 0.735 0.641 -0.220 39 39 41 0 0
1.9574 3.6695 0.6015 0.735 0.641 -0.220 49 49 49 0 0
1.9566 3.6547 0.6046 0.851 0.388 -0.353 53 53 52 0 0
1.9623 3.6429 0.6054 0.851 0.388 -0.353 48 48 49 0 0
1.9505 3.6229 0.6125 0.806 0.303 -0.508 36 36 39 0 0
1.7537 3.1349 0.7607 0.679 -0.732 -0.054 30 31 36 0 0
1.8491 3.7087 0.6376 0.638 0.646 0.419 41 39 42 0 0
1.9584 3.6565 0.6177 0.792 0.334 -0.512 51 50 51 0 0
1.9562 3.6410 0.6213 0.892 0.294 -0.344 56 56 56 0 0
1.9545 3.6257 0.6247 0.868 0.372 -0.328 51 51 51 0 0
1.9480 3.6081 0.6299 0.969 -0.020 -0.248 42 42 44 0 0
1.9372 3.5886 0.6367 0.896 0.232 -0.379 35 35 37 0 0
1.9639 3.6743 0.6265 0.702 0.665 -0.257 32 31 33 0 0
1.9555 3.6561 0.6324 0.892 0.294 -0.344 34 31 35 0 0
1.9596 3.6434 0.6337 0.860 0.319 -0.398 38 35 38 0 0
1.9581 3.6283 0.6371 0.868 0.372 -0.328 40 37 40 0 0
1.9533 3.6115 0.6417 0.995 -0.027 -0.098 38 38 40 0 0
1.9594 3.6587 0.6447 0.868 0.447 -0.218 15 14 17 0 0
1.9655 3.6471 0.6453 0.868 0.447 -0.218 15 14 16 0 0
1.9622 3.6310 0.6494 0.866 0.475 -0.156 16 15 18 0 0
1.9577 3.6589 0.6591 0.870 0.493 -0.005 16 16 18 0 0
1.9642 3.6474 0.6595 0.870 0.493 -0.005 14 14 16 0 0
1.9622 3.6319 0.6631 0.817 0.560 0.135 12 12 14 0 0
1.9547 3.6584 0.6740 0.765 0.640 0.070 24 23 26 0 0
1.9635 3.6479 0.6736 0.765 0.640 0.070 20 20 22 0 0
1.9302 3.5742 0.6975 0.827 -0.135 0.545 12 12 14 0 0
1.9745 3.6257 0.7028 0.589 -0.119 -0.799 16 16 18 0 0
1.9773 3.6125 0.7046 0.511 -0.045 -0.859 12 12 14 0 0
1.9538 3.5869 0.7164 0.539 -0.496 -0.680 10 10 12 0 0
1.9886 3.6331 0.7112 0.663 0.428 -0.614 22 22 24 0 0
1.9799 3.6146 0.7175 0.818 0.534 -0.216 19 19 21 0 0
1.9753 3.5978 0.7221 0.897 -0.226 -0.381 15 15 17 0 0
1.9682 3.5954 0.7387 0.975 -0.184 0.126 26 26 28 0 0
1.9922 3.7108 0.7504 0.207 0.902 -0.379 29 29 31 0 0
1.9914 3.6088 0.7714 0.548 -0.171 -0.819 19 19 21 0 0
1.7930 3.1492 0.9529 0.751 -0.661 -0.018 29 28 33 0 0
2.0304 3.6313 0.8256 0.753 0.497 -0.432 18 18 20 0 0
2.0248 3.6296 0.8417 0.755 0.332 -0.565 31 31 33 0 0
1.7763 3.1275 1.0219 0.733 -0.680 0.007 30 29 35 0 0
2.0109 3.7257 0.8399 0.860 0.509 -0.035 49 49 51 0 0
2.0214 3.6435 0.8540 0.757 0.213 -0.618 29 29 31 0 0
1.7219 3.0840 1.0626 0.688 -0.725 -0.030 30 29 34 0 0
2.0190 3.7159 0.8536 0.648 0.612 -0.454 48 46 49 0 0
2.0557 3.6602 0.8541 0.438 0.891 -0.117 27 27 29 0 0
2.0077 3.7406 0.8659 0.408 0.704 -0.582 36 34 37 0 0
2.0150 3.7295 0.8661 0.673 0.281 -0.684 28 26 29 0 0
2.0426 3.6550 0.8733 0.558 0.599 -0.575 21 21 23 0 0
2.0237 3.6317 0.8840 0.577 -0.278 -0.768 24 24 26 0 0
2.0179 3.7461 0.8757 0.655 0.739 -0.157 29 27 30 0 0
2.0478 3.6584 0.8851 0.401 0.796 -0.454 12 12 14 0 0
2.0324 3.6366 0.8945 0.747 -0.164 -0.644 14 14 16 0 0
2.0539 3.6620 0.8966 0.522 0.688 -0.504 10 10 12 0 0
2.0375 3.6399 0.9064 0.884 -0.220 -0.412 12 12 14 0 0
1.6307 2.9904 1.1716 0.957 0.185 0.223 35 34 39 0 0
2.0790 3.7035 0.8940 0.917 0.346 -0.196 21 21 23 0 0
2.0745 3.6869 0.8989 0.926 0.030 -0.376 15 15 17 0 0
2.0556 3.7371 0.9082 0.527 0.741 -0.416 31 31 33 0 0
1.6317 2.9922 1.2017 0.953 0.045 0.301 34 33 38 0 0
1.8862 3.7508 0.9873 0.082 0.908 0.411 37 37 39 0 0
2.0373 3.6148 0.9831 0.923 -0.122 -0.365 32 32 34 0 0
1.9412 3.7634 1.0101 -0.040 0.994 0.099 34 33 36 0 0
1.5639 2.9273 1.3312 0.968 0.192 0.164 35 37 42 0 0
2.0540 3.7438 1.0206 0.530 -0.040 -0.847 28 27 30 0 0
2.0040 3.7728 1.1457 -0.340 0.850 -0.402 32 32 34 0 0
2.0462 3.7954 1.1838 0.965 0.208 0.162 40 40 42 0 0
2.1054 3.6971 1.2878 0.069 0.571 -0.818 19 20 22 0 0
2.1581 3.7068 1.2665 0.892 0.384 0.239 12 13 15 0 0
2.1590 3.6926 1.2695 0.843 0.490 -0.220 11 11 13 0 0
1.9804 3.8330 1.3149 0.822 0.448 0.351 33 32 35 0 0
2.1589 3.6934 1.2839 0.930 0.343 0.129 11 11 13 0 0
2.1309 3.7982 1.2833 0.559 0.612 -0.559 40 39 44 0 0
2.1545 3.6776 1.3038 0.932 0.212 0.294 21 21 23 0 0
1.9987 3.8137 1.3424 0.227 0.949 0.217 43 43 45 0 0
2.1139 3.8061 1.3021 0.601 0.700 -0.385 40 40 43 0 0
2.1216 3.7950 1.3020 0.805 0.322 -0.498 39 39 43 0 0
2.1111 3.5838 1.3570 0.205 0.127 -0.970 38 38 41 0 0
2.1132 3.6941 1.4177 0.064 0.286 -0.956 14 14 16 0 0
2.1316 3.7035 1.4232 0.194 0.267 -0.944 27 29 30 0 0
2.1274 3.6571 1.4364 0.073 -0.206 -0.976 18 18 20 0 0
2.1434 3.4999 1.4694 0.659 -0.736 -0.152 38 38 42 0 0
2.1608 3.7179 1.4234 0.898 0.424 -0.115 28 30 32 0 0
2.1552 3.6710 1.4371 0.537 -0.517 -0.667 18 18 20 0 0
2.1459 3.4868 1.4867 0.685 -0.400 -0.609 50 51 55 0 0
2.1548 3.7307 1.4371 0.738 0.617 -0.272 24 25 27 0 0
2.1626 3.7196 1.4369 0.719 0.524 -0.457 21 22 24 0 0
2.1765 3.6818 1.4411 0.595 -0.275 -0.755 22 22 25 0 0
2.1471 3.8305 1.4297 0.653 0.726 -0.217 40 39 44 0 0
2.1377 3.6049 1.4900 0.837 0.141 0.528 36 36 38 0 0
2.0776 3.2534 1.6168 0.408 0.460 -0.789 45 46 48 0 0
2.1563 3.5117 1.5663 0.563 -0.440 -0.700 15 14 17 0 0
2.1812 3.5247 1.5683 0.560 -0.576 -0.596 25 24 26 0 0
2.2170 3.5581 1.5606 0.800 -0.600 -0.032 34 32 35 0 0
2.2046 3.5987 1.5849 0.793 -0.393 -0.466 40 39 44 0 0
2.0759 3.8521 1.5853 -0.072 0.995 0.070 39 39 41 0 0
2.1986 3.5665 1.6106 0.916 -0.341 0.210 47 46 48 0 0
2.0954 3.8479 1.6085 0.085 0.976 0.200 44 43 48 0 0
1.7772 3.9397 1.7588 0.203 0.976 0.078 41 42 47 0 0
1.8036 3.9355 1.7492 0.149 0.424 -0.893 35 36 42 0 0
2.1900 3.5513 1.6935 0.561 -0.687 -0.462 16 16 18 0 0
2.2217 3.6434 1.6862 0.902 0.011 0.432 14 13 17 0 0
2.2393 3.5618 1.7007 0.752 0.029 0.658 28 29 33 0 0
2.2364 3.7108 1.6771 0.950 0.127 -0.285 25 25 28 0 0
2.2067 3.6820 1.6971 0.976 0.067 0.205 17 16 20 0 0
2.2153 3.5508 1.7287 0.752 0.029 0.658 30 31 35 0 0
2.1910 3.5397 1.7569 0.752 0.029 0.658 24 25 26 0 0
1.8499 3.9316 1.8241 0.141 0.952 -0.271 44 45 49 0 0
2.2165 3.7487 1.7203 0.690 0.493 0.529 26 27 29 0 0
1.6102 4.0180 1.9169 0.002 -0.068 -0.998 64 65 65 0 0
1.6163 4.0053 1.9178 0.002 -0.068 -0.998 72 76 75 0 0
1.9541 3.9185 1.8302 0.184 0.536 -0.824 35 35 37 0 0
2.2202 3.6035 1.8036 0.516 -0.445 -0.732 13 13 15 0 0
2.1463 3.8697 1.7924 0.236 0.753 -0.614 33 34 38 0 0
1.6878 4.0093 1.9658 0.386 0.008 -0.923 49 48 53 0 0
2.1561 3.8603 1.8060 0.518 0.351 -0.780 32 33 37 0 0
1.9836 3.9204 1.8788 0.185 0.974 -0.130 46 46 48 0 0
2.1935 3.6243 1.8705 0.351 -0.400 -0.847 32 32 34 0 0
2.0324 3.8976 1.8795 0.211 0.977 0.037 44 45 48 0 0
2.1626 3.8651 1.8322 0.544 0.801 0.250 40 41 45 0 0
2.0330 3.8989 1.8943 0.121 0.991 -0.061 50 50 54 0 0
2.0607 3.8959 1.8831 0.031 0.993 -0.113 49 49 54 0 0
2.1728 3.8853 1.8374 0.194 0.979 -0.063 46 46 50 0 0
2.1566 3.8635 1.8505 0.544 0.801 0.250 45 45 49 0 0
2.0309 3.8991 1.9106 0.174 0.985 -0.011 51 51 56 0 0
2.2111 3.6805 1.8932 0.102 0.392 -0.914 45 46 50 0 0
2.2290 3.5831 1.9127 0.779 -0.379 -0.500 48 47 53 0 0
2.2223 3.5646 1.9208 0.981 -0.192 -0.001 47 46 52 0 0
2.2147 3.7431 1.8894 0.089 -0.094 -0.992 45 46 50 0 0
2.2180 3.7146 1.8960 0.481 -0.211 -0.851 45 46 50 0 0
2.2440 3.6968 1.8895 0.831 0.309 0.463 46 47 51 0 0
2.0797 3.8924 1.9220 0.251 0.958 0.142 41 40 45 0 0
2.2382 3.7845 1.8826 0.783 0.254 -0.568 46 46 50 0 0
2.2250 3.5522 1.9540 0.833 -0.034 -0.552 22 21 26 0 0
2.2257 3.5373 1.9579 0.969 0.100 -0.224 21 21 23 0 0
2.0467 3.8942 1.9515 0.336 0.900 0.277 34 35 37 0 0
2.1823 3.8394 1.9838 0.926 0.378 0.002 26 27 29 0 0
2.1714 3.8196 1.9945 0.787 0.176 -0.591 26 27 29 0 0
2.1037 3.8953 2.0187 0.057 0.920 -0.388 30 31 33 0 0
2.1409 3.8668 2.0101 0.701 0.424 -0.574 25 26 28 0 0
2.1788 3.8389 2.0010 0.940 0.342 0.003 26 27 29 0 0
2.1865 3.8274 2.0008 0.936 -0.027 -0.351 25 26 28 0 0
2.2164 3.8259 1.9877 0.910 0.289 0.298 25 25 27 0 0
2.0907 3.9057 2.0371 0.111 0.910 -0.399 25 26 28 0 0
2.1119 3.8999 2.0292 0.152 0.917 -0.369 31 32 34 0 0
2.1483 3.8711 2.0210 0.662 0.509 -0.550 26 27 31 0 0
2.1654 3.8488 2.0197 0.841 0.536 -0.074 27 28 30 0 0
2.1803 3.8256 2.0196 0.987 0.160 -0.030 27 28 30 0 0
2.0977 3.9097 2.0483 0.111 0.910 -0.399 25 26 29 0 0
2.1191 3.9041 2.0402 0.207 0.925 -0.318 33 34 37 0 0
2.1389 3.8978 2.0330 0.351 0.883 -0.312 39 40 44 0 0
2.1489 3.8872 2.0315 0.596 0.724 -0.347 37 38 42 0 0
2.1548 3.8749 2.0324 0.662 0.509 -0.550 33 34 38 0 0
2.1659 3.8500 2.0346 0.916 0.393 -0.083 33 34 37 0 0
2.1815 3.8271 2.0341 0.986 0.147 -0.084 32 33 36 0 0
2.0797 3.9180 2.0697 0.056 0.954 -0.295 36 37 42 0 0
2.1056 3.9142 2.0590 0.172 0.908 -0.381 34 35 39 0 0
2.1249 3.9076 2.0520 0.172 0.908 -0.381 39 40 44 0 0
2.1468 3.9022 2.0436 0.257 0.834 -0.488 45 46 50 0 0
2.1576 3.8920 2.0416 0.478 0.657 -0.583 42 43 47 0 0
2.1667 3.8514 2.0493 0.916 0.393 -0.083 39 40 44 0 0
2.0668 3.9285 2.0882 -0.012 0.893 -0.449 43 44 48 0 0
2.0634 3.9122 2.0946 0.226 0.973 -0.056 43 44 49 0 0
2.1188 3.9209 2.0665 0.460 0.820 -0.341 41 42 47 0 0
2.1323 3.9119 2.0629 0.460 0.820 -0.341 43 44 48 0 0
2.1535 3.9062 2.0549 0.244 0.858 -0.453 44 45 49 0 0
2.1535 3.8913 2.0592 0.735 0.438 -0.518 44 45 49 0 0
2.1881 3.8021 2.0694 0.955 0.042 0.295 41 42 46 0 0
2.0474 3.9214 2.1150 0.159 0.962 -0.220 42 43 47 0 0
2.0661 3.9144 2.1084 0.114 0.980 -0.161 44 45 49 0 0
2.1334 3.8985 2.0819 0.487 0.775 -0.402 45 44 49 0 0
2.1552 3.8931 2.0734 0.238 0.955 -0.175 45 44 49 0 0
2.2066 3.8114 2.0737 0.942 -0.268 -0.202 43 42 47 0 0
2.1925 3.7901 2.0865 0.924 0.379 -0.053 43 42 47 0 0
2.2009 3.7788 2.0859 0.975 0.173 -0.140 43 42 47 0 0
2.0497 3.9235 2.1290 0.060 0.915 -0.398 38 39 43 0 0
2.0722 3.9181 2.1201 0.088 0.907 -0.412 39 40 44 0 0
2.1191 3.9083 2.1012 0.534 0.842 0.073 40 41 45 0 0
2.1354 3.9004 2.0960 0.437 0.895 0.093 45 44 49 0 0
2.1608 3.8966 2.0854 0.676 0.624 -0.392 46 45 50 0 0
2.1735 3.8872 2.0822 0.584 0.754 -0.301 45 44 49 0 0
2.0618 3.9447 2.1328 0.522 0.602 -0.605 35 36 40 0 0
2.0721 3.9341 2.1312 0.522 0.602 -0.605 37 38 42 0 0
2.0832 3.9239 2.1290 0.607 0.563 -0.561 38 39 43 0 0
2.1568 3.8810 2.1074 0.664 0.737 -0.127 45 44 49 0 0
2.0544 3.9427 2.1526 0.209 0.893 -0.399 38 37 42 0 0
2.1450 3.8918 2.1253 0.596 0.800 -0.071 40 41 45 0 0
2.1541 3.8808 2.1243 0.718 0.496 -0.488 37 38 42 0 0
2.0974 3.9321 2.1513 0.648 0.747 0.147 40 41 45 0 0
2.1026 3.9194 2.1527 0.712 0.530 0.460 40 41 45 0 0
2.1217 3.8977 2.1502 0.609 0.735 0.298 41 42 46 0 0
2.1459 3.8783 2.1446 0.797 0.528 0.293 37 38 42 0 0
2.1872 3.8515 2.1332 0.991 0.090 -0.099 39 38 43 0 0
2.1774 3.8482 2.1544 0.773 0.580 0.255 39 38 43 0 0
2.0769 3.8805 2.2080 0.955 0.134 0.263 39 40 44 0 0
2.0728 3.8344 2.2397 0.952 0.289 0.103 42 43 48 0 0
2.0618 3.8631 2.2840 0.955 0.188 0.228 22 23 24 0 0
2.1264 3.8636 2.5258 0.806 0.518 -0.288 49 49 52 0 0
2.2922 4.0331 2.7224 0.648 0.686 -0.332 35 36 40 0 0
2.2860 4.0465 2.7375 0.348 0.909 -0.231 38 39 43 0 0
2.2907 4.0335 2.7394 0.694 0.706 0.141 38 39 43 0 0
2.2683 4.0190 2.9051 0.894 0.384 0.232 47 46 51 0 0
2.2531 4.0137 2.9323 0.898 0.339 0.279 46 45 50 0 0
2.2615 4.0021 2.9316 0.746 0.529 0.404 44 43 48 0 0
